<?xml version="1.0" encoding="UTF-8" standalone="no"?>
<!-- Created with Inkscape (http://www.inkscape.org/) -->

<svg
   xmlns:dc="http://purl.org/dc/elements/1.1/"
   xmlns:cc="http://creativecommons.org/ns#"
   xmlns:rdf="http://www.w3.org/1999/02/22-rdf-syntax-ns#"
   xmlns:svg="http://www.w3.org/2000/svg"
   xmlns="http://www.w3.org/2000/svg"
   xmlns:sodipodi="http://sodipodi.sourceforge.net/DTD/sodipodi-0.dtd"
   xmlns:inkscape="http://www.inkscape.org/namespaces/inkscape"
   width="50.799999mm"
   height="128.5mm"
   viewBox="0 0 50.799999 128.5"
   version="1.1"
   id="svg8"
   sodipodi:docname="Envelope.svg"
   inkscape:version="0.92.4 (unknown)">
  <defs
     id="defs2" />
  <sodipodi:namedview
     id="base"
     pagecolor="#ffffff"
     bordercolor="#666666"
     borderopacity="1.0"
     inkscape:pageopacity="0.0"
     inkscape:pageshadow="2"
     inkscape:zoom="1.4"
     inkscape:cx="-42.423547"
     inkscape:cy="315.97025"
     inkscape:document-units="mm"
     inkscape:current-layer="layer2"
     showgrid="false"
     inkscape:window-width="1303"
     inkscape:window-height="744"
     inkscape:window-x="63"
     inkscape:window-y="24"
     inkscape:window-maximized="1" />
  <metadata
     id="metadata5">
    <rdf:RDF>
      <cc:Work
         rdf:about="">
        <dc:format>image/svg+xml</dc:format>
        <dc:type
           rdf:resource="http://purl.org/dc/dcmitype/StillImage" />
        <dc:title></dc:title>
      </cc:Work>
    </rdf:RDF>
  </metadata>
  <g
     inkscape:label="Layer 1"
     inkscape:groupmode="layer"
     id="layer1"
     transform="translate(0,-168.5)">
    <rect
       style="fill:#f0f0f0;fill-opacity:1;stroke:none;stroke-width:0.30917579;stroke-opacity:1"
       id="rect815"
       width="50.799999"
       height="128.5"
       x="-1.4210855e-14"
       y="168.5" />
    <g
       aria-label="envelope"
       transform="matrix(0.26458333,0,0,0.26458333,1.4888673,148.95578)"
       style="font-style:normal;font-variant:normal;font-weight:bold;font-stretch:normal;font-size:26.66666603px;line-height:1.25;font-family:'Courier 10 Pitch';-inkscape-font-specification:'Courier 10 Pitch Bold';text-align:center;letter-spacing:0px;word-spacing:0px;text-anchor:middle;fill:#000000;fill-opacity:1;stroke:none"
       id="flowRoot1647">
      <path
         d="m 54.59718,103.51745 h 5.04 c 0.816,0 1.136,-0.112 1.136,-0.8 0,-1.824 -1.536,-3.440004 -3.904,-3.440004 -2.592,0 -4.256,1.632004 -4.256,3.792004 0,2.16 1.68,3.792 4.256,3.792 2.288,0 3.776,-0.896 3.776,-1.792 0,-0.464 -0.288,-0.768 -0.704,-0.768 -0.576,0 -1.328,0.944 -3.008,0.944 -1.296,0 -2.064,-0.56 -2.336,-1.728 z m 0,-1.216 c 0.272,-1.024 0.96,-1.52 2.096,-1.52 1.168,0 1.936,0.544 2.112,1.52 z"
         style="font-size:16px"
         id="path1895"
         inkscape:connector-curvature="0" />
      <path
         d="m 69.63018,104.94145 v -2.608 c 0,-2.048 -0.784,-3.072004 -2.48,-3.072004 -0.992,0 -1.712,0.384 -2.208,1.136004 v -0.608004 c 0,-0.208 -0.144,-0.336 -0.448,-0.336 h -1.328 c -0.656,0 -0.976,0.208 -0.976,0.864004 0,0.56 0.288,0.848 0.848,0.848 0.032,0 0.08,0 0.128,0 v 3.776 c -0.032,0 -0.064,0 -0.096,0 -0.592,0 -0.88,0.288 -0.88,0.864 0,0.64 0.304,0.864 0.976,0.864 h 1.936 c 0.672,0 0.976,-0.224 0.976,-0.864 0,-0.576 -0.288,-0.864 -0.88,-0.864 -0.032,0 -0.064,0 -0.096,0 v -2.256 c 0,-1.104 0.656,-1.728 1.472,-1.728 0.896,0 1.136,0.592 1.136,1.728 v 2.256 c -0.032,0 -0.064,0 -0.096,0 -0.592,0 -0.896,0.288 -0.896,0.864 0,0.64 0.32,0.864 0.992,0.864 h 1.92 c 0.672,0 0.976,-0.224 0.976,-0.864 0,-0.576 -0.288,-0.864 -0.88,-0.864 -0.032,0 -0.064,0 -0.096,0 z"
         style="font-size:16px"
         id="path1897"
         inkscape:connector-curvature="0" />
      <path
         d="m 76.99918,106.09345 2.32,-4.928 c 0.048,0 0.08,0 0.128,0 0.56,0 0.864,-0.304 0.864,-0.864 0,-0.656004 -0.336,-0.848004 -0.992,-0.848004 h -1.84 c -0.656,0 -0.992,0.192 -0.992,0.848004 0,0.56 0.304,0.864 0.864,0.864 0.048,0 0.08,0 0.128,0 l -1.472,3.328 -1.408,-3.328 c 0.048,0 0.08,0 0.128,0 0.56,0 0.864,-0.304 0.864,-0.864 0,-0.656004 -0.336,-0.848004 -0.992,-0.848004 h -1.984 c -0.656,0 -0.992,0.192 -0.992,0.848004 0,0.56 0.304,0.864 0.864,0.864 0.048,0 0.08,0 0.128,0 l 2.176,4.928 c 0.208,0.48 0.256,0.768 1.104,0.768 0.72,0 0.832,-0.192 1.104,-0.768 z"
         style="font-size:16px"
         id="path1899"
         inkscape:connector-curvature="0" />
      <path
         d="m 83.47218,103.51745 h 5.04 c 0.816,0 1.136,-0.112 1.136,-0.8 0,-1.824 -1.536,-3.440004 -3.904,-3.440004 -2.592,0 -4.256,1.632004 -4.256,3.792004 0,2.16 1.68,3.792 4.256,3.792 2.288,0 3.776,-0.896 3.776,-1.792 0,-0.464 -0.288,-0.768 -0.704,-0.768 -0.576,0 -1.328,0.944 -3.008,0.944 -1.296,0 -2.064,-0.56 -2.336,-1.728 z m 0,-1.216 c 0.272,-1.024 0.96,-1.52 2.096,-1.52 1.168,0 1.936,0.544 2.112,1.52 z"
         style="font-size:16px"
         id="path1901"
         inkscape:connector-curvature="0" />
      <path
         d="m 94.24918,98.173446 v 6.784004 h -1.68 c -0.656,0 -0.976,0.192 -0.976,0.848 0,0.656 0.32,0.864 0.976,0.864 h 5.296 c 0.656,0 0.976,-0.208 0.976,-0.864 0,-0.656 -0.32,-0.848 -0.976,-0.848 h -1.68 v -8.176004 c 0,-0.208 -0.176,-0.336 -0.464,-0.336 h -2.336 c -0.656,0 -0.992,0.208 -0.992,0.864 0,0.656 0.336,0.864 0.992,0.864 z"
         style="font-size:16px"
         id="path1903"
         inkscape:connector-curvature="0" />
      <path
         d="m 109.10618,103.06945 c 0,-2.16 -1.664,-3.792004 -4.256,-3.792004 -2.592,0 -4.272,1.632004 -4.272,3.792004 0,2.16 1.68,3.792 4.272,3.792 2.592,0 4.256,-1.632 4.256,-3.792 z m -4.256,2.144 c -1.216,0 -2.096,-0.912 -2.096,-2.16 0,-1.232 0.864,-2.128 2.096,-2.128 1.248,0 2.08,0.896 2.08,2.128 0,1.232 -0.848,2.16 -2.08,2.16 z"
         style="font-size:16px"
         id="path1905"
         inkscape:connector-curvature="0" />
      <path
         d="m 113.97918,108.06145 h -0.992 v -2.128 c 0.544,0.448 1.296,0.688 2.128,0.688 2.048,0 3.6,-1.568 3.6,-3.76 0,-2.048 -1.536,-3.600004 -3.696,-3.600004 -0.944,0 -1.712,0.368 -2.24,1.072004 v -0.560004 c 0,-0.208 -0.144,-0.32 -0.448,-0.32 h -1.2 c -0.656,0 -0.976,0.192 -0.976,0.848004 0,0.56 0.288,0.864 0.848,0.864 0.048,0 0.08,0 0.128,0 v 6.896 h -0.464 c -0.656,0 -0.976,0.208 -0.976,0.864 0,0.656 0.32,0.848 0.976,0.848 h 3.312 c 0.656,0 0.976,-0.192 0.976,-0.848 0,-0.656 -0.32,-0.864 -0.976,-0.864 z m -0.96,-5.104 c 0,-1.2 0.752,-2.032 1.776,-2.032 1.024,0 1.776,0.832 1.776,2.032 0,1.2 -0.768,2.032 -1.776,2.032 -1.024,0 -1.776,-0.832 -1.776,-2.032 z"
         style="font-size:16px"
         id="path1907"
         inkscape:connector-curvature="0" />
      <path
         d="m 121.97218,103.51745 h 5.04 c 0.816,0 1.136,-0.112 1.136,-0.8 0,-1.824 -1.536,-3.440004 -3.904,-3.440004 -2.592,0 -4.256,1.632004 -4.256,3.792004 0,2.16 1.68,3.792 4.256,3.792 2.288,0 3.776,-0.896 3.776,-1.792 0,-0.464 -0.288,-0.768 -0.704,-0.768 -0.576,0 -1.328,0.944 -3.008,0.944 -1.296,0 -2.064,-0.56 -2.336,-1.728 z m 0,-1.216 c 0.272,-1.024 0.96,-1.52 2.096,-1.52 1.168,0 1.936,0.544 2.112,1.52 z"
         style="font-size:16px"
         id="path1909"
         inkscape:connector-curvature="0" />
    </g>
    <rect
       style="fill:#060000;fill-opacity:1;stroke:none;stroke-width:0.39132401;stroke-opacity:1"
       id="rect5240-9-7"
       width="10"
       height="14"
       x="34.799999"
       y="276"
       rx="1.2500008" />
    <g
       aria-label="out"
       transform="matrix(0.26458333,0,0,0.26458333,15.171489,177.30738)"
       style="font-style:normal;font-variant:normal;font-weight:bold;font-stretch:normal;font-size:26.66666603px;line-height:1.25;font-family:'Courier 10 Pitch';-inkscape-font-specification:'Courier 10 Pitch Bold';text-align:center;letter-spacing:0px;word-spacing:0px;text-anchor:middle;fill:#ffffff;fill-opacity:1;stroke:none"
       id="flowRoot1686">
      <path
         d="m 88.742617,382.85304 c 0,-1.8 -1.386667,-3.16 -3.546667,-3.16 -2.16,0 -3.56,1.36 -3.56,3.16 0,1.8 1.4,3.16 3.56,3.16 2.16,0 3.546667,-1.36 3.546667,-3.16 z m -3.546667,1.78667 c -1.013333,0 -1.746667,-0.76 -1.746667,-1.8 0,-1.02667 0.72,-1.77334 1.746667,-1.77334 1.04,0 1.733334,0.74667 1.733334,1.77334 0,1.02666 -0.706667,1.8 -1.733334,1.8 z"
         style="font-size:13.33333397px;fill:#ffffff;fill-opacity:1"
         id="path1989"
         inkscape:connector-curvature="0" />
      <path
         d="m 95.843451,384.42637 v -4.30666 c 0,-0.17334 -0.133333,-0.28 -0.373333,-0.28 h -1.226667 c -0.546667,0 -0.826667,0.16 -0.826667,0.70666 0,0.46667 0.253333,0.72 0.72,0.72 0.04,0 0.06667,0 0.106667,0 v 1.88 c 0,0.92 -0.546667,1.45334 -1.226667,1.45334 -0.746667,0 -0.96,-0.50667 -0.96,-1.45334 v -3.02666 c 0,-0.17334 -0.12,-0.28 -0.36,-0.28 h -1.226667 c -0.546666,0 -0.826666,0.16 -0.826666,0.70666 0,0.46667 0.24,0.72 0.706666,0.72 0.04,0 0.06667,0 0.106667,0 v 2.17334 c 0,1.70666 0.666667,2.56 2.08,2.56 0.826667,0 1.413333,-0.30667 1.826667,-0.93334 v 0.49334 c 0,0.17333 0.133333,0.29333 0.386667,0.29333 h 1.093333 c 0.546667,0 0.813333,-0.17333 0.813333,-0.72 0,-0.46667 -0.24,-0.70667 -0.706666,-0.70667 -0.02667,0 -0.06667,0 -0.106667,0 z"
         style="font-size:13.33333397px;fill:#ffffff;fill-opacity:1"
         id="path1991"
         inkscape:connector-curvature="0" />
      <path
         d="m 98.570951,381.62637 h 0.613334 v 1.66667 c 0,0.0533 0,0.10667 0,0.14667 0,0.78666 0.01333,1.38666 0.4,1.84 0.373333,0.44 1.053335,0.70666 1.973335,0.70666 1.61333,0 2.97333,-0.72 2.97333,-1.30666 0,-0.45334 -0.30667,-0.74667 -0.65333,-0.74667 -0.56,0 -1.2,0.58667 -2.12,0.58667 -0.77334,0 -0.97334,-0.37334 -0.97334,-1.22667 v -1.66667 h 1.98667 c 0.54667,0 0.82667,-0.17333 0.82667,-0.72 0,-0.54666 -0.28,-0.70666 -0.82667,-0.70666 h -1.98667 v -1.52 c 0,-0.56 -0.2,-0.81334 -0.813329,-0.81334 -0.506666,0 -0.786666,0.28 -0.786666,0.54667 0,0.0267 0,0.10667 0,0.26667 v 1.52 h -0.613334 c -0.546666,0 -0.813333,0.16 -0.813333,0.70666 0,0.54667 0.266667,0.72 0.813333,0.72 z"
         style="font-size:13.33333397px;fill:#ffffff;fill-opacity:1"
         id="path1993"
         inkscape:connector-curvature="0" />
    </g>
    <g
       aria-label="retrig"
       transform="matrix(0.26458333,0,0,0.26458333,0.7714882,177.22179)"
       style="font-style:normal;font-variant:normal;font-weight:bold;font-stretch:normal;font-size:26.66666603px;line-height:1.25;font-family:'Courier 10 Pitch';-inkscape-font-specification:'Courier 10 Pitch Bold';text-align:center;letter-spacing:0px;word-spacing:0px;text-anchor:middle;fill:#ffffff;fill-opacity:1;stroke:none"
       id="flowRoot1686-6">
      <path
         d="m 72.5247,384.93304 v -2.69333 c 0.866666,-0.98667 1.6,-1.50667 2.32,-1.50667 0.506666,0 0.786666,0.4 1.133333,0.4 0.28,0 0.573333,-0.29333 0.573333,-0.61333 0,-0.48 -0.48,-0.84 -1.293333,-0.84 -1.04,0 -1.92,0.50666 -2.733333,1.53333 v -1.10667 c 0,-0.18666 -0.12,-0.26666 -0.36,-0.26666 h -1.480001 c -0.346666,0 -0.52,0.14666 -0.52,0.45333 0,0.33333 0.186667,0.46667 0.613334,0.46667 0.06667,0 0.186666,0 0.333333,0 h 0.44 v 4.17333 h -1.146667 c -0.36,0 -0.546666,0.14667 -0.546666,0.45333 0,0.30667 0.186666,0.46667 0.533333,0.46667 H 74.6447 c 0.386666,0 0.533333,-0.0933 0.533333,-0.46667 0,-0.32 -0.16,-0.45333 -0.493333,-0.45333 z"
         style="font-style:normal;font-variant:normal;font-weight:normal;font-stretch:normal;font-size:13.33333397px;font-family:'Courier 10 Pitch';-inkscape-font-specification:'Courier 10 Pitch';fill:#000000;fill-opacity:1"
         id="path1996"
         inkscape:connector-curvature="0" />
      <path
         d="m 79.0122,382.27971 c 0.253333,-1.08 1.093333,-1.72 2.24,-1.72 1.053334,0 1.88,0.68 2,1.72 z m -0.02667,0.85333 h 4.373334 c 0.8,0 1.08,0 1.08,-0.61333 0,-1.45334 -1.213333,-2.85334 -3.186667,-2.85334 -2.013333,0 -3.4,1.29334 -3.4,3.16 0,1.94667 1.253333,3.18667 3.266667,3.18667 0.88,0 1.826667,-0.21333 2.72,-0.65333 0.386667,-0.18667 0.573333,-0.38667 0.573333,-0.65334 0,-0.24 -0.2,-0.42666 -0.453333,-0.42666 -0.586667,0 -1.426667,0.81333 -2.746667,0.81333 -1.346667,0 -2.16,-0.70667 -2.226667,-1.96 z"
         style="font-style:normal;font-variant:normal;font-weight:normal;font-stretch:normal;font-size:13.33333397px;font-family:'Courier 10 Pitch';-inkscape-font-specification:'Courier 10 Pitch';fill:#000000;fill-opacity:1"
         id="path1998"
         inkscape:connector-curvature="0" />
      <path
         d="m 90.979701,380.19971 h -2.56 v -1.32 c 0,-0.64 -0.05333,-0.90667 -0.52,-0.90667 -0.346667,0 -0.506667,0.18667 -0.506667,0.54667 0,0.17333 0,0.29333 0,0.34666 v 1.33334 h -0.72 c -0.626667,0 -0.893333,0.04 -0.893333,0.46666 0,0.32 0.16,0.45334 0.52,0.45334 h 1.093333 v 2.17333 c 0,0.0667 0,0.13333 0,0.2 0,0.6 0.01333,1.12 0.24,1.50667 0.373333,0.65333 1.066667,0.97333 2.066667,0.97333 0.613333,0 1.293333,-0.17333 2.106667,-0.49333 0.48,-0.18667 0.72,-0.37334 0.72,-0.68 0,-0.24 -0.213334,-0.46667 -0.453334,-0.46667 -0.52,0 -1.386666,0.69333 -2.44,0.69333 -1.146667,0 -1.226667,-0.69333 -1.226667,-1.73333 v -2.17333 h 2.640001 c 0.36,0 0.546666,-0.14667 0.546666,-0.45334 0,-0.33333 -0.2,-0.46666 -0.613333,-0.46666 z"
         style="font-style:normal;font-variant:normal;font-weight:normal;font-stretch:normal;font-size:13.33333397px;font-family:'Courier 10 Pitch';-inkscape-font-specification:'Courier 10 Pitch';fill:#000000;fill-opacity:1"
         id="path2000"
         inkscape:connector-curvature="0" />
      <path
         d="m 96.587201,384.93304 v -2.69333 c 0.866667,-0.98667 1.600001,-1.50667 2.320001,-1.50667 0.506666,0 0.786666,0.4 1.133328,0.4 0.28,0 0.57334,-0.29333 0.57334,-0.61333 0,-0.48 -0.48,-0.84 -1.293335,-0.84 -1.04,0 -1.92,0.50666 -2.733334,1.53333 v -1.10667 c 0,-0.18666 -0.12,-0.26666 -0.36,-0.26666 h -1.48 c -0.346666,0 -0.52,0.14666 -0.52,0.45333 0,0.33333 0.186667,0.46667 0.613334,0.46667 0.06667,0 0.186666,0 0.333333,0 h 0.44 v 4.17333 h -1.146667 c -0.36,0 -0.546666,0.14667 -0.546666,0.45333 0,0.30667 0.186666,0.46667 0.533333,0.46667 h 4.253334 c 0.386666,0 0.533333,-0.0933 0.533333,-0.46667 0,-0.32 -0.16,-0.45333 -0.493333,-0.45333 z"
         style="font-style:normal;font-variant:normal;font-weight:normal;font-stretch:normal;font-size:13.33333397px;font-family:'Courier 10 Pitch';-inkscape-font-specification:'Courier 10 Pitch';fill:#000000;fill-opacity:1"
         id="path2002"
         inkscape:connector-curvature="0" />
      <path
         d="m 105.84804,384.93304 v -4.82667 c 0,-0.16 -0.12,-0.26666 -0.37334,-0.26666 h -1.90666 c -0.34667,0 -0.52,0.14666 -0.52,0.45333 0,0.30667 0.18666,0.46667 0.54666,0.46667 h 1.26667 v 4.17333 h -1.98667 c -0.36,0 -0.54666,0.14667 -0.54666,0.45333 0,0.30667 0.17333,0.46667 0.52,0.46667 h 5.05333 c 0.38667,0 0.53333,-0.0933 0.53333,-0.46667 0,-0.32 -0.16,-0.45333 -0.49333,-0.45333 z m -1.21334,-6.97333 c 0,0.53333 0.13334,0.64 0.68,0.64 0.62667,0 0.66667,-0.14667 0.66667,-0.82667 0,-0.68 -0.0667,-0.88 -0.66667,-0.88 -0.6,0 -0.68,0.2 -0.68,1.06667 z"
         style="font-style:normal;font-variant:normal;font-weight:normal;font-stretch:normal;font-size:13.33333397px;font-family:'Courier 10 Pitch';-inkscape-font-specification:'Courier 10 Pitch';fill:#000000;fill-opacity:1"
         id="path2004"
         inkscape:connector-curvature="0" />
      <path
         d="m 115.90887,385.50637 v -4.74666 c 0.04,0 0.08,0 0.12,0 0.54667,0 0.77333,-0.0933 0.77333,-0.46667 0,-0.30667 -0.17333,-0.45333 -0.52,-0.45333 h -0.98666 c -0.25334,0 -0.37334,0.08 -0.37334,0.26666 v 0.46667 c -0.62666,-0.49333 -1.25333,-0.74667 -1.92,-0.74667 -1.57333,0 -2.86666,1.18667 -2.86666,2.86667 0,1.70667 1.2,2.89333 2.81333,2.89333 0.84,0 1.45333,-0.28 1.98667,-0.89333 v 0.78667 c 0,1.34666 -0.41334,1.96 -1.77334,1.96 -0.34666,0 -0.70666,-0.0933 -1.09333,-0.0933 -0.30667,0 -0.56,0.24 -0.56,0.50667 0,0.42667 0.46667,0.6 1.42667,0.6 1.21333,0 2.09333,-0.36 2.57333,-0.98667 0.38667,-0.50666 0.4,-1.08 0.4,-1.81333 0,-0.0533 0,-0.0933 0,-0.14667 z m -2.82667,-4.70666 c 1.14667,0 1.93334,0.8 1.93334,1.89333 0,1.10667 -0.8,1.89333 -1.93334,1.89333 -1.14666,0 -1.93333,-0.8 -1.93333,-1.89333 0,-1.12 0.8,-1.89333 1.93333,-1.89333 z"
         style="font-style:normal;font-variant:normal;font-weight:normal;font-stretch:normal;font-size:13.33333397px;font-family:'Courier 10 Pitch';-inkscape-font-specification:'Courier 10 Pitch';fill:#000000;fill-opacity:1"
         id="path2006"
         inkscape:connector-curvature="0" />
    </g>
    <g
       aria-label="gate"
       transform="matrix(0.26458333,0,0,0.26458333,-13.628511,177.22179)"
       style="font-style:normal;font-variant:normal;font-weight:bold;font-stretch:normal;font-size:26.66666603px;line-height:1.25;font-family:'Courier 10 Pitch';-inkscape-font-specification:'Courier 10 Pitch Bold';text-align:center;letter-spacing:0px;word-spacing:0px;text-anchor:middle;fill:#ffffff;fill-opacity:1;stroke:none"
       id="flowRoot1686-62">
      <path
         d="m 83.825533,385.50637 v -4.74666 c 0.04,0 0.08,0 0.12,0 0.546667,0 0.773334,-0.0933 0.773334,-0.46667 0,-0.30667 -0.173334,-0.45333 -0.52,-0.45333 H 83.2122 c -0.253333,0 -0.373333,0.08 -0.373333,0.26666 v 0.46667 c -0.626667,-0.49333 -1.253334,-0.74667 -1.92,-0.74667 -1.573334,0 -2.866667,1.18667 -2.866667,2.86667 0,1.70667 1.2,2.89333 2.813333,2.89333 0.84,0 1.453334,-0.28 1.986667,-0.89333 v 0.78667 c 0,1.34666 -0.413333,1.96 -1.773333,1.96 -0.346667,0 -0.706667,-0.0933 -1.093334,-0.0933 -0.306666,0 -0.56,0.24 -0.56,0.50667 0,0.42667 0.466667,0.6 1.426667,0.6 1.213333,0 2.093333,-0.36 2.573333,-0.98667 0.386667,-0.50666 0.4,-1.08 0.4,-1.81333 0,-0.0533 0,-0.0933 0,-0.14667 z m -2.826666,-4.70666 c 1.146666,0 1.933333,0.8 1.933333,1.89333 0,1.10667 -0.8,1.89333 -1.933333,1.89333 -1.146667,0 -1.933334,-0.8 -1.933334,-1.89333 0,-1.12 0.8,-1.89333 1.933334,-1.89333 z"
         style="font-style:normal;font-variant:normal;font-weight:normal;font-stretch:normal;font-size:13.33333397px;font-family:'Courier 10 Pitch';-inkscape-font-specification:'Courier 10 Pitch';fill:#000000;fill-opacity:1"
         id="path2009"
         inkscape:connector-curvature="0" />
      <path
         d="m 90.686367,385.02637 0.06667,0.4 c 0.05333,0.28 0.213333,0.42667 0.453333,0.42667 h 1.026667 c 0.346667,0 0.52,-0.16 0.52,-0.46667 0,-0.38666 -0.226667,-0.45333 -0.773333,-0.45333 H 91.64637 v -2.94667 c 0,-1.57333 -0.773333,-2.30666 -2.44,-2.30666 -1.466666,0 -2.426667,0.46666 -2.426667,0.92 0,0.33333 0.2,0.54666 0.44,0.54666 0.506667,0 1.040001,-0.54666 1.960001,-0.54666 1,0 1.466666,0.46666 1.466666,1.46666 0,0.0133 0,0.0267 0,0.04 -0.533333,-0.13333 -1.04,-0.2 -1.546666,-0.2 -1.933334,0 -3.013334,0.81334 -3.013334,2.16 0,1.14667 0.853333,1.94667 2.16,1.94667 0.893334,0 1.733334,-0.34667 2.44,-0.98667 z m -0.04,-2.05333 v 0.70667 c 0,0.58666 -1.066666,1.33333 -2.24,1.33333 -0.76,0 -1.28,-0.44 -1.28,-1.01333 0,-0.73334 0.76,-1.25334 2.146667,-1.25334 0.48,0 0.933333,0.08 1.373333,0.22667 z"
         style="font-style:normal;font-variant:normal;font-weight:normal;font-stretch:normal;font-size:13.33333397px;font-family:'Courier 10 Pitch';-inkscape-font-specification:'Courier 10 Pitch';fill:#000000;fill-opacity:1"
         id="path2011"
         inkscape:connector-curvature="0" />
      <path
         d="m 99.000535,380.19971 h -2.56 v -1.32 c 0,-0.64 -0.05333,-0.90667 -0.520001,-0.90667 -0.346666,0 -0.506666,0.18667 -0.506666,0.54667 0,0.17333 0,0.29333 0,0.34666 v 1.33334 h -0.72 c -0.626667,0 -0.893334,0.04 -0.893334,0.46666 0,0.32 0.16,0.45334 0.52,0.45334 h 1.093334 v 2.17333 c 0,0.0667 0,0.13333 0,0.2 0,0.6 0.01333,1.12 0.24,1.50667 0.373333,0.65333 1.066667,0.97333 2.066667,0.97333 0.613333,0 1.293333,-0.17333 2.106666,-0.49333 0.479999,-0.18667 0.719999,-0.37334 0.719999,-0.68 0,-0.24 -0.21333,-0.46667 -0.45333,-0.46667 -0.520002,0 -1.386669,0.69333 -2.440002,0.69333 -1.146667,0 -1.226667,-0.69333 -1.226667,-1.73333 v -2.17333 h 2.64 c 0.36,0 0.546667,-0.14667 0.546667,-0.45334 0,-0.33333 -0.2,-0.46666 -0.613333,-0.46666 z"
         style="font-style:normal;font-variant:normal;font-weight:normal;font-stretch:normal;font-size:13.33333397px;font-family:'Courier 10 Pitch';-inkscape-font-specification:'Courier 10 Pitch';fill:#000000;fill-opacity:1"
         id="path2013"
         inkscape:connector-curvature="0" />
      <path
         d="m 103.0747,382.27971 c 0.25334,-1.08 1.09334,-1.72 2.24,-1.72 1.05334,0 1.88,0.68 2,1.72 z m -0.0267,0.85333 h 4.37333 c 0.8,0 1.08,0 1.08,-0.61333 0,-1.45334 -1.21333,-2.85334 -3.18667,-2.85334 -2.01333,0 -3.4,1.29334 -3.4,3.16 0,1.94667 1.25334,3.18667 3.26667,3.18667 0.88,0 1.82667,-0.21333 2.72,-0.65333 0.38667,-0.18667 0.57333,-0.38667 0.57333,-0.65334 0,-0.24 -0.2,-0.42666 -0.45333,-0.42666 -0.58667,0 -1.42667,0.81333 -2.74667,0.81333 -1.34666,0 -2.16,-0.70667 -2.22666,-1.96 z"
         style="font-style:normal;font-variant:normal;font-weight:normal;font-stretch:normal;font-size:13.33333397px;font-family:'Courier 10 Pitch';-inkscape-font-specification:'Courier 10 Pitch';fill:#000000;fill-opacity:1"
         id="path2015"
         inkscape:connector-curvature="0" />
    </g>
    <flowRoot
       xml:space="preserve"
       id="flowRoot5505"
       style="font-style:normal;font-variant:normal;font-weight:bold;font-stretch:normal;font-size:26.66666603px;line-height:1.25;font-family:'Courier 10 Pitch';-inkscape-font-specification:'Courier 10 Pitch Bold';text-align:center;letter-spacing:0px;word-spacing:0px;text-anchor:middle;fill:#000000;fill-opacity:1;stroke:none"
       transform="matrix(0.26458333,0,0,0.26458333,0,168.5)"><flowRegion
         id="flowRegion5507"><rect
           id="rect5509"
           width="76.428574"
           height="50.714287"
           x="30.714285"
           y="39.240707" /></flowRegion><flowPara
         id="flowPara5511">attackatt</flowPara></flowRoot>    <g
       aria-label="attack"
       style="font-style:normal;font-variant:normal;font-weight:bold;font-stretch:normal;font-size:7.05555534px;line-height:1.25;font-family:'Courier 10 Pitch';-inkscape-font-specification:'Courier 10 Pitch Bold';text-align:center;letter-spacing:0px;word-spacing:0px;text-anchor:middle;fill:#000000;fill-opacity:1;stroke:none;stroke-width:0.26458332"
       id="text5515">
      <path
         d="m 31.269998,188.23895 0.01764,0.10583 c 0.01411,0.0741 0.05645,0.11289 0.119945,0.11289 h 0.271639 c 0.09172,0 0.137583,-0.0423 0.137583,-0.12347 0,-0.10231 -0.05997,-0.11994 -0.204611,-0.11994 h -0.0882 v -0.77964 c 0,-0.41628 -0.204611,-0.61031 -0.645583,-0.61031 -0.388056,0 -0.642056,0.12347 -0.642056,0.24342 0,0.0882 0.05292,0.14464 0.116417,0.14464 0.134056,0 0.275167,-0.14464 0.518583,-0.14464 0.264584,0 0.388056,0.12347 0.388056,0.38805 0,0.004 0,0.007 0,0.0106 -0.141111,-0.0353 -0.275167,-0.0529 -0.409222,-0.0529 -0.511528,0 -0.797278,0.21519 -0.797278,0.5715 0,0.30339 0.225778,0.51506 0.5715,0.51506 0.236361,0 0.458611,-0.0917 0.645583,-0.26106 z m -0.01058,-0.54328 v 0.18697 c 0,0.15523 -0.282222,0.35278 -0.592667,0.35278 -0.201083,0 -0.338666,-0.11641 -0.338666,-0.26811 0,-0.19403 0.201083,-0.33161 0.567972,-0.33161 0.127,0 0.246944,0.0212 0.363361,0.06 z"
         style="font-style:normal;font-variant:normal;font-weight:normal;font-stretch:normal;font-size:3.52777767px;font-family:'Courier 10 Pitch';-inkscape-font-specification:'Courier 10 Pitch';stroke-width:0.26458332"
         id="path1917"
         inkscape:connector-curvature="0" />
      <path
         d="m 33.469788,186.96189 h -0.677333 v -0.34925 c 0,-0.16933 -0.01411,-0.23988 -0.137583,-0.23988 -0.09172,0 -0.134056,0.0494 -0.134056,0.14463 0,0.0459 0,0.0776 0,0.0917 v 0.35277 h -0.1905 c -0.165805,0 -0.236361,0.0106 -0.236361,0.12348 0,0.0847 0.04233,0.11994 0.137583,0.11994 h 0.289278 v 0.57503 c 0,0.0176 0,0.0353 0,0.0529 0,0.15875 0.0035,0.29633 0.0635,0.39863 0.09878,0.17287 0.282222,0.25753 0.546806,0.25753 0.162277,0 0.342194,-0.0459 0.557388,-0.13053 0.127,-0.0494 0.1905,-0.0988 0.1905,-0.17991 0,-0.0635 -0.05644,-0.12347 -0.119944,-0.12347 -0.137583,0 -0.366889,0.18344 -0.645583,0.18344 -0.303389,0 -0.324556,-0.18344 -0.324556,-0.45861 v -0.57503 h 0.6985 c 0.09525,0 0.144639,-0.0388 0.144639,-0.11994 0,-0.0882 -0.05292,-0.12348 -0.162278,-0.12348 z"
         style="font-style:normal;font-variant:normal;font-weight:normal;font-stretch:normal;font-size:3.52777767px;font-family:'Courier 10 Pitch';-inkscape-font-specification:'Courier 10 Pitch';stroke-width:0.26458332"
         id="path1919"
         inkscape:connector-curvature="0" />
      <path
         d="m 35.591967,186.96189 h -0.677333 v -0.34925 c 0,-0.16933 -0.01411,-0.23988 -0.137584,-0.23988 -0.09172,0 -0.134055,0.0494 -0.134055,0.14463 0,0.0459 0,0.0776 0,0.0917 v 0.35277 h -0.1905 c -0.165806,0 -0.236361,0.0106 -0.236361,0.12348 0,0.0847 0.04233,0.11994 0.137583,0.11994 h 0.289278 v 0.57503 c 0,0.0176 0,0.0353 0,0.0529 0,0.15875 0.0035,0.29633 0.0635,0.39863 0.09878,0.17287 0.282222,0.25753 0.546805,0.25753 0.162278,0 0.342195,-0.0459 0.557389,-0.13053 0.127,-0.0494 0.1905,-0.0988 0.1905,-0.17991 0,-0.0635 -0.05644,-0.12347 -0.119944,-0.12347 -0.137584,0 -0.366889,0.18344 -0.645584,0.18344 -0.303388,0 -0.324555,-0.18344 -0.324555,-0.45861 v -0.57503 h 0.6985 c 0.09525,0 0.144639,-0.0388 0.144639,-0.11994 0,-0.0882 -0.05292,-0.12348 -0.162278,-0.12348 z"
         style="font-style:normal;font-variant:normal;font-weight:normal;font-stretch:normal;font-size:3.52777767px;font-family:'Courier 10 Pitch';-inkscape-font-specification:'Courier 10 Pitch';stroke-width:0.26458332"
         id="path1921"
         inkscape:connector-curvature="0" />
      <path
         d="m 37.636534,188.23895 0.01764,0.10583 c 0.01411,0.0741 0.05644,0.11289 0.119945,0.11289 h 0.271639 c 0.09172,0 0.137583,-0.0423 0.137583,-0.12347 0,-0.10231 -0.05997,-0.11994 -0.204611,-0.11994 h -0.08819 v -0.77964 c 0,-0.41628 -0.204611,-0.61031 -0.645583,-0.61031 -0.388055,0 -0.642055,0.12347 -0.642055,0.24342 0,0.0882 0.05292,0.14464 0.116416,0.14464 0.134056,0 0.275167,-0.14464 0.518584,-0.14464 0.264583,0 0.388055,0.12347 0.388055,0.38805 0,0.004 0,0.007 0,0.0106 -0.141111,-0.0353 -0.275167,-0.0529 -0.409222,-0.0529 -0.511528,0 -0.797278,0.21519 -0.797278,0.5715 0,0.30339 0.225778,0.51506 0.5715,0.51506 0.236361,0 0.458611,-0.0917 0.645583,-0.26106 z m -0.01058,-0.54328 v 0.18697 c 0,0.15523 -0.282222,0.35278 -0.592666,0.35278 -0.201084,0 -0.338667,-0.11641 -0.338667,-0.26811 0,-0.19403 0.201083,-0.33161 0.567972,-0.33161 0.127,0 0.246944,0.0212 0.363361,0.06 z"
         style="font-style:normal;font-variant:normal;font-weight:normal;font-stretch:normal;font-size:3.52777767px;font-family:'Courier 10 Pitch';-inkscape-font-specification:'Courier 10 Pitch';stroke-width:0.26458332"
         id="path1923"
         inkscape:connector-curvature="0" />
      <path
         d="m 40.143241,187.38523 v -0.32103 c 0,-0.14817 -0.01764,-0.21167 -0.123472,-0.21167 -0.08819,0 -0.134055,0.0317 -0.134055,0.10936 0,0 0,0.004 0,0.007 -0.1905,-0.0952 -0.363362,-0.14464 -0.543278,-0.14464 -0.493889,0 -0.867834,0.36336 -0.867834,0.83961 0,0.47625 0.370417,0.83609 0.871362,0.83609 0.416277,0 0.804333,-0.25753 0.804333,-0.41981 0,-0.0706 -0.04939,-0.11994 -0.119945,-0.11994 -0.09172,0 -0.15875,0.0847 -0.264583,0.15522 -0.123472,0.0811 -0.264583,0.127 -0.402167,0.127 -0.359833,0 -0.589138,-0.23989 -0.589138,-0.58209 0,-0.33161 0.246944,-0.56797 0.60325,-0.56797 0.204611,0 0.366888,0.0952 0.472722,0.28222 0.05292,0.0952 0.08819,0.13759 0.162278,0.13759 0.08467,0 0.130527,-0.0423 0.130527,-0.127 z"
         style="font-style:normal;font-variant:normal;font-weight:normal;font-stretch:normal;font-size:3.52777767px;font-family:'Courier 10 Pitch';-inkscape-font-specification:'Courier 10 Pitch';stroke-width:0.26458332"
         id="path1925"
         inkscape:connector-curvature="0" />
      <path
         d="m 41.175337,187.79798 0.155222,-0.14111 0.511528,0.55739 c -0.08819,0.0282 -0.134056,0.0705 -0.134056,0.13405 0,0.0776 0.04586,0.10936 0.144639,0.10936 h 0.465667 c 0.08819,0 0.137583,-0.0423 0.137583,-0.12347 0,-0.0882 -0.0388,-0.12347 -0.137583,-0.12347 h -0.151694 l -0.649112,-0.70556 0.250473,-0.21872 c 0.123472,-0.10583 0.239889,-0.16581 0.324555,-0.17639 0.134056,-0.0176 0.218722,-0.007 0.218722,-0.127 0,-0.0776 -0.04586,-0.11642 -0.134055,-0.11642 h -0.465667 c -0.09878,0 -0.148166,0.0353 -0.148166,0.10231 0,0.0529 0.03528,0.0917 0.109361,0.12347 l -0.497417,0.41628 v -1.23472 c 0,-0.0423 -0.03175,-0.0706 -0.09878,-0.0706 h -0.328083 c -0.09172,0 -0.137583,0.0423 -0.137583,0.12347 0,0.11289 0.07408,0.12348 0.232833,0.12348 h 0.07056 v 1.76389 h -0.08114 c -0.151695,0 -0.218723,0.0141 -0.218723,0.11994 0,0.0811 0.04939,0.12347 0.141111,0.12347 h 0.3175 c 0.05644,0 0.102306,-0.0529 0.102306,-0.15169 z"
         style="font-style:normal;font-variant:normal;font-weight:normal;font-stretch:normal;font-size:3.52777767px;font-family:'Courier 10 Pitch';-inkscape-font-specification:'Courier 10 Pitch';stroke-width:0.26458332"
         id="path1927"
         inkscape:connector-curvature="0" />
    </g>
    <path
       style="fill:none;stroke:#000000;stroke-width:0.23475629px;stroke-linecap:butt;stroke-linejoin:miter;stroke-opacity:1"
       d="M 16,194.95226 H 32.217"
       id="path5593"
       inkscape:connector-curvature="0" />
    <path
       style="fill:none;stroke:#000000;stroke-width:0.23475629px;stroke-linecap:butt;stroke-linejoin:miter;stroke-opacity:1"
       d="M 16,211.95225 H 32.217"
       id="path5593-1"
       inkscape:connector-curvature="0" />
    <g
       aria-label="cv"
       style="font-style:normal;font-variant:normal;font-weight:bold;font-stretch:normal;font-size:7.05555534px;line-height:1.25;font-family:'Courier 10 Pitch';-inkscape-font-specification:'Courier 10 Pitch Bold';text-align:center;letter-spacing:0px;word-spacing:0px;text-anchor:middle;fill:#000000;fill-opacity:1;stroke:none;stroke-width:0.26458332"
       id="text5515-9-2">
      <path
         d="m 12.681385,205.36759 v -0.32103 c 0,-0.14817 -0.01764,-0.21167 -0.123472,-0.21167 -0.08819,0 -0.134056,0.0317 -0.134056,0.10937 0,0 0,0.004 0,0.007 -0.1905,-0.0952 -0.363361,-0.14464 -0.543278,-0.14464 -0.493889,0 -0.867833,0.36336 -0.867833,0.83961 0,0.47625 0.370417,0.83609 0.871361,0.83609 0.416278,0 0.804333,-0.25753 0.804333,-0.41981 0,-0.0705 -0.04939,-0.11994 -0.119944,-0.11994 -0.09172,0 -0.15875,0.0847 -0.264583,0.15522 -0.123473,0.0811 -0.264584,0.127 -0.402167,0.127 -0.359833,0 -0.589139,-0.23989 -0.589139,-0.58208 0,-0.33162 0.246945,-0.56798 0.60325,-0.56798 0.204611,0 0.366889,0.0952 0.472722,0.28223 0.05292,0.0952 0.0882,0.13758 0.162278,0.13758 0.08467,0 0.130528,-0.0423 0.130528,-0.127 z"
         style="font-style:normal;font-variant:normal;font-weight:normal;font-stretch:normal;font-size:3.52777767px;font-family:'Courier 10 Pitch';-inkscape-font-specification:'Courier 10 Pitch';stroke-width:0.26458332"
         id="path1939"
         inkscape:connector-curvature="0" />
      <path
         d="m 13.23723,205.09242 0.564445,1.25589 c 0.04586,0.10583 0.08467,0.1517 0.201083,0.1517 0.123472,0 0.15875,-0.0423 0.208139,-0.1517 l 0.567972,-1.25589 c 0.01058,0 0.02117,0 0.03175,0 0.137584,0 0.197556,-0.0247 0.197556,-0.12347 0,-0.0811 -0.04586,-0.11994 -0.137584,-0.11994 h -0.532694 c -0.112889,0 -0.162278,0.0176 -0.162278,0.11994 0,0.10231 0.0635,0.127 0.225778,0.127 0.03175,0 0.0635,-0.004 0.102306,-0.004 l -0.497417,1.11478 -0.448028,-1.11478 c 0.02117,0 0.04233,0 0.0635,0 0.141111,0 0.201083,-0.0247 0.201083,-0.12347 0,-0.10231 -0.04939,-0.11994 -0.162277,-0.11994 h -0.483306 c -0.09172,0 -0.137583,0.0388 -0.137583,0.11994 0,0.0988 0.05644,0.12347 0.197555,0.12347 z"
         style="font-style:normal;font-variant:normal;font-weight:normal;font-stretch:normal;font-size:3.52777767px;font-family:'Courier 10 Pitch';-inkscape-font-specification:'Courier 10 Pitch';stroke-width:0.26458332"
         id="path1941"
         inkscape:connector-curvature="0" />
    </g>
    <path
       style="fill:none;stroke:#000000;stroke-width:0.23475629px;stroke-linecap:butt;stroke-linejoin:miter;stroke-opacity:1"
       d="M 16,228.95225 H 32.217"
       id="path5593-19"
       inkscape:connector-curvature="0" />
    <g
       aria-label="cv"
       style="font-style:normal;font-variant:normal;font-weight:bold;font-stretch:normal;font-size:7.05555534px;line-height:1.25;font-family:'Courier 10 Pitch';-inkscape-font-specification:'Courier 10 Pitch Bold';text-align:center;letter-spacing:0px;word-spacing:0px;text-anchor:middle;fill:#000000;fill-opacity:1;stroke:none;stroke-width:0.26458332"
       id="text5515-9-4">
      <path
         d="m 12.681385,222.36759 v -0.32103 c 0,-0.14817 -0.01764,-0.21167 -0.123472,-0.21167 -0.08819,0 -0.134056,0.0317 -0.134056,0.10937 0,0 0,0.004 0,0.007 -0.1905,-0.0952 -0.363361,-0.14464 -0.543278,-0.14464 -0.493889,0 -0.867833,0.36336 -0.867833,0.83961 0,0.47625 0.370417,0.83609 0.871361,0.83609 0.416278,0 0.804333,-0.25753 0.804333,-0.41981 0,-0.0705 -0.04939,-0.11994 -0.119944,-0.11994 -0.09172,0 -0.15875,0.0847 -0.264583,0.15522 -0.123473,0.0811 -0.264584,0.127 -0.402167,0.127 -0.359833,0 -0.589139,-0.23989 -0.589139,-0.58208 0,-0.33162 0.246945,-0.56798 0.60325,-0.56798 0.204611,0 0.366889,0.0952 0.472722,0.28223 0.05292,0.0952 0.0882,0.13758 0.162278,0.13758 0.08467,0 0.130528,-0.0423 0.130528,-0.127 z"
         style="font-style:normal;font-variant:normal;font-weight:normal;font-stretch:normal;font-size:3.52777767px;font-family:'Courier 10 Pitch';-inkscape-font-specification:'Courier 10 Pitch';stroke-width:0.26458332"
         id="path1944"
         inkscape:connector-curvature="0" />
      <path
         d="m 13.23723,222.09242 0.564445,1.25589 c 0.04586,0.10583 0.08467,0.1517 0.201083,0.1517 0.123472,0 0.15875,-0.0423 0.208139,-0.1517 l 0.567972,-1.25589 c 0.01058,0 0.02117,0 0.03175,0 0.137584,0 0.197556,-0.0247 0.197556,-0.12347 0,-0.0811 -0.04586,-0.11994 -0.137584,-0.11994 h -0.532694 c -0.112889,0 -0.162278,0.0176 -0.162278,0.11994 0,0.10231 0.0635,0.127 0.225778,0.127 0.03175,0 0.0635,-0.004 0.102306,-0.004 l -0.497417,1.11478 -0.448028,-1.11478 c 0.02117,0 0.04233,0 0.0635,0 0.141111,0 0.201083,-0.0247 0.201083,-0.12347 0,-0.10231 -0.04939,-0.11994 -0.162277,-0.11994 h -0.483306 c -0.09172,0 -0.137583,0.0388 -0.137583,0.11994 0,0.0988 0.05644,0.12347 0.197555,0.12347 z"
         style="font-style:normal;font-variant:normal;font-weight:normal;font-stretch:normal;font-size:3.52777767px;font-family:'Courier 10 Pitch';-inkscape-font-specification:'Courier 10 Pitch';stroke-width:0.26458332"
         id="path1946"
         inkscape:connector-curvature="0" />
    </g>
    <path
       style="fill:none;stroke:#000000;stroke-width:0.23475629px;stroke-linecap:butt;stroke-linejoin:miter;stroke-opacity:1"
       d="M 16,245.95227 H 32.217"
       id="path5593-4"
       inkscape:connector-curvature="0" />
    <g
       aria-label="cv"
       style="font-style:normal;font-variant:normal;font-weight:bold;font-stretch:normal;font-size:7.05555534px;line-height:1.25;font-family:'Courier 10 Pitch';-inkscape-font-specification:'Courier 10 Pitch Bold';text-align:center;letter-spacing:0px;word-spacing:0px;text-anchor:middle;fill:#000000;fill-opacity:1;stroke:none;stroke-width:0.26458332"
       id="text5515-9-5">
      <path
         d="m 12.681385,239.36759 v -0.32103 c 0,-0.14817 -0.01764,-0.21167 -0.123472,-0.21167 -0.08819,0 -0.134056,0.0317 -0.134056,0.10937 0,0 0,0.004 0,0.007 -0.1905,-0.0952 -0.363361,-0.14464 -0.543278,-0.14464 -0.493889,0 -0.867833,0.36336 -0.867833,0.83961 0,0.47625 0.370417,0.83609 0.871361,0.83609 0.416278,0 0.804333,-0.25753 0.804333,-0.41981 0,-0.0705 -0.04939,-0.11994 -0.119944,-0.11994 -0.09172,0 -0.15875,0.0847 -0.264583,0.15522 -0.123473,0.0811 -0.264584,0.127 -0.402167,0.127 -0.359833,0 -0.589139,-0.23989 -0.589139,-0.58208 0,-0.33162 0.246945,-0.56798 0.60325,-0.56798 0.204611,0 0.366889,0.0952 0.472722,0.28223 0.05292,0.0952 0.0882,0.13758 0.162278,0.13758 0.08467,0 0.130528,-0.0423 0.130528,-0.127 z"
         style="font-style:normal;font-variant:normal;font-weight:normal;font-stretch:normal;font-size:3.52777767px;font-family:'Courier 10 Pitch';-inkscape-font-specification:'Courier 10 Pitch';stroke-width:0.26458332"
         id="path1949"
         inkscape:connector-curvature="0" />
      <path
         d="m 13.23723,239.09242 0.564445,1.25589 c 0.04586,0.10583 0.08467,0.1517 0.201083,0.1517 0.123472,0 0.15875,-0.0423 0.208139,-0.1517 l 0.567972,-1.25589 c 0.01058,0 0.02117,0 0.03175,0 0.137584,0 0.197556,-0.0247 0.197556,-0.12347 0,-0.0811 -0.04586,-0.11994 -0.137584,-0.11994 h -0.532694 c -0.112889,0 -0.162278,0.0176 -0.162278,0.11994 0,0.10231 0.0635,0.127 0.225778,0.127 0.03175,0 0.0635,-0.004 0.102306,-0.004 l -0.497417,1.11478 -0.448028,-1.11478 c 0.02117,0 0.04233,0 0.0635,0 0.141111,0 0.201083,-0.0247 0.201083,-0.12347 0,-0.10231 -0.04939,-0.11994 -0.162277,-0.11994 h -0.483306 c -0.09172,0 -0.137583,0.0388 -0.137583,0.11994 0,0.0988 0.05644,0.12347 0.197555,0.12347 z"
         style="font-style:normal;font-variant:normal;font-weight:normal;font-stretch:normal;font-size:3.52777767px;font-family:'Courier 10 Pitch';-inkscape-font-specification:'Courier 10 Pitch';stroke-width:0.26458332"
         id="path1951"
         inkscape:connector-curvature="0" />
    </g>
    <path
       style="fill:none;stroke:#000000;stroke-width:0.23475629px;stroke-linecap:butt;stroke-linejoin:miter;stroke-opacity:1"
       d="M 16,262.95226 H 32.217"
       id="path5593-10"
       inkscape:connector-curvature="0" />
    <g
       aria-label="cv"
       style="font-style:normal;font-variant:normal;font-weight:bold;font-stretch:normal;font-size:7.05555534px;line-height:1.25;font-family:'Courier 10 Pitch';-inkscape-font-specification:'Courier 10 Pitch Bold';text-align:center;letter-spacing:0px;word-spacing:0px;text-anchor:middle;fill:#000000;fill-opacity:1;stroke:none;stroke-width:0.26458332"
       id="text5515-9-6">
      <path
         d="m 12.681385,256.36759 v -0.32103 c 0,-0.14817 -0.01764,-0.21167 -0.123472,-0.21167 -0.08819,0 -0.134056,0.0317 -0.134056,0.10937 0,0 0,0.004 0,0.007 -0.1905,-0.0952 -0.363361,-0.14464 -0.543278,-0.14464 -0.493889,0 -0.867833,0.36336 -0.867833,0.83961 0,0.47625 0.370417,0.83609 0.871361,0.83609 0.416278,0 0.804333,-0.25753 0.804333,-0.41981 0,-0.0706 -0.04939,-0.11994 -0.119944,-0.11994 -0.09172,0 -0.15875,0.0847 -0.264583,0.15522 -0.123473,0.0811 -0.264584,0.127 -0.402167,0.127 -0.359833,0 -0.589139,-0.23989 -0.589139,-0.58208 0,-0.33162 0.246945,-0.56798 0.60325,-0.56798 0.204611,0 0.366889,0.0953 0.472722,0.28223 0.05292,0.0953 0.0882,0.13758 0.162278,0.13758 0.08467,0 0.130528,-0.0423 0.130528,-0.127 z"
         style="font-style:normal;font-variant:normal;font-weight:normal;font-stretch:normal;font-size:3.52777767px;font-family:'Courier 10 Pitch';-inkscape-font-specification:'Courier 10 Pitch';stroke-width:0.26458332"
         id="path1984"
         inkscape:connector-curvature="0" />
      <path
         d="m 13.23723,256.09242 0.564445,1.25589 c 0.04586,0.10583 0.08467,0.1517 0.201083,0.1517 0.123472,0 0.15875,-0.0423 0.208139,-0.1517 l 0.567972,-1.25589 c 0.01058,0 0.02117,0 0.03175,0 0.137584,0 0.197556,-0.0247 0.197556,-0.12347 0,-0.0811 -0.04586,-0.11994 -0.137584,-0.11994 h -0.532694 c -0.112889,0 -0.162278,0.0176 -0.162278,0.11994 0,0.10231 0.0635,0.127 0.225778,0.127 0.03175,0 0.0635,-0.004 0.102306,-0.004 l -0.497417,1.11478 -0.448028,-1.11478 c 0.02117,0 0.04233,0 0.0635,0 0.141111,0 0.201083,-0.0247 0.201083,-0.12347 0,-0.10231 -0.04939,-0.11994 -0.162277,-0.11994 h -0.483306 c -0.09172,0 -0.137583,0.0388 -0.137583,0.11994 0,0.0988 0.05644,0.12347 0.197555,0.12347 z"
         style="font-style:normal;font-variant:normal;font-weight:normal;font-stretch:normal;font-size:3.52777767px;font-family:'Courier 10 Pitch';-inkscape-font-specification:'Courier 10 Pitch';stroke-width:0.26458332"
         id="path1986"
         inkscape:connector-curvature="0" />
    </g>
    <g
       aria-label="release"
       style="font-style:normal;font-variant:normal;font-weight:bold;font-stretch:normal;font-size:7.05555534px;line-height:1.25;font-family:'Courier 10 Pitch';-inkscape-font-specification:'Courier 10 Pitch Bold';text-align:center;letter-spacing:0px;word-spacing:0px;text-anchor:middle;fill:#000000;fill-opacity:1;stroke:none;stroke-width:0.26458332"
       id="text5515-75">
      <path
         d="m 29.647992,256.21426 v -0.71262 c 0.229306,-0.26105 0.423334,-0.39863 0.613834,-0.39863 0.134055,0 0.208139,0.10583 0.299861,0.10583 0.07408,0 0.151694,-0.0776 0.151694,-0.16228 0,-0.127 -0.127,-0.22225 -0.342194,-0.22225 -0.275167,0 -0.508,0.13406 -0.723195,0.4057 v -0.29281 c 0,-0.0494 -0.03175,-0.0706 -0.09525,-0.0706 h -0.391583 c -0.09172,0 -0.137583,0.0388 -0.137583,0.11995 0,0.0882 0.04939,0.12347 0.162277,0.12347 0.01764,0 0.04939,0 0.08819,0 h 0.116417 v 1.1042 h -0.303389 c -0.09525,0 -0.144639,0.0388 -0.144639,0.11994 0,0.0811 0.04939,0.12347 0.141111,0.12347 h 1.125361 c 0.102306,0 0.141111,-0.0247 0.141111,-0.12347 0,-0.0847 -0.04233,-0.11994 -0.130528,-0.11994 z"
         style="font-style:normal;font-variant:normal;font-weight:normal;font-stretch:normal;font-size:3.52777767px;font-family:'Courier 10 Pitch';-inkscape-font-specification:'Courier 10 Pitch';stroke-width:0.26458332"
         id="path1969"
         inkscape:connector-curvature="0" />
      <path
         d="m 31.364477,255.51223 c 0.06703,-0.28575 0.289277,-0.45509 0.592666,-0.45509 0.278695,0 0.497417,0.17992 0.529167,0.45509 z m -0.0071,0.22578 h 1.157111 c 0.211667,0 0.28575,0 0.28575,-0.16228 0,-0.38453 -0.321028,-0.75495 -0.843139,-0.75495 -0.532694,0 -0.899583,0.3422 -0.899583,0.83609 0,0.51505 0.331611,0.84314 0.864306,0.84314 0.232833,0 0.483305,-0.0564 0.719666,-0.17287 0.102306,-0.0494 0.151695,-0.1023 0.151695,-0.17286 0,-0.0635 -0.05292,-0.11289 -0.119945,-0.11289 -0.155222,0 -0.377472,0.2152 -0.726722,0.2152 -0.356306,0 -0.5715,-0.18697 -0.589139,-0.51858 z"
         style="font-style:normal;font-variant:normal;font-weight:normal;font-stretch:normal;font-size:3.52777767px;font-family:'Courier 10 Pitch';-inkscape-font-specification:'Courier 10 Pitch';stroke-width:0.26458332"
         id="path1971"
         inkscape:connector-curvature="0" />
      <path
         d="m 33.945267,254.45037 v 1.76389 h -0.47625 c -0.09525,0 -0.144639,0.0388 -0.144639,0.11994 0,0.0811 0.04586,0.12347 0.137583,0.12347 h 1.27 c 0.102306,0 0.141111,-0.0247 0.141111,-0.12347 0,-0.0847 -0.04233,-0.11994 -0.130528,-0.11994 h -0.536222 v -1.94028 c 0,-0.0423 -0.03175,-0.0706 -0.09878,-0.0706 H 33.53957 c -0.09172,0 -0.137583,0.0423 -0.137583,0.12347 0,0.0882 0.04939,0.11995 0.162278,0.11995 0.01764,0 0.04939,0.004 0.08819,0.004 z"
         style="font-style:normal;font-variant:normal;font-weight:normal;font-stretch:normal;font-size:3.52777767px;font-family:'Courier 10 Pitch';-inkscape-font-specification:'Courier 10 Pitch';stroke-width:0.26458332"
         id="path1973"
         inkscape:connector-curvature="0" />
      <path
         d="m 35.608834,255.51223 c 0.06703,-0.28575 0.289278,-0.45509 0.592667,-0.45509 0.278694,0 0.497416,0.17992 0.529166,0.45509 z m -0.0071,0.22578 h 1.157112 c 0.211666,0 0.28575,0 0.28575,-0.16228 0,-0.38453 -0.321028,-0.75495 -0.843139,-0.75495 -0.532695,0 -0.899584,0.3422 -0.899584,0.83609 0,0.51505 0.331611,0.84314 0.864306,0.84314 0.232833,0 0.483305,-0.0564 0.719667,-0.17287 0.102305,-0.0494 0.151694,-0.1023 0.151694,-0.17286 0,-0.0635 -0.05292,-0.11289 -0.119944,-0.11289 -0.155223,0 -0.377473,0.2152 -0.726723,0.2152 -0.356305,0 -0.5715,-0.18697 -0.589139,-0.51858 z"
         style="font-style:normal;font-variant:normal;font-weight:normal;font-stretch:normal;font-size:3.52777767px;font-family:'Courier 10 Pitch';-inkscape-font-specification:'Courier 10 Pitch';stroke-width:0.26458332"
         id="path1975"
         inkscape:connector-curvature="0" />
      <path
         d="m 38.697624,256.23895 0.01764,0.10583 c 0.01411,0.0741 0.05644,0.11289 0.119944,0.11289 h 0.271639 c 0.09172,0 0.137584,-0.0423 0.137584,-0.12347 0,-0.10231 -0.05997,-0.11994 -0.204611,-0.11994 h -0.08819 v -0.77964 c 0,-0.41628 -0.204611,-0.61031 -0.645583,-0.61031 -0.388056,0 -0.642056,0.12347 -0.642056,0.24342 0,0.0882 0.05292,0.14464 0.116417,0.14464 0.134055,0 0.275167,-0.14464 0.518583,-0.14464 0.264584,0 0.388056,0.12347 0.388056,0.38805 0,0.004 0,0.007 0,0.0106 -0.141111,-0.0353 -0.275167,-0.0529 -0.409222,-0.0529 -0.511528,0 -0.797278,0.21519 -0.797278,0.5715 0,0.30339 0.225778,0.51506 0.5715,0.51506 0.236361,0 0.458611,-0.0917 0.645583,-0.26106 z m -0.01058,-0.54328 v 0.18697 c 0,0.15523 -0.282222,0.35278 -0.592667,0.35278 -0.201083,0 -0.338667,-0.11641 -0.338667,-0.26811 0,-0.19403 0.201084,-0.33161 0.567973,-0.33161 0.127,0 0.246944,0.0212 0.363361,0.06 z"
         style="font-style:normal;font-variant:normal;font-weight:normal;font-stretch:normal;font-size:3.52777767px;font-family:'Courier 10 Pitch';-inkscape-font-specification:'Courier 10 Pitch';stroke-width:0.26458332"
         id="path1977"
         inkscape:connector-curvature="0" />
      <path
         d="m 39.673275,256.3342 c 0,0.10936 0.04586,0.16581 0.127,0.16581 0.03881,0 0.09525,-0.0282 0.176389,-0.0811 0.194028,0.0494 0.366889,0.0776 0.522111,0.0776 0.430389,0 0.673806,-0.2152 0.673806,-0.51153 0,-0.33867 -0.236361,-0.47272 -0.691444,-0.48331 -0.338667,-0.007 -0.536223,-0.0247 -0.536223,-0.20813 0,-0.13759 0.130528,-0.254 0.359834,-0.254 0.179916,0 0.306916,0.0423 0.437444,0.15875 0.102306,0.0917 0.137583,0.17991 0.215194,0.17991 0.08467,0 0.116417,-0.06 0.116417,-0.17286 v -0.20108 c 0,-0.11642 -0.0388,-0.17286 -0.116417,-0.17286 -0.09172,0 -0.126999,0.067 -0.176388,0.067 -0.04939,0 -0.186973,-0.0776 -0.437445,-0.0776 -0.426861,0 -0.663222,0.19756 -0.663222,0.48331 0,0.30692 0.250472,0.47625 0.719667,0.47625 0.04939,0 0.08114,0 0.09878,0 0.261056,0 0.388056,0.0494 0.388056,0.22578 0,0.15522 -0.155222,0.26811 -0.405694,0.26811 -0.232834,0 -0.430389,-0.0847 -0.522112,-0.20461 -0.06703,-0.0882 -0.05644,-0.18345 -0.162277,-0.18345 -0.09172,0 -0.123473,0.0494 -0.123473,0.14111 z"
         style="font-style:normal;font-variant:normal;font-weight:normal;font-stretch:normal;font-size:3.52777767px;font-family:'Courier 10 Pitch';-inkscape-font-specification:'Courier 10 Pitch';stroke-width:0.26458332"
         id="path1979"
         inkscape:connector-curvature="0" />
      <path
         d="m 41.97537,255.51223 c 0.06703,-0.28575 0.289278,-0.45509 0.592667,-0.45509 0.278694,0 0.497416,0.17992 0.529166,0.45509 z m -0.0071,0.22578 h 1.157111 c 0.211666,0 0.28575,0 0.28575,-0.16228 0,-0.38453 -0.321028,-0.75495 -0.843139,-0.75495 -0.532695,0 -0.899583,0.3422 -0.899583,0.83609 0,0.51505 0.331611,0.84314 0.864305,0.84314 0.232833,0 0.483306,-0.0564 0.719667,-0.17287 0.102305,-0.0494 0.151694,-0.1023 0.151694,-0.17286 0,-0.0635 -0.05292,-0.11289 -0.119944,-0.11289 -0.155223,0 -0.377473,0.2152 -0.726723,0.2152 -0.356305,0 -0.5715,-0.18697 -0.589138,-0.51858 z"
         style="font-style:normal;font-variant:normal;font-weight:normal;font-stretch:normal;font-size:3.52777767px;font-family:'Courier 10 Pitch';-inkscape-font-specification:'Courier 10 Pitch';stroke-width:0.26458332"
         id="path1981"
         inkscape:connector-curvature="0" />
    </g>
    <g
       aria-label="sustain"
       style="font-style:normal;font-variant:normal;font-weight:bold;font-stretch:normal;font-size:7.05555534px;line-height:1.25;font-family:'Courier 10 Pitch';-inkscape-font-specification:'Courier 10 Pitch Bold';text-align:center;letter-spacing:0px;word-spacing:0px;text-anchor:middle;fill:#000000;fill-opacity:1;stroke:none;stroke-width:0.26458332"
       id="text5515-0">
      <path
         d="m 29.062381,239.3342 c 0,0.10936 0.04586,0.16581 0.127,0.16581 0.03881,0 0.09525,-0.0282 0.176389,-0.0811 0.194028,0.0494 0.366889,0.0776 0.522111,0.0776 0.430389,0 0.673806,-0.2152 0.673806,-0.51153 0,-0.33867 -0.236361,-0.47272 -0.691445,-0.48331 -0.338666,-0.007 -0.536222,-0.0247 -0.536222,-0.20813 0,-0.13759 0.130528,-0.254 0.359833,-0.254 0.179917,0 0.306917,0.0423 0.437445,0.15875 0.102305,0.0917 0.137583,0.17991 0.215194,0.17991 0.08467,0 0.116417,-0.06 0.116417,-0.17286 v -0.20108 c 0,-0.11642 -0.03881,-0.17286 -0.116417,-0.17286 -0.09172,0 -0.127,0.067 -0.176389,0.067 -0.04939,0 -0.186972,-0.0776 -0.437444,-0.0776 -0.426861,0 -0.663222,0.19756 -0.663222,0.48331 0,0.30692 0.250472,0.47625 0.719666,0.47625 0.04939,0 0.08114,0 0.09878,0 0.261056,0 0.388056,0.0494 0.388056,0.22578 0,0.15522 -0.155222,0.26811 -0.405695,0.26811 -0.232833,0 -0.430389,-0.0847 -0.522111,-0.20461 -0.06703,-0.0882 -0.05644,-0.18345 -0.162278,-0.18345 -0.09172,0 -0.123472,0.0494 -0.123472,0.14111 z"
         style="font-style:normal;font-variant:normal;font-weight:normal;font-stretch:normal;font-size:3.52777767px;font-family:'Courier 10 Pitch';-inkscape-font-specification:'Courier 10 Pitch';stroke-width:0.26458332"
         id="path1954"
         inkscape:connector-curvature="0" />
      <path
         d="m 31.50206,238.82267 v -0.8255 c 0,-0.007 0,-0.0106 0,-0.0176 0,-0.0776 -0.0035,-0.11289 -0.09878,-0.11289 h -0.261055 c -0.09172,0 -0.137584,0.0388 -0.137584,0.11995 0,0.0882 0.04939,0.12347 0.15875,0.12347 0.0247,0 0.05292,0 0.07761,0 v 0.77611 c 0,0.40217 0.1905,0.60678 0.567973,0.60678 0.208139,0 0.356305,-0.0811 0.536222,-0.22225 v 0.11642 c 0,0.0423 0.03175,0.0705 0.09878,0.0705 h 0.261055 c 0.09172,0 0.137584,-0.0423 0.137584,-0.12347 0,-0.0882 -0.04939,-0.11994 -0.15875,-0.11994 -0.0247,0 -0.05292,0 -0.07761,0 v -1.18181 c 0,-0.10231 0,-0.16581 -0.119944,-0.16581 h -0.366889 c -0.09525,0 -0.137583,0.0353 -0.137583,0.11995 0,0.0847 0.03528,0.12347 0.127,0.12347 H 32.3452 v 0.71261 c 0,0.254 -0.22225,0.41628 -0.455083,0.41628 -0.268112,0 -0.388056,-0.13406 -0.388056,-0.41628 z"
         style="font-style:normal;font-variant:normal;font-weight:normal;font-stretch:normal;font-size:3.52777767px;font-family:'Courier 10 Pitch';-inkscape-font-specification:'Courier 10 Pitch';stroke-width:0.26458332"
         id="path1956"
         inkscape:connector-curvature="0" />
      <path
         d="m 33.306739,239.3342 c 0,0.10936 0.04586,0.16581 0.127,0.16581 0.0388,0 0.09525,-0.0282 0.176389,-0.0811 0.194027,0.0494 0.366889,0.0776 0.522111,0.0776 0.430389,0 0.673805,-0.2152 0.673805,-0.51153 0,-0.33867 -0.236361,-0.47272 -0.691444,-0.48331 -0.338667,-0.007 -0.536222,-0.0247 -0.536222,-0.20813 0,-0.13759 0.130527,-0.254 0.359833,-0.254 0.179917,0 0.306917,0.0423 0.437444,0.15875 0.102306,0.0917 0.137584,0.17991 0.215195,0.17991 0.08467,0 0.116417,-0.06 0.116417,-0.17286 v -0.20108 c 0,-0.11642 -0.03881,-0.17286 -0.116417,-0.17286 -0.09172,0 -0.127,0.067 -0.176389,0.067 -0.04939,0 -0.186972,-0.0776 -0.437444,-0.0776 -0.426862,0 -0.663223,0.19756 -0.663223,0.48331 0,0.30692 0.250473,0.47625 0.719667,0.47625 0.04939,0 0.08114,0 0.09878,0 0.261055,0 0.388055,0.0494 0.388055,0.22578 0,0.15522 -0.155222,0.26811 -0.405694,0.26811 -0.232833,0 -0.430389,-0.0847 -0.522111,-0.20461 -0.06703,-0.0882 -0.05645,-0.18345 -0.162278,-0.18345 -0.09172,0 -0.123472,0.0494 -0.123472,0.14111 z"
         style="font-style:normal;font-variant:normal;font-weight:normal;font-stretch:normal;font-size:3.52777767px;font-family:'Courier 10 Pitch';-inkscape-font-specification:'Courier 10 Pitch';stroke-width:0.26458332"
         id="path1958"
         inkscape:connector-curvature="0" />
      <path
         d="m 36.653056,237.96189 h -0.677333 v -0.34925 c 0,-0.16933 -0.01411,-0.23988 -0.137583,-0.23988 -0.09172,0 -0.134056,0.0494 -0.134056,0.14463 0,0.0459 0,0.0776 0,0.0917 v 0.35277 h -0.1905 c -0.165806,0 -0.236361,0.0106 -0.236361,0.12348 0,0.0847 0.04233,0.11994 0.137583,0.11994 h 0.289278 v 0.57503 c 0,0.0176 0,0.0353 0,0.0529 0,0.15875 0.0035,0.29633 0.0635,0.39863 0.09878,0.17287 0.282222,0.25753 0.546806,0.25753 0.162277,0 0.342194,-0.0459 0.557388,-0.13053 0.127,-0.0494 0.1905,-0.0988 0.1905,-0.17991 0,-0.0635 -0.05644,-0.12347 -0.119944,-0.12347 -0.137583,0 -0.366889,0.18344 -0.645583,0.18344 -0.303389,0 -0.324556,-0.18344 -0.324556,-0.45861 v -0.57503 h 0.6985 c 0.09525,0 0.144639,-0.0388 0.144639,-0.11994 0,-0.0882 -0.05292,-0.12348 -0.162278,-0.12348 z"
         style="font-style:normal;font-variant:normal;font-weight:normal;font-stretch:normal;font-size:3.52777767px;font-family:'Courier 10 Pitch';-inkscape-font-specification:'Courier 10 Pitch';stroke-width:0.26458332"
         id="path1960"
         inkscape:connector-curvature="0" />
      <path
         d="m 38.697624,239.23895 0.01764,0.10583 c 0.01411,0.0741 0.05644,0.11289 0.119944,0.11289 h 0.271639 c 0.09172,0 0.137584,-0.0423 0.137584,-0.12347 0,-0.10231 -0.05997,-0.11994 -0.204611,-0.11994 h -0.08819 v -0.77964 c 0,-0.41628 -0.204611,-0.61031 -0.645583,-0.61031 -0.388056,0 -0.642056,0.12347 -0.642056,0.24342 0,0.0882 0.05292,0.14464 0.116417,0.14464 0.134055,0 0.275167,-0.14464 0.518583,-0.14464 0.264584,0 0.388056,0.12347 0.388056,0.38805 0,0.004 0,0.007 0,0.0106 -0.141111,-0.0353 -0.275167,-0.0529 -0.409222,-0.0529 -0.511528,0 -0.797278,0.21519 -0.797278,0.5715 0,0.30339 0.225778,0.51506 0.5715,0.51506 0.236361,0 0.458611,-0.0917 0.645583,-0.26106 z m -0.01058,-0.54328 v 0.18697 c 0,0.15523 -0.282222,0.35278 -0.592667,0.35278 -0.201083,0 -0.338667,-0.11641 -0.338667,-0.26811 0,-0.19403 0.201084,-0.33161 0.567973,-0.33161 0.127,0 0.246944,0.0212 0.363361,0.06 z"
         style="font-style:normal;font-variant:normal;font-weight:normal;font-stretch:normal;font-size:3.52777767px;font-family:'Courier 10 Pitch';-inkscape-font-specification:'Courier 10 Pitch';stroke-width:0.26458332"
         id="path1962"
         inkscape:connector-curvature="0" />
      <path
         d="m 40.58697,239.21426 v -1.27706 c 0,-0.0423 -0.03175,-0.0706 -0.09878,-0.0706 h -0.50447 c -0.09172,0 -0.137583,0.0388 -0.137583,0.11995 0,0.0811 0.04939,0.12347 0.144638,0.12347 h 0.335139 v 1.1042 h -0.525639 c -0.09525,0 -0.144638,0.0388 -0.144638,0.11994 0,0.0811 0.04586,0.12347 0.137583,0.12347 h 1.337028 c 0.102305,0 0.141111,-0.0247 0.141111,-0.12347 0,-0.0847 -0.04233,-0.11994 -0.130528,-0.11994 z m -0.321028,-1.84503 c 0,0.14111 0.03528,0.16933 0.179917,0.16933 0.165805,0 0.176389,-0.0388 0.176389,-0.21872 0,-0.17992 -0.01764,-0.23283 -0.176389,-0.23283 -0.15875,0 -0.179917,0.0529 -0.179917,0.28222 z"
         style="font-style:normal;font-variant:normal;font-weight:normal;font-stretch:normal;font-size:3.52777767px;font-family:'Courier 10 Pitch';-inkscape-font-specification:'Courier 10 Pitch';stroke-width:0.26458332"
         id="path1964"
         inkscape:connector-curvature="0" />
      <path
         d="m 41.908342,239.21426 c -0.01411,0 -0.02469,0 -0.03528,0 -0.141111,0 -0.201084,0.0212 -0.201084,0.11994 0,0.0811 0.04586,0.12347 0.144639,0.12347 0.04586,0 0.07761,0 0.09172,0 h 0.313973 c 0.130527,0 0.183444,-0.007 0.183444,-0.12347 0,-0.0953 -0.04586,-0.12347 -0.165806,-0.12347 -0.02117,0 -0.04586,0.004 -0.07408,0.004 v -0.71614 c 0,-0.25753 0.239889,-0.41275 0.448028,-0.41275 0.225778,0 0.352778,0.13758 0.352778,0.41275 v 0.71614 c -0.02117,0 -0.03881,0 -0.05644,0 -0.123472,0 -0.172861,0.0247 -0.172861,0.11994 0,0.11289 0.04939,0.12347 0.172861,0.12347 h 0.381 c 0.123472,0 0.183445,-0.0247 0.183445,-0.12347 0,-0.0882 -0.05292,-0.11994 -0.162278,-0.11994 -0.0247,0 -0.05292,0 -0.07761,0 v -0.77964 c 0,-0.39864 -0.232834,-0.61384 -0.560917,-0.61384 -0.179917,0 -0.338667,0.0776 -0.504472,0.23284 v -0.11642 c 0,-0.0423 -0.03175,-0.0706 -0.09878,-0.0706 h -0.162278 c -0.15875,0 -0.236361,0 -0.236361,0.11995 0,0.0882 0.04939,0.12347 0.15875,0.12347 0.0247,0 0.05292,0 0.07761,0 z"
         style="font-style:normal;font-variant:normal;font-weight:normal;font-stretch:normal;font-size:3.52777767px;font-family:'Courier 10 Pitch';-inkscape-font-specification:'Courier 10 Pitch';stroke-width:0.26458332"
         id="path1966"
         inkscape:connector-curvature="0" />
    </g>
    <g
       aria-label="decay"
       style="font-style:normal;font-variant:normal;font-weight:bold;font-stretch:normal;font-size:7.05555534px;line-height:1.25;font-family:'Courier 10 Pitch';-inkscape-font-specification:'Courier 10 Pitch Bold';text-align:center;letter-spacing:0px;word-spacing:0px;text-anchor:middle;fill:#000000;fill-opacity:1;stroke:none;stroke-width:0.26458332"
       id="text5515-7">
      <path
         d="m 31.329199,221.0395 c 0,-0.34219 0.218722,-0.56797 0.543278,-0.56797 0.321027,0 0.543277,0.23284 0.543277,0.55034 0,0.3175 -0.229305,0.55738 -0.546805,0.55738 -0.306917,0 -0.53975,-0.21519 -0.53975,-0.53975 z m 1.128889,0.77259 h 0.328083 c 0.07408,0 0.123472,-0.0459 0.123472,-0.12347 0,-0.0882 -0.04939,-0.11995 -0.15875,-0.11995 -0.02469,0 -0.05292,0 -0.07761,0 v -1.94028 c 0,-0.0494 -0.03175,-0.0705 -0.09878,-0.0705 h -0.352777 c -0.09172,0 -0.137584,0.0423 -0.137584,0.12347 0,0.11289 0.07408,0.12347 0.236361,0.12347 h 0.09172 v 0.6597 c -0.134056,-0.16581 -0.324556,-0.24695 -0.560917,-0.24695 -0.465667,0 -0.818444,0.35984 -0.818444,0.81492 0,0.4833 0.331611,0.82197 0.765527,0.82197 0.243417,0 0.455084,-0.0988 0.592667,-0.27164 v 0.14111 c 0,0.06 0.01411,0.0882 0.06703,0.0882 z"
         style="font-style:normal;font-variant:normal;font-weight:normal;font-stretch:normal;font-size:3.52777767px;font-family:'Courier 10 Pitch';-inkscape-font-specification:'Courier 10 Pitch';stroke-width:0.26458332"
         id="path2018"
         inkscape:connector-curvature="0" />
      <path
         d="m 33.486655,220.86664 c 0.06703,-0.28575 0.289278,-0.45508 0.592667,-0.45508 0.278695,0 0.497417,0.17992 0.529167,0.45508 z m -0.0071,0.22578 h 1.157111 c 0.211667,0 0.28575,0 0.28575,-0.16228 0,-0.38452 -0.321028,-0.75494 -0.843139,-0.75494 -0.532694,0 -0.899583,0.34219 -0.899583,0.83608 0,0.51506 0.331611,0.84314 0.864305,0.84314 0.232834,0 0.483306,-0.0564 0.719667,-0.17286 0.102306,-0.0494 0.151694,-0.10231 0.151694,-0.17286 0,-0.0635 -0.05292,-0.11289 -0.119944,-0.11289 -0.155222,0 -0.377472,0.21519 -0.726722,0.21519 -0.356306,0 -0.5715,-0.18697 -0.589139,-0.51858 z"
         style="font-style:normal;font-variant:normal;font-weight:normal;font-stretch:normal;font-size:3.52777767px;font-family:'Courier 10 Pitch';-inkscape-font-specification:'Courier 10 Pitch';stroke-width:0.26458332"
         id="path2020"
         inkscape:connector-curvature="0" />
      <path
         d="m 36.959973,220.73964 v -0.32102 c 0,-0.14817 -0.01764,-0.21167 -0.123472,-0.21167 -0.08819,0 -0.134056,0.0317 -0.134056,0.10936 0,0 0,0.004 0,0.007 -0.1905,-0.0953 -0.363361,-0.14464 -0.543277,-0.14464 -0.493889,0 -0.867834,0.36336 -0.867834,0.83961 0,0.47625 0.370417,0.83608 0.871361,0.83608 0.416278,0 0.804334,-0.25753 0.804334,-0.4198 0,-0.0706 -0.04939,-0.11995 -0.119945,-0.11995 -0.09172,0 -0.15875,0.0847 -0.264583,0.15522 -0.123472,0.0811 -0.264583,0.127 -0.402167,0.127 -0.359833,0 -0.589139,-0.23989 -0.589139,-0.58208 0,-0.33161 0.246945,-0.56797 0.60325,-0.56797 0.204611,0 0.366889,0.0952 0.472723,0.28222 0.05292,0.0952 0.08819,0.13758 0.162277,0.13758 0.08467,0 0.130528,-0.0423 0.130528,-0.127 z"
         style="font-style:normal;font-variant:normal;font-weight:normal;font-stretch:normal;font-size:3.52777767px;font-family:'Courier 10 Pitch';-inkscape-font-specification:'Courier 10 Pitch';stroke-width:0.26458332"
         id="path2022"
         inkscape:connector-curvature="0" />
      <path
         d="m 38.697624,221.59337 0.01764,0.10583 c 0.01411,0.0741 0.05644,0.11289 0.119944,0.11289 h 0.271639 c 0.09172,0 0.137583,-0.0423 0.137583,-0.12347 0,-0.10231 -0.05997,-0.11995 -0.204611,-0.11995 h -0.08819 v -0.77964 c 0,-0.41628 -0.204611,-0.6103 -0.645583,-0.6103 -0.388056,0 -0.642056,0.12347 -0.642056,0.24341 0,0.0882 0.05292,0.14464 0.116417,0.14464 0.134055,0 0.275166,-0.14464 0.518583,-0.14464 0.264583,0 0.388056,0.12348 0.388056,0.38806 0,0.004 0,0.007 0,0.0106 -0.141112,-0.0353 -0.275167,-0.0529 -0.409223,-0.0529 -0.511527,0 -0.797277,0.21519 -0.797277,0.5715 0,0.30338 0.225777,0.51505 0.5715,0.51505 0.236361,0 0.458611,-0.0917 0.645583,-0.26105 z m -0.01058,-0.54328 v 0.18697 c 0,0.15522 -0.282223,0.35278 -0.592667,0.35278 -0.201083,0 -0.338667,-0.11642 -0.338667,-0.26811 0,-0.19403 0.201084,-0.33161 0.567972,-0.33161 0.127,0 0.246945,0.0212 0.363362,0.06 z"
         style="font-style:normal;font-variant:normal;font-weight:normal;font-stretch:normal;font-size:3.52777767px;font-family:'Courier 10 Pitch';-inkscape-font-specification:'Courier 10 Pitch';stroke-width:0.26458332"
         id="path2024"
         inkscape:connector-curvature="0" />
      <path
         d="m 40.297692,222.25306 0.906639,-1.78858 c 0.119944,-0.004 0.172861,-0.0318 0.172861,-0.12348 0,-0.0811 -0.04586,-0.11994 -0.137584,-0.11994 h -0.426861 c -0.112889,0 -0.162277,0.0176 -0.162277,0.11994 0,0.0988 0.05997,0.12348 0.208138,0.12348 0.02117,0 0.04233,0 0.06703,0 l -0.479778,0.94897 -0.462138,-0.94897 c 0.02117,0 0.04233,0 0.0635,0 0.141111,0 0.201083,-0.0247 0.201083,-0.12348 0,-0.1023 -0.04939,-0.11994 -0.162278,-0.11994 h -0.479778 c -0.09172,0 -0.137583,0.0388 -0.137583,0.11994 0,0.0988 0.05644,0.12348 0.197556,0.12348 l 0.631472,1.23825 -0.282222,0.55033 h -0.373945 c -0.08819,0 -0.130528,0.0423 -0.130528,0.12347 0,0.0952 0.04233,0.12347 0.144639,0.12347 h 0.790222 c 0.09172,0 0.141112,-0.0423 0.141112,-0.12347 0,-0.1023 -0.0635,-0.12347 -0.215195,-0.12347 -0.02117,0 -0.04586,0 -0.07408,0 z"
         style="font-style:normal;font-variant:normal;font-weight:normal;font-stretch:normal;font-size:3.52777767px;font-family:'Courier 10 Pitch';-inkscape-font-specification:'Courier 10 Pitch';stroke-width:0.26458332"
         id="path2026"
         inkscape:connector-curvature="0" />
    </g>
    <g
       aria-label="hold"
       style="font-style:normal;font-variant:normal;font-weight:bold;font-stretch:normal;font-size:7.05555534px;line-height:1.25;font-family:'Courier 10 Pitch';-inkscape-font-specification:'Courier 10 Pitch Bold';text-align:center;letter-spacing:0px;word-spacing:0px;text-anchor:middle;fill:#000000;fill-opacity:1;stroke:none;stroke-width:0.26458332"
       id="text5515-6">
      <path
         d="m 32.351483,205.21426 c -0.01411,0 -0.0247,0 -0.03528,0 -0.141111,0 -0.201083,0.0212 -0.201083,0.11994 0,0.0811 0.04586,0.12347 0.137583,0.12347 h 0.458611 c 0.102306,0 0.137583,-0.0247 0.137583,-0.12347 0,-0.0953 -0.04586,-0.12347 -0.165805,-0.12347 -0.02117,0 -0.04586,0.004 -0.07408,0.004 v -0.71614 c 0,-0.25753 0.239889,-0.41275 0.448028,-0.41275 0.225778,0 0.363361,0.13758 0.363361,0.41275 v 0.71614 c -0.03175,0 -0.04939,0 -0.06703,0 -0.123473,0 -0.169334,0.0247 -0.169334,0.11994 0,0.0988 0.03528,0.12347 0.137584,0.12347 h 0.458611 c 0.09172,0 0.137583,-0.0423 0.137583,-0.12347 0,-0.0882 -0.05292,-0.11994 -0.162278,-0.11994 -0.02469,0 -0.04939,0 -0.07408,0 v -0.77964 c 0,-0.39864 -0.236361,-0.61384 -0.564445,-0.61384 -0.179916,0 -0.338666,0.0776 -0.504472,0.23284 v -0.77964 c 0,-0.0423 -0.03175,-0.0706 -0.09878,-0.0706 h -0.261055 c -0.09172,0 -0.137583,0.0423 -0.137583,0.12347 0,0.0882 0.04939,0.11995 0.15875,0.11995 0.02469,0 0.05292,0.004 0.07761,0.004 z"
         style="font-style:normal;font-variant:normal;font-weight:normal;font-stretch:normal;font-size:3.52777767px;font-family:'Courier 10 Pitch';-inkscape-font-specification:'Courier 10 Pitch';stroke-width:0.26458332"
         id="path1930"
         inkscape:connector-curvature="0" />
      <path
         d="m 36.022356,204.66392 c 0,-0.47625 -0.352778,-0.83608 -0.899583,-0.83608 -0.546806,0 -0.903112,0.3563 -0.903112,0.83608 0,0.47978 0.356306,0.83609 0.903112,0.83609 0.546805,0 0.899583,-0.35631 0.899583,-0.83609 z m -0.899583,0.5962 c -0.356306,0 -0.60325,-0.254 -0.60325,-0.5962 0,-0.34219 0.246944,-0.59972 0.60325,-0.59972 0.356305,0 0.60325,0.25753 0.60325,0.59972 0,0.34572 -0.246945,0.5962 -0.60325,0.5962 z"
         style="font-style:normal;font-variant:normal;font-weight:normal;font-stretch:normal;font-size:3.52777767px;font-family:'Courier 10 Pitch';-inkscape-font-specification:'Courier 10 Pitch';stroke-width:0.26458332"
         id="path1932"
         inkscape:connector-curvature="0" />
      <path
         d="m 37.128535,203.45037 v 1.76389 h -0.47625 c -0.09525,0 -0.144639,0.0388 -0.144639,0.11994 0,0.0811 0.04586,0.12347 0.137583,0.12347 h 1.27 c 0.102306,0 0.141111,-0.0247 0.141111,-0.12347 0,-0.0847 -0.04233,-0.11994 -0.130528,-0.11994 H 37.38959 v -1.94028 c 0,-0.0423 -0.03175,-0.0706 -0.09878,-0.0706 h -0.56797 c -0.09172,0 -0.137583,0.0423 -0.137583,0.12347 0,0.0882 0.04939,0.11995 0.162278,0.11995 0.01764,0 0.04939,0.004 0.08819,0.004 z"
         style="font-style:normal;font-variant:normal;font-weight:normal;font-stretch:normal;font-size:3.52777767px;font-family:'Courier 10 Pitch';-inkscape-font-specification:'Courier 10 Pitch';stroke-width:0.26458332"
         id="path1934"
         inkscape:connector-curvature="0" />
      <path
         d="m 38.756824,204.68509 c 0,-0.3422 0.218723,-0.56797 0.543278,-0.56797 0.321028,0 0.543278,0.23283 0.543278,0.55033 0,0.3175 -0.229306,0.55739 -0.546806,0.55739 -0.306916,0 -0.53975,-0.2152 -0.53975,-0.53975 z m 1.128889,0.77258 h 0.328084 c 0.07408,0 0.123472,-0.0459 0.123472,-0.12347 0,-0.0882 -0.04939,-0.11994 -0.15875,-0.11994 -0.0247,0 -0.05292,0 -0.07761,0 v -1.94028 c 0,-0.0494 -0.03175,-0.0706 -0.09878,-0.0706 h -0.352778 c -0.09172,0 -0.137583,0.0423 -0.137583,0.12347 0,0.11289 0.07408,0.12348 0.236361,0.12348 h 0.09172 v 0.65969 c -0.134055,-0.1658 -0.324555,-0.24694 -0.560917,-0.24694 -0.465666,0 -0.818444,0.35983 -0.818444,0.81491 0,0.48331 0.331611,0.82198 0.765528,0.82198 0.243416,0 0.455083,-0.0988 0.592666,-0.27164 v 0.14111 c 0,0.06 0.01411,0.0882 0.06703,0.0882 z"
         style="font-style:normal;font-variant:normal;font-weight:normal;font-stretch:normal;font-size:3.52777767px;font-family:'Courier 10 Pitch';-inkscape-font-specification:'Courier 10 Pitch';stroke-width:0.26458332"
         id="path1936"
         inkscape:connector-curvature="0" />
    </g>
    <g
       aria-label="cv"
       style="font-style:normal;font-variant:normal;font-weight:bold;font-stretch:normal;font-size:7.05555534px;line-height:1.25;font-family:'Courier 10 Pitch';-inkscape-font-specification:'Courier 10 Pitch Bold';text-align:center;letter-spacing:0px;word-spacing:0px;text-anchor:middle;fill:#000000;fill-opacity:1;stroke:none;stroke-width:0.26458332"
       id="text5515-9">
      <path
         d="m 12.681385,188.36759 v -0.32103 c 0,-0.14817 -0.01764,-0.21167 -0.123472,-0.21167 -0.08819,0 -0.134056,0.0317 -0.134056,0.10937 0,0 0,0.004 0,0.007 -0.1905,-0.0952 -0.363361,-0.14464 -0.543278,-0.14464 -0.493889,0 -0.867833,0.36336 -0.867833,0.83961 0,0.47625 0.370417,0.83609 0.871361,0.83609 0.416278,0 0.804333,-0.25753 0.804333,-0.41981 0,-0.0705 -0.04939,-0.11994 -0.119944,-0.11994 -0.09172,0 -0.15875,0.0847 -0.264583,0.15522 -0.123473,0.0811 -0.264584,0.127 -0.402167,0.127 -0.359833,0 -0.589139,-0.23989 -0.589139,-0.58208 0,-0.33162 0.246945,-0.56798 0.60325,-0.56798 0.204611,0 0.366889,0.0952 0.472722,0.28223 0.05292,0.0952 0.0882,0.13758 0.162278,0.13758 0.08467,0 0.130528,-0.0423 0.130528,-0.127 z"
         style="font-style:normal;font-variant:normal;font-weight:normal;font-stretch:normal;font-size:3.52777767px;font-family:'Courier 10 Pitch';-inkscape-font-specification:'Courier 10 Pitch';stroke-width:0.26458332"
         id="path1912"
         inkscape:connector-curvature="0" />
      <path
         d="m 13.23723,188.09242 0.564445,1.25589 c 0.04586,0.10583 0.08467,0.1517 0.201083,0.1517 0.123472,0 0.15875,-0.0423 0.208139,-0.1517 l 0.567972,-1.25589 c 0.01058,0 0.02117,0 0.03175,0 0.137584,0 0.197556,-0.0247 0.197556,-0.12347 0,-0.0811 -0.04586,-0.11994 -0.137584,-0.11994 h -0.532694 c -0.112889,0 -0.162278,0.0176 -0.162278,0.11994 0,0.10231 0.0635,0.127 0.225778,0.127 0.03175,0 0.0635,-0.004 0.102306,-0.004 l -0.497417,1.11478 -0.448028,-1.11478 c 0.02117,0 0.04233,0 0.0635,0 0.141111,0 0.201083,-0.0247 0.201083,-0.12347 0,-0.10231 -0.04939,-0.11994 -0.162277,-0.11994 h -0.483306 c -0.09172,0 -0.137583,0.0388 -0.137583,0.11994 0,0.0988 0.05644,0.12347 0.197555,0.12347 z"
         style="font-style:normal;font-variant:normal;font-weight:normal;font-stretch:normal;font-size:3.52777767px;font-family:'Courier 10 Pitch';-inkscape-font-specification:'Courier 10 Pitch';stroke-width:0.26458332"
         id="path1914"
         inkscape:connector-curvature="0" />
    </g>
  </g>
  <g
     inkscape:groupmode="layer"
     id="layer2"
     inkscape:label="components"
     style="display:none">
    <circle
       style="fill:#ff0000;fill-opacity:1;stroke:none;stroke-width:0.2116601;stroke-opacity:1"
       id="path5458"
       cx="36.217499"
       cy="26.5"
       r="4"
       inkscape:label="ATTACK" />
    <circle
       style="fill:#00ff00;fill-opacity:1;stroke:none;stroke-width:0.18149704;stroke-opacity:1"
       id="path5468"
       cx="11"
       cy="116.5"
       r="3"
       inkscape:label="GATE" />
    <circle
       style="fill:#00ff00;fill-opacity:1;stroke:none;stroke-width:0.18149704;stroke-opacity:1"
       id="path5468-6"
       cx="25.4"
       cy="116.5"
       r="3"
       inkscape:label="RETRIGGER" />
    <circle
       style="fill:#0000ff;fill-opacity:1;stroke:none;stroke-width:0.18149704;stroke-opacity:1"
       id="path5468-2"
       cx="39.799999"
       cy="116.5"
       r="3"
       inkscape:label="MAIN" />
    <circle
       style="fill:#ff0000;fill-opacity:1;stroke:none;stroke-width:0.2116601;stroke-opacity:1"
       id="path5458-8"
       cx="36.217499"
       cy="43.5"
       r="4"
       inkscape:label="HOLD" />
    <circle
       style="fill:#ff0000;fill-opacity:1;stroke:none;stroke-width:0.2116601;stroke-opacity:1"
       id="path5458-2"
       cx="36.217499"
       cy="60.5"
       r="4"
       inkscape:label="DECAY" />
    <circle
       style="fill:#ff0000;fill-opacity:1;stroke:none;stroke-width:0.2116601;stroke-opacity:1"
       id="path5458-3"
       cx="36.217499"
       cy="77.5"
       r="4"
       inkscape:label="SUSTAIN" />
    <circle
       style="fill:#ff0000;fill-opacity:1;stroke:none;stroke-width:0.2116601;stroke-opacity:1"
       id="path5458-28"
       cx="36.217503"
       cy="94.5"
       r="4"
       inkscape:label="RELEASE" />
    <circle
       style="fill:#00ff00;fill-opacity:1;stroke:none;stroke-width:0.15874508;stroke-opacity:1"
       id="path5458-36"
       cx="13"
       cy="26.5"
       r="3"
       inkscape:label="ATTACK" />
    <circle
       style="fill:#00ff00;fill-opacity:1;stroke:none;stroke-width:0.15874508;stroke-opacity:1"
       id="path5458-36-2"
       cx="13"
       cy="94.5"
       r="3"
       inkscape:label="RELEASE" />
    <circle
       style="fill:#00ff00;fill-opacity:1;stroke:none;stroke-width:0.15874508;stroke-opacity:1"
       id="path5458-36-36"
       cx="13"
       cy="77.5"
       r="3"
       inkscape:label="SUSTAIN" />
    <circle
       style="fill:#00ff00;fill-opacity:1;stroke:none;stroke-width:0.15874508;stroke-opacity:1"
       id="path5458-36-8"
       cx="13"
       cy="60.5"
       r="3"
       inkscape:label="DECAY" />
    <circle
       style="fill:#00ff00;fill-opacity:1;stroke:none;stroke-width:0.15874508;stroke-opacity:1"
       id="path5458-36-3"
       cx="13"
       cy="43.5"
       r="3"
       inkscape:label="HOLD" />
  </g>
</svg>
