<?xml version="1.0" encoding="UTF-8" standalone="no"?>
<!-- Created with Inkscape (http://www.inkscape.org/) -->

<svg
   xmlns:dc="http://purl.org/dc/elements/1.1/"
   xmlns:cc="http://creativecommons.org/ns#"
   xmlns:rdf="http://www.w3.org/1999/02/22-rdf-syntax-ns#"
   xmlns:svg="http://www.w3.org/2000/svg"
   xmlns="http://www.w3.org/2000/svg"
   xmlns:sodipodi="http://sodipodi.sourceforge.net/DTD/sodipodi-0.dtd"
   xmlns:inkscape="http://www.inkscape.org/namespaces/inkscape"
   width="25.4mm"
   height="128.5mm"
   viewBox="0 0 25.4 128.5"
   version="1.1"
   id="svg8"
   inkscape:version="0.92.4 (unknown)"
   sodipodi:docname="VCA.svg">
  <defs
     id="defs2" />
  <sodipodi:namedview
     id="base"
     pagecolor="#ffffff"
     bordercolor="#666666"
     borderopacity="1.0"
     inkscape:pageopacity="0.0"
     inkscape:pageshadow="2"
     inkscape:zoom="0.98994949"
     inkscape:cx="-181.02757"
     inkscape:cy="272.28482"
     inkscape:document-units="mm"
     inkscape:current-layer="layer2"
     showgrid="false"
     inkscape:window-width="1303"
     inkscape:window-height="744"
     inkscape:window-x="63"
     inkscape:window-y="24"
     inkscape:window-maximized="1" />
  <metadata
     id="metadata5">
    <rdf:RDF>
      <cc:Work
         rdf:about="">
        <dc:format>image/svg+xml</dc:format>
        <dc:type
           rdf:resource="http://purl.org/dc/dcmitype/StillImage" />
        <dc:title></dc:title>
      </cc:Work>
    </rdf:RDF>
  </metadata>
  <g
     inkscape:label="Layer 1"
     inkscape:groupmode="layer"
     id="layer1"
     transform="translate(0,-168.5)"
     style="display:inline">
    <rect
       style="fill:#f0f0f0;fill-opacity:1;stroke:none;stroke-width:0.21507894;stroke-opacity:1"
       id="rect1069"
       width="25.4"
       height="128.5"
       x="0"
       y="168.5" />
    <g
       aria-label="vca"
       transform="matrix(0.26458333,0,0,0.26458333,-0.63348486,169.10314)"
       style="font-style:normal;font-variant:normal;font-weight:bold;font-stretch:normal;font-size:21.33333397px;line-height:1.25;font-family:'Courier 10 Pitch';-inkscape-font-specification:'Courier 10 Pitch Bold';text-align:center;letter-spacing:0px;word-spacing:0px;text-anchor:middle;fill:#000000;fill-opacity:1;stroke:none"
       id="flowRoot827">
      <path
         d="m 39.044479,32.601933 3.093333,-6.570667 c 0.064,0 0.106667,0 0.170667,0 0.746667,0 1.152,-0.405333 1.152,-1.152 0,-0.874667 -0.448,-1.130667 -1.322667,-1.130667 h -2.453333 c -0.874667,0 -1.322667,0.256 -1.322667,1.130667 0,0.746667 0.405333,1.152 1.152,1.152 0.064,0 0.106667,0 0.170667,0 L 37.721812,30.4686 35.844479,26.031266 c 0.064,0 0.106666,0 0.170666,0 0.746667,0 1.152,-0.405333 1.152,-1.152 0,-0.874667 -0.448,-1.130667 -1.322666,-1.130667 h -2.645334 c -0.874666,0 -1.322666,0.256 -1.322666,1.130667 0,0.746667 0.405333,1.152 1.152,1.152 0.064,0 0.106666,0 0.170666,0 l 2.901334,6.570667 c 0.277333,0.64 0.341333,1.024 1.472,1.024 0.96,0 1.109333,-0.256 1.472,-1.024 z"
         id="path1017"
         inkscape:connector-curvature="0" />
      <path
         d="m 53.605813,24.303266 c -0.96,-0.533333 -1.962667,-0.810667 -3.072,-0.810667 -3.221334,0 -5.504,2.218667 -5.504,5.077334 0,2.88 2.218666,5.056 5.674666,5.056 2.901334,0 5.034667,-1.301333 5.034667,-2.517333 0,-0.618667 -0.405333,-1.045334 -0.917333,-1.045334 -0.853333,0 -1.792,1.365334 -3.925334,1.365334 -1.856,0 -2.965333,-1.194667 -2.965333,-2.88 0,-1.621334 1.130667,-2.837334 2.773333,-2.837334 1.322667,0 2.197334,0.448 2.752001,1.386667 0.341333,0.576 0.64,0.853333 1.194666,0.853333 0.746667,0 1.045334,-0.405333 1.045334,-1.237333 v -1.706667 c 0,-1.024 -0.213334,-1.536 -1.024,-1.536 -0.533334,0 -0.874667,0.277333 -1.066667,0.832 z"
         id="path1019"
         inkscape:connector-curvature="0" />
      <path
         d="m 67.591147,27.225933 c 0,-2.56 -1.002667,-3.754667 -4.138667,-3.754667 -2.901333,0 -4.586667,0.746667 -4.586667,1.834667 0,0.618666 0.384,1.045333 1.130667,1.045333 0.981333,0 1.962667,-1.024 3.285333,-1.024 1.173334,0 1.792,0.661333 1.792,1.92 0,0.064 0,0.128 0,0.192 -0.832,-0.149333 -1.6,-0.213333 -2.325333,-0.213333 -3.008,0 -4.714667,1.216 -4.714667,3.285333 0,1.941334 1.344,3.114667 3.584,3.114667 1.322667,0 2.645334,-0.405333 3.797334,-1.173333 0.234666,0.725333 0.533333,0.917333 1.194666,0.917333 h 0.981334 c 0.896,0 1.322667,-0.298667 1.322667,-1.130667 0,-0.746666 -0.405334,-1.152 -1.152,-1.152 -0.064,0 -0.106667,0 -0.170667,0 z m -2.517334,3.456 c -0.810666,0.576 -1.642666,0.853333 -2.602666,0.853333 -1.045334,0 -1.621334,-0.448 -1.621334,-1.152 0,-1.002666 0.896,-1.536 2.474667,-1.536 0.512,0 1.088,0.08533 1.749333,0.234667 z"
         id="path1021"
         inkscape:connector-curvature="0" />
    </g>
    <g
       aria-label="level"
       transform="matrix(0.26458333,0,0,0.26458333,-2.9339514,172.10417)"
       style="font-style:normal;font-variant:normal;font-weight:bold;font-weight:bold;font-stretch:normal;font-size:26.66666603px;line-height:1.25;font-family:'Courier 10 Pitch';-inkscape-font-specification:'Courier 10 Pitch Bold';text-align:center;letter-spacing:0px;word-spacing:0px;text-anchor:middle;fill:#000000;fill-opacity:1;stroke:none"
       id="flowRoot6716">
      <path
         d="m 38.87125,66.858993 v 6.784 h -1.68 c -0.656,0 -0.976,0.192 -0.976,0.848 0,0.656 0.32,0.864 0.976,0.864 h 5.296 c 0.656,0 0.976,-0.208 0.976,-0.864 0,-0.656 -0.32,-0.848 -0.976,-0.848 h -1.68 v -8.176 c 0,-0.208 -0.176,-0.336 -0.464,-0.336 h -2.336 c -0.656,0 -0.992,0.208 -0.992,0.864 0,0.656 0.336,0.864 0.992,0.864 z"
         style="font-size:16px"
         id="path1024"
         inkscape:connector-curvature="0" />
      <path
         d="m 47.34425,72.202993 h 5.04 c 0.816,0 1.136,-0.112 1.136,-0.8 0,-1.824 -1.536,-3.44 -3.904,-3.44 -2.592,0 -4.256,1.632 -4.256,3.792 0,2.16 1.68,3.792 4.256,3.792 2.288,0 3.776,-0.896 3.776,-1.792 0,-0.464 -0.288,-0.768 -0.704,-0.768 -0.576,0 -1.328,0.944 -3.008,0.944 -1.296,0 -2.064,-0.56 -2.336,-1.728 z m 0,-1.216 c 0.272,-1.024 0.96,-1.52 2.096,-1.52 1.168,0 1.936,0.544 2.112,1.52 z"
         style="font-size:16px"
         id="path1026"
         inkscape:connector-curvature="0" />
      <path
         d="m 60.12125,74.778993 2.32,-4.928 c 0.048,0 0.08,0 0.128,0 0.56,0 0.864,-0.304 0.864,-0.864 0,-0.656 -0.336,-0.848 -0.992,-0.848 h -1.84 c -0.656,0 -0.992,0.192 -0.992,0.848 0,0.56 0.304,0.864 0.864,0.864 0.048,0 0.08,0 0.128,0 l -1.472,3.328 -1.408,-3.328 c 0.048,0 0.08,0 0.128,0 0.56,0 0.864,-0.304 0.864,-0.864 0,-0.656 -0.336,-0.848 -0.992,-0.848 h -1.984 c -0.656,0 -0.992,0.192 -0.992,0.848 0,0.56 0.304,0.864 0.864,0.864 0.048,0 0.08,0 0.128,0 l 2.176,4.928 c 0.208,0.48 0.256,0.768 1.104,0.768 0.72,0 0.832,-0.192 1.104,-0.768 z"
         style="font-size:16px"
         id="path1028"
         inkscape:connector-curvature="0" />
      <path
         d="m 66.59425,72.202993 h 5.04 c 0.816,0 1.136,-0.112 1.136,-0.8 0,-1.824 -1.536,-3.44 -3.904,-3.44 -2.592,0 -4.256,1.632 -4.256,3.792 0,2.16 1.68,3.792 4.256,3.792 2.288,0 3.776,-0.896 3.776,-1.792 0,-0.464 -0.288,-0.768 -0.704,-0.768 -0.576,0 -1.328,0.944 -3.008,0.944 -1.296,0 -2.064,-0.56 -2.336,-1.728 z m 0,-1.216 c 0.272,-1.024 0.96,-1.52 2.096,-1.52 1.168,0 1.936,0.544 2.112,1.52 z"
         style="font-size:16px"
         id="path1030"
         inkscape:connector-curvature="0" />
      <path
         d="m 77.37125,66.858993 v 6.784 h -1.68 c -0.656,0 -0.976,0.192 -0.976,0.848 0,0.656 0.32,0.864 0.976,0.864 h 5.296 c 0.656,0 0.976,-0.208 0.976,-0.864 0,-0.656 -0.32,-0.848 -0.976,-0.848 h -1.68 v -8.176 c 0,-0.208 -0.176,-0.336 -0.464,-0.336 h -2.336 c -0.656,0 -0.992,0.208 -0.992,0.864 0,0.656 0.336,0.864 0.992,0.864 z"
         style="font-size:16px"
         id="path1032"
         inkscape:connector-curvature="0" />
    </g>
    <rect
       style="fill:#060000;fill-opacity:1;stroke:none;stroke-width:0.39132401;stroke-opacity:1"
       id="rect5240-9-7-2"
       width="10"
       height="14"
       x="7.6999998"
       y="276"
       rx="1.2500008" />
    <g
       aria-label="out"
       transform="matrix(0.26458333,0,0,0.26458333,-11.928513,177.86739)"
       style="font-style:normal;font-variant:normal;font-weight:bold;font-stretch:normal;font-size:26.66666603px;line-height:1.25;font-family:'Courier 10 Pitch';-inkscape-font-specification:'Courier 10 Pitch Bold';text-align:center;letter-spacing:0px;word-spacing:0px;text-anchor:middle;fill:#ffffff;fill-opacity:1;stroke:none"
       id="flowRoot1686-9">
      <path
         d="m 88.742617,382.85304 c 0,-1.8 -1.386667,-3.16 -3.546667,-3.16 -2.16,0 -3.56,1.36 -3.56,3.16 0,1.8 1.4,3.16 3.56,3.16 2.16,0 3.546667,-1.36 3.546667,-3.16 z m -3.546667,1.78667 c -1.013333,0 -1.746667,-0.76 -1.746667,-1.8 0,-1.02667 0.72,-1.77334 1.746667,-1.77334 1.04,0 1.733334,0.74667 1.733334,1.77334 0,1.02666 -0.706667,1.8 -1.733334,1.8 z"
         style="font-size:13.33333397px;fill:#ffffff;fill-opacity:1"
         id="path1060"
         inkscape:connector-curvature="0" />
      <path
         d="m 95.843451,384.42637 v -4.30666 c 0,-0.17334 -0.133333,-0.28 -0.373333,-0.28 h -1.226667 c -0.546667,0 -0.826667,0.16 -0.826667,0.70666 0,0.46667 0.253333,0.72 0.72,0.72 0.04,0 0.06667,0 0.106667,0 v 1.88 c 0,0.92 -0.546667,1.45334 -1.226667,1.45334 -0.746667,0 -0.96,-0.50667 -0.96,-1.45334 v -3.02666 c 0,-0.17334 -0.12,-0.28 -0.36,-0.28 h -1.226667 c -0.546666,0 -0.826666,0.16 -0.826666,0.70666 0,0.46667 0.24,0.72 0.706666,0.72 0.04,0 0.06667,0 0.106667,0 v 2.17334 c 0,1.70666 0.666667,2.56 2.08,2.56 0.826667,0 1.413333,-0.30667 1.826667,-0.93334 v 0.49334 c 0,0.17333 0.133333,0.29333 0.386667,0.29333 h 1.093333 c 0.546667,0 0.813333,-0.17333 0.813333,-0.72 0,-0.46667 -0.24,-0.70667 -0.706666,-0.70667 -0.02667,0 -0.06667,0 -0.106667,0 z"
         style="font-size:13.33333397px;fill:#ffffff;fill-opacity:1"
         id="path1062"
         inkscape:connector-curvature="0" />
      <path
         d="m 98.570951,381.62637 h 0.613334 v 1.66667 c 0,0.0533 0,0.10667 0,0.14667 0,0.78666 0.01333,1.38666 0.4,1.84 0.373333,0.44 1.053335,0.70666 1.973335,0.70666 1.61333,0 2.97333,-0.72 2.97333,-1.30666 0,-0.45334 -0.30667,-0.74667 -0.65333,-0.74667 -0.56,0 -1.2,0.58667 -2.12,0.58667 -0.77334,0 -0.97334,-0.37334 -0.97334,-1.22667 v -1.66667 h 1.98667 c 0.54667,0 0.82667,-0.17333 0.82667,-0.72 0,-0.54666 -0.28,-0.70666 -0.82667,-0.70666 h -1.98667 v -1.52 c 0,-0.56 -0.2,-0.81334 -0.813329,-0.81334 -0.506666,0 -0.786666,0.28 -0.786666,0.54667 0,0.0267 0,0.10667 0,0.26667 v 1.52 h -0.613334 c -0.546666,0 -0.813333,0.16 -0.813333,0.70666 0,0.54667 0.266667,0.72 0.813333,0.72 z"
         style="font-size:13.33333397px;fill:#ffffff;fill-opacity:1"
         id="path1064"
         inkscape:connector-curvature="0" />
    </g>
    <g
       aria-label="in"
       transform="matrix(0.26458333,0,0,0.26458333,-11.928527,156.90972)"
       style="font-style:normal;font-variant:normal;font-weight:bold;font-stretch:normal;font-size:26.66666603px;line-height:1.25;font-family:'Courier 10 Pitch';-inkscape-font-specification:'Courier 10 Pitch Bold';text-align:center;letter-spacing:0px;word-spacing:0px;text-anchor:middle;fill:#ffffff;fill-opacity:1;stroke:none"
       id="flowRoot1686-6-0">
      <path
         d="m 88.366367,378.14637 c 0,0.66667 0.146667,0.78667 0.8,0.78667 0.733333,0 0.8,-0.14667 0.8,-0.98667 0,-0.81333 -0.06667,-1.05333 -0.786667,-1.05333 -0.693333,0 -0.813333,0.21333 -0.813333,1.25333 z m 1.373333,1.69334 h -1.96 c -0.546666,0 -0.813333,0.16 -0.813333,0.70666 0,0.54667 0.266667,0.72 0.813333,0.72 h 0.733334 v 3.16 h -1.4 c -0.546667,0 -0.826667,0.16 -0.826667,0.70667 0,0.54667 0.28,0.72 0.826667,0.72 h 4.4 c 0.546666,0 0.826666,-0.17333 0.826666,-0.72 0,-0.54667 -0.28,-0.70667 -0.826666,-0.70667 h -1.4 v -4.30666 c 0,-0.17334 -0.133334,-0.28 -0.373334,-0.28 z"
         style="font-style:normal;font-variant:normal;font-weight:normal;font-stretch:normal;font-size:13.33333397px;fill:#000000;fill-opacity:1"
         id="path1055"
         inkscape:connector-curvature="0" />
      <path
         d="m 99.960534,384.41304 v -2.17333 c 0,-1.70667 -0.653333,-2.56 -2.066666,-2.56 -0.826667,0 -1.426667,0.32 -1.84,0.94666 v -0.50666 c 0,-0.17334 -0.12,-0.28 -0.373334,-0.28 h -1.106666 c -0.546667,0 -0.813334,0.17333 -0.813334,0.72 0,0.46666 0.24,0.70666 0.706667,0.70666 0.02667,0 0.06667,0 0.106667,0 v 3.14667 c -0.02667,0 -0.05333,0 -0.08,0 -0.493334,0 -0.733334,0.24 -0.733334,0.72 0,0.53333 0.253333,0.72 0.813334,0.72 h 1.613333 c 0.56,0 0.813333,-0.18667 0.813333,-0.72 0,-0.48 -0.24,-0.72 -0.733333,-0.72 -0.02667,0 -0.05333,0 -0.08,0 v -1.88 c 0,-0.92 0.546667,-1.44 1.226667,-1.44 0.746666,0 0.946666,0.49333 0.946666,1.44 v 1.88 c -0.02667,0 -0.05333,0 -0.08,0 -0.493333,0 -0.746666,0.24 -0.746666,0.72 0,0.53333 0.266666,0.72 0.826666,0.72 h 1.6 c 0.559996,0 0.813336,-0.18667 0.813336,-0.72 0,-0.48 -0.24,-0.72 -0.73334,-0.72 -0.0267,0 -0.05333,0 -0.08,0 z"
         style="font-style:normal;font-variant:normal;font-weight:normal;font-stretch:normal;font-size:13.33333397px;fill:#000000;fill-opacity:1"
         id="path1057"
         inkscape:connector-curvature="0" />
    </g>
    <g
       aria-label="linear"
       transform="matrix(0.26458333,0,0,0.26458333,-11.928527,115.85654)"
       style="font-style:normal;font-variant:normal;font-weight:bold;font-stretch:normal;font-size:26.66666603px;line-height:1.25;font-family:'Courier 10 Pitch';-inkscape-font-specification:'Courier 10 Pitch Bold';text-align:center;letter-spacing:0px;word-spacing:0px;text-anchor:middle;fill:#ffffff;fill-opacity:1;stroke:none"
       id="flowRoot1686-6-0-3">
      <path
         d="m 72.351366,378.77304 v 5.65333 h -1.4 c -0.546667,0 -0.813333,0.16 -0.813333,0.70667 0,0.54667 0.266666,0.72 0.813333,0.72 H 75.3647 c 0.546666,0 0.813333,-0.17333 0.813333,-0.72 0,-0.54667 -0.266667,-0.70667 -0.813333,-0.70667 h -1.4 v -6.81333 c 0,-0.17333 -0.146667,-0.28 -0.386667,-0.28 h -1.946667 c -0.546667,0 -0.826667,0.17333 -0.826667,0.72 0,0.54667 0.28,0.72 0.826667,0.72 z"
         style="font-style:normal;font-variant:normal;font-weight:normal;font-stretch:normal;font-size:13.33333397px;fill:#000000;fill-opacity:1"
         id="path1035"
         inkscape:connector-curvature="0" />
      <path
         d="m 80.345533,378.14637 c 0,0.66667 0.146667,0.78667 0.800001,0.78667 0.733333,0 0.8,-0.14667 0.8,-0.98667 0,-0.81333 -0.06667,-1.05333 -0.786667,-1.05333 -0.693334,0 -0.813334,0.21333 -0.813334,1.25333 z m 1.373334,1.69334 h -1.96 c -0.546667,0 -0.813334,0.16 -0.813334,0.70666 0,0.54667 0.266667,0.72 0.813334,0.72 H 80.4922 v 3.16 h -1.4 c -0.546667,0 -0.826667,0.16 -0.826667,0.70667 0,0.54667 0.28,0.72 0.826667,0.72 h 4.4 c 0.546667,0 0.826667,-0.17333 0.826667,-0.72 0,-0.54667 -0.28,-0.70667 -0.826667,-0.70667 h -1.4 v -4.30666 c 0,-0.17334 -0.133333,-0.28 -0.373333,-0.28 z"
         style="font-style:normal;font-variant:normal;font-weight:normal;font-stretch:normal;font-size:13.33333397px;fill:#000000;fill-opacity:1"
         id="path1037"
         inkscape:connector-curvature="0" />
      <path
         d="m 91.939701,384.41304 v -2.17333 c 0,-1.70667 -0.653333,-2.56 -2.066667,-2.56 -0.826667,0 -1.426667,0.32 -1.84,0.94666 v -0.50666 c 0,-0.17334 -0.12,-0.28 -0.373333,-0.28 h -1.106667 c -0.546667,0 -0.813333,0.17333 -0.813333,0.72 0,0.46666 0.24,0.70666 0.706666,0.70666 0.02667,0 0.06667,0 0.106667,0 v 3.14667 c -0.02667,0 -0.05333,0 -0.08,0 -0.493333,0 -0.733333,0.24 -0.733333,0.72 0,0.53333 0.253333,0.72 0.813333,0.72 h 1.613333 c 0.56,0 0.813334,-0.18667 0.813334,-0.72 0,-0.48 -0.24,-0.72 -0.733334,-0.72 -0.02667,0 -0.05333,0 -0.08,0 v -1.88 c 0,-0.92 0.546667,-1.44 1.226667,-1.44 0.746667,0 0.946667,0.49333 0.946667,1.44 v 1.88 c -0.02667,0 -0.05333,0 -0.08,0 -0.493333,0 -0.746667,0.24 -0.746667,0.72 0,0.53333 0.266667,0.72 0.826667,0.72 h 1.6 c 0.56,0 0.813333,-0.18667 0.813333,-0.72 0,-0.48 -0.24,-0.72 -0.733333,-0.72 -0.02667,0 -0.05333,0 -0.08,0 z"
         style="font-style:normal;font-variant:normal;font-weight:normal;font-stretch:normal;font-size:13.33333397px;fill:#000000;fill-opacity:1"
         id="path1039"
         inkscape:connector-curvature="0" />
      <path
         d="m 95.453868,383.22637 h 4.2 c 0.680002,0 0.946662,-0.0933 0.946662,-0.66666 0,-1.52 -1.279995,-2.86667 -3.253329,-2.86667 -2.16,0 -3.546666,1.36 -3.546666,3.16 0,1.8 1.4,3.16 3.546666,3.16 1.906667,0 3.146669,-0.74667 3.146669,-1.49333 0,-0.38667 -0.24,-0.64 -0.586668,-0.64 -0.48,0 -1.106667,0.78666 -2.506667,0.78666 -1.08,0 -1.72,-0.46666 -1.946667,-1.44 z m 0,-1.01333 c 0.226667,-0.85333 0.8,-1.26667 1.746667,-1.26667 0.973333,0 1.613333,0.45334 1.76,1.26667 z"
         style="font-style:normal;font-variant:normal;font-weight:normal;font-stretch:normal;font-size:13.33333397px;fill:#000000;fill-opacity:1"
         id="path1041"
         inkscape:connector-curvature="0" />
      <path
         d="m 107.90137,382.01304 c 0,-1.6 -0.62667,-2.34667 -2.58667,-2.34667 -1.81333,0 -2.86666,0.46667 -2.86666,1.14667 0,0.38667 0.24,0.65333 0.70666,0.65333 0.61334,0 1.22667,-0.64 2.05334,-0.64 0.73333,0 1.12,0.41334 1.12,1.2 0,0.04 0,0.08 0,0.12 -0.52,-0.0933 -1,-0.13333 -1.45334,-0.13333 -1.88,0 -2.94666,0.76 -2.94666,2.05333 0,1.21334 0.84,1.94667 2.24,1.94667 0.82666,0 1.65333,-0.25333 2.37333,-0.73333 0.14667,0.45333 0.33333,0.57333 0.74667,0.57333 h 0.61333 c 0.56,0 0.82667,-0.18667 0.82667,-0.70667 0,-0.46666 -0.25334,-0.72 -0.72,-0.72 -0.04,0 -0.0667,0 -0.10667,0 z m -1.57333,2.16 c -0.50667,0.36 -1.02667,0.53333 -1.62667,0.53333 -0.65333,0 -1.01333,-0.28 -1.01333,-0.72 0,-0.62666 0.56,-0.96 1.54666,-0.96 0.32,0 0.68,0.0533 1.09334,0.14667 z"
         style="font-style:normal;font-variant:normal;font-weight:normal;font-stretch:normal;font-size:13.33333397px;fill:#000000;fill-opacity:1"
         id="path1043"
         inkscape:connector-curvature="0" />
      <path
         d="m 112.97554,384.42637 v -2.10666 c 0.74666,-0.76 1.32,-1.14667 1.73333,-1.14667 0.36,0 0.72,0.42667 1.25333,0.42667 0.53334,0 0.92,-0.36 0.92,-0.86667 0,-0.62667 -0.50666,-1.06667 -1.38666,-1.06667 -1.02667,0 -1.77334,0.46667 -2.65334,1.41334 v -0.96 c 0,-0.17334 -0.13333,-0.28 -0.37333,-0.28 h -1.38667 c -0.54666,0 -0.81333,0.16 -0.81333,0.70666 0,0.54667 0.26667,0.72 0.81333,0.72 h 0.28 v 3.16 h -0.49333 c -0.54667,0 -0.82667,0.16 -0.82667,0.70667 0,0.54667 0.28,0.72 0.82667,0.72 h 3.64 c 0.54667,0 0.81333,-0.17333 0.81333,-0.72 0,-0.54667 -0.26666,-0.70667 -0.81333,-0.70667 z"
         style="font-style:normal;font-variant:normal;font-weight:normal;font-stretch:normal;font-size:13.33333397px;fill:#000000;fill-opacity:1"
         id="path1045"
         inkscape:connector-curvature="0" />
    </g>
    <g
       aria-label="exp"
       transform="matrix(0.26458333,0,0,0.26458333,-11.928528,134.85654)"
       style="font-style:normal;font-variant:normal;font-weight:bold;font-stretch:normal;font-size:26.66666603px;line-height:1.25;font-family:'Courier 10 Pitch';-inkscape-font-specification:'Courier 10 Pitch Bold';text-align:center;letter-spacing:0px;word-spacing:0px;text-anchor:middle;fill:#ffffff;fill-opacity:1;stroke:none"
       id="flowRoot1686-6-0-5">
      <path
         d="m 83.422617,383.22637 h 4.2 c 0.68,0 0.946667,-0.0933 0.946667,-0.66666 0,-1.52 -1.28,-2.86667 -3.253334,-2.86667 -2.16,0 -3.546667,1.36 -3.546667,3.16 0,1.8 1.4,3.16 3.546667,3.16 1.906667,0 3.146667,-0.74667 3.146667,-1.49333 0,-0.38667 -0.24,-0.64 -0.586667,-0.64 -0.48,0 -1.106666,0.78666 -2.506667,0.78666 -1.08,0 -1.72,-0.46666 -1.946666,-1.44 z m 0,-1.01333 c 0.226666,-0.85333 0.8,-1.26667 1.746666,-1.26667 0.973334,0 1.613334,0.45334 1.760001,1.26667 z"
         style="font-style:normal;font-variant:normal;font-weight:normal;font-stretch:normal;font-size:13.33333397px;fill:#000000;fill-opacity:1"
         id="path1048"
         inkscape:connector-curvature="0" />
      <path
         d="m 95.683451,384.41304 -1.626667,-1.66667 1.36,-1.48 c 0.09333,0.0133 0.173334,0.0133 0.253334,0.0133 0.506666,0 0.76,-0.22667 0.76,-0.72 0,-0.53334 -0.253334,-0.72 -0.813334,-0.72 h -1.386667 c -0.44,0 -0.653333,0.22666 -0.653333,0.70666 0,0.4 0.133333,0.6 0.413333,0.6 l -0.746666,0.81334 -0.693334,-0.81334 c 0.28,0 0.413334,-0.2 0.413334,-0.6 0,-0.48 -0.213334,-0.70666 -0.653334,-0.70666 h -1.573333 c -0.56,0 -0.826667,0.18666 -0.826667,0.72 0,0.48 0.24,0.72 0.746667,0.72 0.06667,0 0.133333,0 0.213333,-0.0133 l 1.493334,1.58667 -1.533334,1.56 c -0.05333,0 -0.09333,-0.0133 -0.146666,-0.0133 -0.466667,0 -0.693334,0.25333 -0.693334,0.73333 0,0.53333 0.253334,0.72 0.813334,0.72 h 1.386666 c 0.44,0 0.653334,-0.22667 0.653334,-0.70667 0,-0.4 -0.133334,-0.6 -0.413334,-0.6 -0.01333,0 -0.04,0 -0.05333,0 l 0.8,-0.92 0.826667,0.92 c -0.01333,0 -0.04,0 -0.05333,0 -0.293333,0 -0.426666,0.2 -0.426666,0.6 0,0.48 0.213333,0.70667 0.653333,0.70667 h 1.573334 c 0.56,0 0.826666,-0.18667 0.826666,-0.72 0,-0.48 -0.253333,-0.73333 -0.746666,-0.73333 -0.04,0 -0.09333,0.0133 -0.146667,0.0133 z"
         style="font-style:normal;font-variant:normal;font-weight:normal;font-stretch:normal;font-size:13.33333397px;fill:#000000;fill-opacity:1"
         id="path1050"
         inkscape:connector-curvature="0" />
      <path
         d="m 100.82428,387.01304 h -0.826662 v -1.77333 c 0.453332,0.37333 1.080002,0.57333 1.773332,0.57333 1.70667,0 3,-1.30667 3,-3.13333 0,-1.70667 -1.28,-3 -3.08,-3 -0.78667,0 -1.42667,0.30666 -1.866665,0.89333 v -0.46667 c 0,-0.17333 -0.12,-0.26666 -0.373334,-0.26666 h -1 c -0.546666,0 -0.813333,0.16 -0.813333,0.70666 0,0.46667 0.24,0.72 0.706667,0.72 0.04,0 0.06667,0 0.106666,0 v 5.74667 h -0.386666 c -0.546667,0 -0.813334,0.17333 -0.813334,0.72 0,0.54667 0.266667,0.70667 0.813334,0.70667 h 2.759995 c 0.54667,0 0.81334,-0.16 0.81334,-0.70667 0,-0.54667 -0.26667,-0.72 -0.81334,-0.72 z m -0.8,-4.25333 c 0,-1 0.62667,-1.69334 1.48,-1.69334 0.85334,0 1.48,0.69334 1.48,1.69334 0,1 -0.64,1.69333 -1.48,1.69333 -0.85333,0 -1.48,-0.69333 -1.48,-1.69333 z"
         style="font-style:normal;font-variant:normal;font-weight:normal;font-stretch:normal;font-size:13.33333397px;fill:#000000;fill-opacity:1"
         id="path1052"
         inkscape:connector-curvature="0" />
    </g>
    <flowRoot
       xml:space="preserve"
       id="flowRoot974"
       style="font-style:normal;font-variant:normal;font-weight:bold;font-stretch:normal;font-size:26.66666603px;line-height:1.25;font-family:'Courier 10 Pitch';-inkscape-font-specification:'Courier 10 Pitch Bold';text-align:center;letter-spacing:0px;word-spacing:0px;text-anchor:middle;fill:#000000;fill-opacity:1;stroke:none"
       transform="matrix(0.26458333,0,0,0.26458333,0,168.5)"><flowRegion
         id="flowRegion976"><rect
           id="rect978"
           width="227.28432"
           height="360.62445"
           x="-325.26913"
           y="-73.955231" /></flowRegion><flowPara
         id="flowPara980"></flowPara></flowRoot>    <path
       style="fill:none;stroke:#000000;stroke-width:0.19308332px;stroke-linecap:butt;stroke-linejoin:miter;stroke-opacity:1"
       d="M 3,252.90346 H 22.5"
       id="path982"
       inkscape:connector-curvature="0" />
  </g>
  <g
     inkscape:groupmode="layer"
     id="layer2"
     inkscape:label="components"
     style="display:none">
    <circle
       style="fill:#ff0000;fill-opacity:1;stroke:none;stroke-width:0.2116601;stroke-opacity:1"
       id="path5458-367"
       cx="12.937191"
       cy="32.5"
       r="4"
       inkscape:label="GAIN" />
    <circle
       style="fill:#00ff00;fill-opacity:1;stroke:none;stroke-width:0.18149704;stroke-opacity:1"
       id="path5468-6-0-3"
       cx="12.7"
       cy="56"
       r="3"
       inkscape:label="LINEAR" />
    <circle
       style="fill:#00ff00;fill-opacity:1;stroke:none;stroke-width:0.18149704;stroke-opacity:1"
       id="path5468-6-0-2"
       cx="12.7"
       cy="75"
       r="3"
       inkscape:label="EXP" />
    <circle
       style="fill:#00ff00;fill-opacity:1;stroke:none;stroke-width:0.18149704;stroke-opacity:1"
       id="path5468-6-0"
       cx="12.7"
       cy="96.5"
       r="3"
       inkscape:label="MAIN" />
    <circle
       style="fill:#0000ff;fill-opacity:1;stroke:none;stroke-width:0.18149704;stroke-opacity:1"
       id="path5468-2-6"
       cx="12.7"
       cy="116.50003"
       r="3"
       inkscape:label="MAIN" />
  </g>
</svg>
