<?xml version="1.0" encoding="UTF-8" standalone="no"?>
<!-- Created with Inkscape (http://www.inkscape.org/) -->

<svg
   xmlns:dc="http://purl.org/dc/elements/1.1/"
   xmlns:cc="http://creativecommons.org/ns#"
   xmlns:rdf="http://www.w3.org/1999/02/22-rdf-syntax-ns#"
   xmlns:svg="http://www.w3.org/2000/svg"
   xmlns="http://www.w3.org/2000/svg"
   xmlns:sodipodi="http://sodipodi.sourceforge.net/DTD/sodipodi-0.dtd"
   xmlns:inkscape="http://www.inkscape.org/namespaces/inkscape"
   width="50.799999mm"
   height="128.5mm"
   viewBox="0 0 50.799999 128.5"
   version="1.1"
   id="svg1280"
   inkscape:version="0.92.4 (unknown)"
   sodipodi:docname="VCF.svg">
  <defs
     id="defs1274" />
  <sodipodi:namedview
     id="base"
     pagecolor="#ffffff"
     bordercolor="#666666"
     borderopacity="1.0"
     inkscape:pageopacity="0.0"
     inkscape:pageshadow="2"
     inkscape:zoom="0.98994949"
     inkscape:cx="-286.23622"
     inkscape:cy="214.30766"
     inkscape:document-units="mm"
     inkscape:current-layer="layer1"
     showgrid="false"
     inkscape:window-width="1303"
     inkscape:window-height="744"
     inkscape:window-x="63"
     inkscape:window-y="24"
     inkscape:window-maximized="1" />
  <metadata
     id="metadata1277">
    <rdf:RDF>
      <cc:Work
         rdf:about="">
        <dc:format>image/svg+xml</dc:format>
        <dc:type
           rdf:resource="http://purl.org/dc/dcmitype/StillImage" />
        <dc:title />
      </cc:Work>
    </rdf:RDF>
  </metadata>
  <g
     inkscape:label="Layer 1"
     inkscape:groupmode="layer"
     id="layer1"
     transform="translate(0,-168.5)">
    <rect
       style="fill:#f0f0f0;fill-opacity:1;stroke:none;stroke-width:0.30917579;stroke-opacity:1"
       id="rect815"
       width="50.799999"
       height="128.5"
       x="0"
       y="168.5" />
    <g
       aria-label="vcf"
       transform="matrix(0.26458333,0,0,0.26458333,1.5288933,150.70931)"
       style="font-style:normal;font-variant:normal;font-weight:bold;font-stretch:normal;font-size:26.66666603px;line-height:1.25;font-family:'Courier 10 Pitch';-inkscape-font-specification:'Courier 10 Pitch Bold';text-align:center;letter-spacing:0px;word-spacing:0px;text-anchor:middle;fill:#000000;fill-opacity:1;stroke:none"
       id="flowRoot1647">
      <path
         d="m 78.945846,105.90145 3.093333,-6.570671 c 0.064,0 0.106667,0 0.170667,0 0.746667,0 1.152,-0.405333 1.152,-1.152 0,-0.874666 -0.448,-1.130666 -1.322667,-1.130666 h -2.453333 c -0.874667,0 -1.322667,0.256 -1.322667,1.130666 0,0.746667 0.405334,1.152 1.152,1.152 0.064,0 0.106667,0 0.170667,0 l -1.962667,4.437331 -1.877333,-4.437331 c 0.064,0 0.106667,0 0.170667,0 0.746666,0 1.152,-0.405333 1.152,-1.152 0,-0.874666 -0.448,-1.130666 -1.322667,-1.130666 h -2.645333 c -0.874667,0 -1.322667,0.256 -1.322667,1.130666 0,0.746667 0.405333,1.152 1.152,1.152 0.064,0 0.106667,0 0.170667,0 l 2.901333,6.570671 c 0.277333,0.64 0.341333,1.024 1.472,1.024 0.96,0 1.109333,-0.256 1.472,-1.024 z"
         style="font-size:21.33333397px"
         id="path870" />
      <path
         d="m 93.50718,97.602779 c -0.96,-0.533333 -1.962667,-0.810666 -3.072,-0.810666 -3.221333,0 -5.504,2.218666 -5.504,5.077337 0,2.88 2.218667,5.056 5.674667,5.056 2.901333,0 5.034666,-1.30134 5.034666,-2.51734 0,-0.61866 -0.405333,-1.04533 -0.917333,-1.04533 -0.853333,0 -1.792,1.36533 -3.925333,1.36533 -1.856,0 -2.965334,-1.19466 -2.965334,-2.88 0,-1.62133 1.130667,-2.837331 2.773334,-2.837331 1.322666,0 2.197333,0.448 2.752,1.386671 0.341333,0.576 0.64,0.85333 1.194666,0.85333 0.746667,0 1.045334,-0.40533 1.045334,-1.23733 v -1.706671 c 0,-1.024 -0.213334,-1.536 -1.024,-1.536 -0.533334,0 -0.874667,0.277334 -1.066667,0.832 z"
         style="font-size:21.33333397px"
         id="path872" />
      <path
         d="m 101.34851,99.629446 v 4.757334 h -1.13066 c -0.87467,0 -1.301336,0.256 -1.301336,1.13067 0,0.87466 0.426666,1.152 1.301336,1.152 h 5.76 c 0.87466,0 1.32266,-0.27734 1.32266,-1.152 0,-0.87467 -0.448,-1.13067 -1.32266,-1.13067 h -2.06934 v -4.757334 h 2.24 c 0.87467,0 1.32267,-0.277333 1.32267,-1.152 0,-0.874667 -0.448,-1.130667 -1.32267,-1.130667 h -2.24 c 0,-0.128 0,-0.234666 0,-0.341333 0,-1.408 0.40534,-1.962667 1.74934,-1.962667 0.53333,0 1.152,0.192 1.83466,0.192 0.68267,0 1.04534,-0.405333 1.04534,-0.96 0,-0.917333 -0.832,-1.28 -2.56,-1.28 -3.30667,0 -4.65067,0.981334 -4.65067,3.754667 0,0.192 0,0.384 0.0213,0.597333 h -1.13066 c -0.87467,0 -1.301336,0.256 -1.301336,1.130667 0,0.874667 0.426666,1.152 1.301336,1.152 z"
         style="font-size:21.33333397px"
         id="path874" />
    </g>
    <g
       aria-label="freq"
       style="font-style:normal;font-variant:normal;font-weight:bold;font-stretch:normal;font-size:7.05555534px;line-height:1.25;font-family:'Courier 10 Pitch';-inkscape-font-specification:'Courier 10 Pitch Bold';text-align:center;letter-spacing:0px;word-spacing:0px;text-anchor:middle;fill:#000000;fill-opacity:1;stroke:none;stroke-width:0.26458332"
       id="text5515">
      <path
         d="m 33.488429,213.79351 v 0.78669 h -0.186972 c -0.144639,0 -0.215195,0.0423 -0.215195,0.18697 0,0.14464 0.07056,0.1905 0.215195,0.1905 h 0.9525 c 0.144639,0 0.218722,-0.0459 0.218722,-0.1905 0,-0.14464 -0.07408,-0.18697 -0.218722,-0.18697 h -0.342195 v -0.78669 h 0.370417 c 0.144639,0 0.218722,-0.0459 0.218722,-0.1905 0,-0.14464 -0.07408,-0.18698 -0.218722,-0.18698 h -0.370417 c 0,-0.0212 0,-0.0388 0,-0.0564 0,-0.23283 0.06703,-0.32456 0.289278,-0.32456 0.08819,0 0.1905,0.0317 0.303389,0.0317 0.112889,0 0.172861,-0.067 0.172861,-0.15875 0,-0.15169 -0.137583,-0.21166 -0.423333,-0.21166 -0.546806,0 -0.769056,0.16227 -0.769056,0.62089 0,0.0317 0,0.0635 0.0035,0.0988 h -0.186972 c -0.144639,0 -0.215195,0.0423 -0.215195,0.18698 0,0.14463 0.07056,0.1905 0.215195,0.1905 z"
         style="font-size:3.52777767px;stroke-width:0.26458332"
         id="path876" />
      <path
         d="m 35.846969,214.5802 v -0.55739 c 0.197555,-0.20108 0.34925,-0.30339 0.458611,-0.30339 0.09525,0 0.1905,0.11289 0.331611,0.11289 0.141111,0 0.243417,-0.0952 0.243417,-0.2293 0,-0.16581 -0.134056,-0.28223 -0.366889,-0.28223 -0.271639,0 -0.469195,0.12348 -0.702028,0.37395 v -0.254 c 0,-0.0459 -0.03528,-0.0741 -0.09878,-0.0741 h -0.366889 c -0.144638,0 -0.215194,0.0423 -0.215194,0.18698 0,0.14464 0.07056,0.1905 0.215194,0.1905 h 0.07408 v 0.83608 H 35.28958 c -0.144639,0 -0.218722,0.0423 -0.218722,0.18697 0,0.14464 0.07408,0.1905 0.218722,0.1905 h 0.963083 c 0.144639,0 0.215195,-0.0459 0.215195,-0.1905 0,-0.14464 -0.07056,-0.18697 -0.215195,-0.18697 z"
         style="font-size:3.52777767px;stroke-width:0.26458332"
         id="path878" />
      <path
         d="m 37.577564,214.2627 h 1.11125 c 0.179917,0 0.250473,-0.0247 0.250473,-0.17639 0,-0.40217 -0.338667,-0.75847 -0.860778,-0.75847 -0.5715,0 -0.938389,0.35983 -0.938389,0.83608 0,0.47625 0.370417,0.83609 0.938389,0.83609 0.504472,0 0.832555,-0.19756 0.832555,-0.39512 0,-0.1023 -0.0635,-0.16933 -0.155222,-0.16933 -0.127,0 -0.292805,0.20814 -0.663222,0.20814 -0.28575,0 -0.455083,-0.12347 -0.515056,-0.381 z m 0,-0.26811 c 0.05997,-0.22578 0.211667,-0.33514 0.462139,-0.33514 0.257528,0 0.426861,0.11994 0.465667,0.33514 z"
         style="font-size:3.52777767px;stroke-width:0.26458332"
         id="path880" />
      <path
         d="m 40.274771,215.26459 c -0.144639,0 -0.218723,0.0459 -0.218723,0.1905 0,0.14464 0.07408,0.18697 0.218723,0.18697 h 0.726722 c 0.144639,0 0.218722,-0.0423 0.218722,-0.18697 0,-0.14464 -0.07408,-0.1905 -0.218722,-0.1905 h -0.09878 v -1.52047 c 0.01058,0 0.01764,0 0.02822,0 0.123473,0 0.186973,-0.067 0.186973,-0.1905 0,-0.14464 -0.07056,-0.18698 -0.215195,-0.18698 h -0.264583 c -0.06703,0 -0.09878,0.0247 -0.09878,0.0706 v 0.12347 c -0.116417,-0.15522 -0.28575,-0.23636 -0.493889,-0.23636 -0.47625,0 -0.818444,0.3422 -0.818444,0.79375 0,0.48331 0.342194,0.82903 0.79375,0.82903 0.183444,0 0.352777,-0.0529 0.472722,-0.1517 v 0.4692 z m -0.179917,-0.67733 c -0.22225,0 -0.391583,-0.18345 -0.391583,-0.44803 0,-0.26459 0.165805,-0.44803 0.391583,-0.44803 0.225778,0 0.391583,0.18344 0.391583,0.44803 0,0.26458 -0.165805,0.44803 -0.391583,0.44803 z"
         style="font-size:3.52777767px;stroke-width:0.26458332"
         id="path882" />
    </g>
    <path
       style="fill:none;stroke:#000000;stroke-width:0.23475629px;stroke-linecap:butt;stroke-linejoin:miter;stroke-opacity:1"
       d="m 16.80181,220.95227 h 16.217"
       id="path5593"
       inkscape:connector-curvature="0" />
    <path
       style="fill:none;stroke:#000000;stroke-width:0.23475629px;stroke-linecap:butt;stroke-linejoin:miter;stroke-opacity:1"
       d="m 16.80181,240.95226 h 16.217"
       id="path5593-1"
       inkscape:connector-curvature="0" />
    <g
       aria-label="cv"
       style="font-style:normal;font-variant:normal;font-weight:bold;font-stretch:normal;font-size:7.05555534px;line-height:1.25;font-family:'Courier 10 Pitch';-inkscape-font-specification:'Courier 10 Pitch Bold';text-align:center;letter-spacing:0px;word-spacing:0px;text-anchor:middle;fill:#000000;fill-opacity:1;stroke:none;stroke-width:0.26458332"
       id="text5515-9-2">
      <path
         d="m 13.21861,234.45835 c -0.15875,-0.0882 -0.324556,-0.13405 -0.508,-0.13405 -0.532695,0 -0.910167,0.36688 -0.910167,0.83961 0,0.47625 0.366889,0.83608 0.938389,0.83608 0.479778,0 0.832556,-0.21519 0.832556,-0.41628 0,-0.1023 -0.06703,-0.17286 -0.151695,-0.17286 -0.141111,0 -0.296333,0.22578 -0.649111,0.22578 -0.306917,0 -0.490361,-0.19756 -0.490361,-0.47625 0,-0.26811 0.186972,-0.4692 0.458611,-0.4692 0.218722,0 0.363361,0.0741 0.455083,0.22931 0.05645,0.0952 0.105834,0.14111 0.197556,0.14111 0.123472,0 0.172861,-0.067 0.172861,-0.20461 v -0.28222 c 0,-0.16934 -0.03528,-0.254 -0.169333,-0.254 -0.0882,0 -0.144639,0.0459 -0.176389,0.13758 z"
         style="font-size:3.52777767px;stroke-width:0.26458332"
         id="path908" />
      <path
         d="m 15.055039,235.83066 0.511527,-1.08656 c 0.01058,0 0.01764,0 0.02822,0 0.123472,0 0.1905,-0.067 0.1905,-0.1905 0,-0.14464 -0.07408,-0.18697 -0.218723,-0.18697 h -0.405694 c -0.144639,0 -0.218722,0.0423 -0.218722,0.18697 0,0.12347 0.06703,0.1905 0.1905,0.1905 0.01058,0 0.01764,0 0.02822,0 l -0.324556,0.73378 -0.310444,-0.73378 c 0.01058,0 0.01764,0 0.02822,0 0.123472,0 0.1905,-0.067 0.1905,-0.1905 0,-0.14464 -0.07408,-0.18697 -0.218722,-0.18697 h -0.437444 c -0.144639,0 -0.218723,0.0423 -0.218723,0.18697 0,0.12347 0.06703,0.1905 0.1905,0.1905 0.01058,0 0.01764,0 0.02822,0 l 0.479777,1.08656 c 0.04586,0.10583 0.05645,0.16933 0.243417,0.16933 0.15875,0 0.183444,-0.0423 0.243417,-0.16933 z"
         style="font-size:3.52777767px;stroke-width:0.26458332"
         id="path910" />
    </g>
    <path
       style="fill:none;stroke:#000000;stroke-width:0.23475629px;stroke-linecap:butt;stroke-linejoin:miter;stroke-opacity:1"
       d="m 16.80181,260.95226 h 16.217"
       id="path5593-19"
       inkscape:connector-curvature="0" />
    <g
       aria-label="cv"
       style="font-style:normal;font-variant:normal;font-weight:bold;font-stretch:normal;font-size:7.05555534px;line-height:1.25;font-family:'Courier 10 Pitch';-inkscape-font-specification:'Courier 10 Pitch Bold';text-align:center;letter-spacing:0px;word-spacing:0px;text-anchor:middle;fill:#000000;fill-opacity:1;stroke:none;stroke-width:0.26458332"
       id="text5515-9-4">
      <path
         d="m 13.21861,254.45835 c -0.15875,-0.0882 -0.324556,-0.13405 -0.508,-0.13405 -0.532695,0 -0.910167,0.36688 -0.910167,0.83961 0,0.47625 0.366889,0.83608 0.938389,0.83608 0.479778,0 0.832556,-0.21519 0.832556,-0.41628 0,-0.1023 -0.06703,-0.17286 -0.151695,-0.17286 -0.141111,0 -0.296333,0.22578 -0.649111,0.22578 -0.306917,0 -0.490361,-0.19756 -0.490361,-0.47625 0,-0.26811 0.186972,-0.4692 0.458611,-0.4692 0.218722,0 0.363361,0.0741 0.455083,0.22931 0.05645,0.0952 0.105834,0.14111 0.197556,0.14111 0.123472,0 0.172861,-0.067 0.172861,-0.20461 v -0.28222 c 0,-0.16934 -0.03528,-0.254 -0.169333,-0.254 -0.0882,0 -0.144639,0.0459 -0.176389,0.13758 z"
         style="font-size:3.52777767px;stroke-width:0.26458332"
         id="path913" />
      <path
         d="m 15.055039,255.83066 0.511527,-1.08656 c 0.01058,0 0.01764,0 0.02822,0 0.123472,0 0.1905,-0.067 0.1905,-0.1905 0,-0.14464 -0.07408,-0.18697 -0.218723,-0.18697 h -0.405694 c -0.144639,0 -0.218722,0.0423 -0.218722,0.18697 0,0.12347 0.06703,0.1905 0.1905,0.1905 0.01058,0 0.01764,0 0.02822,0 l -0.324556,0.73378 -0.310444,-0.73378 c 0.01058,0 0.01764,0 0.02822,0 0.123472,0 0.1905,-0.067 0.1905,-0.1905 0,-0.14464 -0.07408,-0.18697 -0.218722,-0.18697 h -0.437444 c -0.144639,0 -0.218723,0.0423 -0.218723,0.18697 0,0.12347 0.06703,0.1905 0.1905,0.1905 0.01058,0 0.01764,0 0.02822,0 l 0.479777,1.08656 c 0.04586,0.10583 0.05645,0.16933 0.243417,0.16933 0.15875,0 0.183444,-0.0423 0.243417,-0.16933 z"
         style="font-size:3.52777767px;stroke-width:0.26458332"
         id="path915" />
    </g>
    <g
       aria-label="drive"
       style="font-style:normal;font-variant:normal;font-weight:bold;font-stretch:normal;font-size:7.05555534px;line-height:1.25;font-family:'Courier 10 Pitch';-inkscape-font-specification:'Courier 10 Pitch Bold';text-align:center;letter-spacing:0px;word-spacing:0px;text-anchor:middle;fill:#000000;fill-opacity:1;stroke:none;stroke-width:0.26458332"
       id="text5515-7">
      <path
         d="m 32.836562,253.08442 h 0.229305 v 0.43745 c -0.127,-0.10231 -0.292805,-0.15875 -0.472722,-0.15875 -0.448028,0 -0.79375,0.36336 -0.79375,0.83255 0,0.46567 0.34925,0.80434 0.79375,0.80434 0.22225,0 0.398639,-0.0847 0.515056,-0.23637 v 0.11995 c 0,0.0459 0.03528,0.0741 0.102305,0.0741 h 0.264584 c 0.144638,0 0.215194,-0.0459 0.215194,-0.1905 0,-0.12347 -0.0635,-0.18697 -0.186972,-0.18697 -0.0071,0 -0.01764,0 -0.02822,0 v -1.76389 c 0,-0.0847 -0.02117,-0.11289 -0.102306,-0.11289 h -0.536222 c -0.144639,0 -0.218722,0.0459 -0.218722,0.1905 0,0.14464 0.07408,0.1905 0.218722,0.1905 z m -0.169334,1.5487 c -0.225777,0 -0.391583,-0.18698 -0.391583,-0.45156 0,-0.26458 0.169333,-0.44803 0.391583,-0.44803 0.22225,0 0.391584,0.18345 0.391584,0.44803 0,0.26458 -0.165806,0.45156 -0.391584,0.45156 z"
         style="font-size:3.52777767px;stroke-width:0.26458332"
         id="path918" />
      <path
         d="m 34.785879,254.5802 v -0.55739 c 0.197556,-0.20108 0.34925,-0.30339 0.458612,-0.30339 0.09525,0 0.1905,0.11289 0.331611,0.11289 0.141111,0 0.243416,-0.0952 0.243416,-0.2293 0,-0.16581 -0.134055,-0.28223 -0.366889,-0.28223 -0.271638,0 -0.469194,0.12348 -0.702027,0.37395 v -0.254 c 0,-0.0459 -0.03528,-0.0741 -0.09878,-0.0741 h -0.366889 c -0.144639,0 -0.215194,0.0423 -0.215194,0.18698 0,0.14464 0.07055,0.1905 0.215194,0.1905 h 0.07408 v 0.83608 h -0.130527 c -0.144639,0 -0.218723,0.0423 -0.218723,0.18697 0,0.14464 0.07408,0.1905 0.218723,0.1905 h 0.963083 c 0.144639,0 0.215194,-0.0459 0.215194,-0.1905 0,-0.14464 -0.07055,-0.18697 -0.215194,-0.18697 z"
         style="font-size:3.52777767px;stroke-width:0.26458332"
         id="path920" />
      <path
         d="m 36.763419,252.91862 c 0,0.17639 0.03881,0.20814 0.211667,0.20814 0.194028,0 0.211667,-0.0388 0.211667,-0.26106 0,-0.21519 -0.01764,-0.27869 -0.208139,-0.27869 -0.183445,0 -0.215195,0.0564 -0.215195,0.33161 z m 0.363361,0.44802 h -0.518583 c -0.144639,0 -0.215194,0.0423 -0.215194,0.18698 0,0.14464 0.07055,0.1905 0.215194,0.1905 h 0.194028 v 0.83608 h -0.370417 c -0.144639,0 -0.218722,0.0423 -0.218722,0.18697 0,0.14464 0.07408,0.1905 0.218722,0.1905 h 1.164167 c 0.144639,0 0.218722,-0.0459 0.218722,-0.1905 0,-0.14464 -0.07408,-0.18697 -0.218722,-0.18697 h -0.370417 v -1.13947 c 0,-0.0459 -0.03528,-0.0741 -0.09878,-0.0741 z"
         style="font-size:3.52777767px;stroke-width:0.26458332"
         id="path922" />
      <path
         d="m 39.333626,254.83067 0.511527,-1.08655 c 0.01058,0 0.01764,0 0.02822,0 0.123472,0 0.1905,-0.067 0.1905,-0.1905 0,-0.14464 -0.07408,-0.18698 -0.218723,-0.18698 h -0.405694 c -0.144639,0 -0.218722,0.0423 -0.218722,0.18698 0,0.12347 0.06703,0.1905 0.1905,0.1905 0.01058,0 0.01764,0 0.02822,0 l -0.324556,0.73377 -0.310444,-0.73377 c 0.01058,0 0.01764,0 0.02822,0 0.123473,0 0.1905,-0.067 0.1905,-0.1905 0,-0.14464 -0.07408,-0.18698 -0.218722,-0.18698 h -0.437444 c -0.144639,0 -0.218723,0.0423 -0.218723,0.18698 0,0.12347 0.06703,0.1905 0.1905,0.1905 0.01058,0 0.01764,0 0.02822,0 l 0.479777,1.08655 c 0.04586,0.10584 0.05644,0.16934 0.243417,0.16934 0.15875,0 0.183444,-0.0423 0.243417,-0.16934 z"
         style="font-size:3.52777767px;stroke-width:0.26458332"
         id="path924" />
      <path
         d="m 40.760833,254.2627 h 1.11125 c 0.179916,0 0.250472,-0.0247 0.250472,-0.17639 0,-0.40217 -0.338667,-0.75847 -0.860778,-0.75847 -0.5715,0 -0.938389,0.35983 -0.938389,0.83608 0,0.47625 0.370417,0.83609 0.938389,0.83609 0.504472,0 0.832556,-0.19756 0.832556,-0.39512 0,-0.1023 -0.0635,-0.16933 -0.155223,-0.16933 -0.127,0 -0.292805,0.20814 -0.663222,0.20814 -0.28575,0 -0.455083,-0.12347 -0.515055,-0.381 z m 0,-0.26811 c 0.05997,-0.22578 0.211666,-0.33514 0.462138,-0.33514 0.257528,0 0.426862,0.11994 0.465667,0.33514 z"
         style="font-size:3.52777767px;stroke-width:0.26458332"
         id="path926" />
    </g>
    <g
       aria-label="res"
       style="font-style:normal;font-variant:normal;font-weight:bold;font-stretch:normal;font-size:7.05555534px;line-height:1.25;font-family:'Courier 10 Pitch';-inkscape-font-specification:'Courier 10 Pitch Bold';text-align:center;letter-spacing:0px;word-spacing:0px;text-anchor:middle;fill:#000000;fill-opacity:1;stroke:none;stroke-width:0.26458332"
       id="text5515-6">
      <path
         d="m 34.785879,234.5802 v -0.55739 c 0.197556,-0.20108 0.34925,-0.30339 0.458612,-0.30339 0.09525,0 0.1905,0.11289 0.331611,0.11289 0.141111,0 0.243416,-0.0952 0.243416,-0.2293 0,-0.16581 -0.134055,-0.28223 -0.366889,-0.28223 -0.271638,0 -0.469194,0.12348 -0.702027,0.37395 v -0.254 c 0,-0.0459 -0.03528,-0.0741 -0.09878,-0.0741 h -0.366889 c -0.144639,0 -0.215194,0.0423 -0.215194,0.18698 0,0.14464 0.07055,0.1905 0.215194,0.1905 h 0.07408 v 0.83608 h -0.130527 c -0.144639,0 -0.218723,0.0423 -0.218723,0.18697 0,0.14464 0.07408,0.1905 0.218723,0.1905 h 0.963083 c 0.144639,0 0.215194,-0.0459 0.215194,-0.1905 0,-0.14464 -0.07055,-0.18697 -0.215194,-0.18697 z"
         style="font-size:3.52777767px;stroke-width:0.26458332"
         id="path901" />
      <path
         d="m 36.516475,234.2627 h 1.11125 c 0.179917,0 0.250472,-0.0247 0.250472,-0.17639 0,-0.40217 -0.338667,-0.75847 -0.860778,-0.75847 -0.5715,0 -0.938389,0.35983 -0.938389,0.83608 0,0.47625 0.370417,0.83609 0.938389,0.83609 0.504473,0 0.832556,-0.19756 0.832556,-0.39512 0,-0.1023 -0.0635,-0.16933 -0.155222,-0.16933 -0.127,0 -0.292806,0.20814 -0.663223,0.20814 -0.28575,0 -0.455083,-0.12347 -0.515055,-0.381 z m 0,-0.26811 c 0.05997,-0.22578 0.211667,-0.33514 0.462139,-0.33514 0.257528,0 0.426861,0.11994 0.465666,0.33514 z"
         style="font-size:3.52777767px;stroke-width:0.26458332"
         id="path903" />
      <path
         d="m 38.652765,234.93651 c 0.165805,0.0459 0.331611,0.0635 0.511528,0.0635 0.483305,0 0.740833,-0.20462 0.740833,-0.53975 0,-0.33867 -0.243417,-0.44098 -0.684389,-0.50448 -0.310444,-0.0459 -0.451556,-0.0318 -0.451556,-0.17991 0,-0.0988 0.09525,-0.16581 0.282223,-0.16581 0.310444,0 0.409222,0.24695 0.582083,0.24695 0.09172,0 0.148167,-0.0565 0.148167,-0.15523 v -0.21166 c 0,-0.11642 -0.04586,-0.17639 -0.141111,-0.17639 -0.06703,0 -0.123473,0.0282 -0.169334,0.0847 -0.162278,-0.0494 -0.3175,-0.0741 -0.472722,-0.0741 -0.437444,0 -0.677333,0.18697 -0.677333,0.508 0,0.27517 0.194027,0.43039 0.592666,0.48683 0.373945,0.0529 0.536223,0.0529 0.536223,0.2152 0,0.0917 -0.09172,0.17286 -0.271639,0.17286 -0.1905,0 -0.335139,-0.0494 -0.451556,-0.15169 -0.08467,-0.0776 -0.08114,-0.17639 -0.229305,-0.17639 -0.123473,0 -0.169334,0.0564 -0.169334,0.20814 v 0.23283 c 0,0.11994 0.0247,0.18697 0.137584,0.18697 0.0635,0 0.123472,-0.0247 0.186972,-0.0705 z"
         style="font-size:3.52777767px;stroke-width:0.26458332"
         id="path905" />
    </g>
    <g
       aria-label="cv"
       style="font-style:normal;font-variant:normal;font-weight:bold;font-stretch:normal;font-size:7.05555534px;line-height:1.25;font-family:'Courier 10 Pitch';-inkscape-font-specification:'Courier 10 Pitch Bold';text-align:center;letter-spacing:0px;word-spacing:0px;text-anchor:middle;fill:#000000;fill-opacity:1;stroke:none;stroke-width:0.26458332"
       id="text5515-9">
      <path
         d="m 13.21861,214.45835 c -0.15875,-0.0882 -0.324556,-0.13405 -0.508,-0.13405 -0.532695,0 -0.910167,0.36688 -0.910167,0.83961 0,0.47625 0.366889,0.83608 0.938389,0.83608 0.479778,0 0.832556,-0.21519 0.832556,-0.41628 0,-0.1023 -0.06703,-0.17286 -0.151695,-0.17286 -0.141111,0 -0.296333,0.22578 -0.649111,0.22578 -0.306917,0 -0.490361,-0.19756 -0.490361,-0.47625 0,-0.26811 0.186972,-0.4692 0.458611,-0.4692 0.218722,0 0.363361,0.0741 0.455083,0.22931 0.05645,0.0952 0.105834,0.14111 0.197556,0.14111 0.123472,0 0.172861,-0.067 0.172861,-0.20461 v -0.28222 c 0,-0.16934 -0.03528,-0.254 -0.169333,-0.254 -0.0882,0 -0.144639,0.0459 -0.176389,0.13758 z"
         style="font-size:3.52777767px;stroke-width:0.26458332"
         id="path896" />
      <path
         d="m 15.055039,215.83066 0.511527,-1.08656 c 0.01058,0 0.01764,0 0.02822,0 0.123472,0 0.1905,-0.067 0.1905,-0.1905 0,-0.14464 -0.07408,-0.18697 -0.218723,-0.18697 h -0.405694 c -0.144639,0 -0.218722,0.0423 -0.218722,0.18697 0,0.12347 0.06703,0.1905 0.1905,0.1905 0.01058,0 0.01764,0 0.02822,0 l -0.324556,0.73378 -0.310444,-0.73378 c 0.01058,0 0.01764,0 0.02822,0 0.123472,0 0.1905,-0.067 0.1905,-0.1905 0,-0.14464 -0.07408,-0.18697 -0.218722,-0.18697 h -0.437444 c -0.144639,0 -0.218723,0.0423 -0.218723,0.18697 0,0.12347 0.06703,0.1905 0.1905,0.1905 0.01058,0 0.01764,0 0.02822,0 l 0.479777,1.08656 c 0.04586,0.10583 0.05645,0.16933 0.243417,0.16933 0.15875,0 0.183444,-0.0423 0.243417,-0.16933 z"
         style="font-size:3.52777767px;stroke-width:0.26458332"
         id="path898" />
    </g>
    <g
       aria-label="hard"
       transform="matrix(0.26458333,0,0,0.26458333,8.802316,176.22436)"
       style="font-style:normal;font-variant:normal;font-weight:bold;font-stretch:normal;font-size:21.33333397px;line-height:1.25;font-family:'Courier 10 Pitch';-inkscape-font-specification:'Courier 10 Pitch Bold';text-align:center;letter-spacing:0px;word-spacing:0px;text-anchor:middle;fill:#000000;fill-opacity:1;stroke:none"
       id="flowRoot6061-6-0" />
    <flowRoot
       xml:space="preserve"
       id="flowRoot6670"
       style="font-style:normal;font-variant:normal;font-weight:bold;font-stretch:normal;font-size:26.66666603px;line-height:1.25;font-family:'Courier 10 Pitch';-inkscape-font-specification:'Courier 10 Pitch Bold';text-align:center;letter-spacing:0px;word-spacing:0px;text-anchor:middle;fill:#000000;fill-opacity:1;stroke:none"
       transform="matrix(0.26458333,0,0,0.26458333,-3.2072343,166.89638)"><flowRegion
         id="flowRegion6672"><rect
           id="rect6674"
           width="66.670067"
           height="30.304577"
           x="120.20815"
           y="47.263077" /></flowRegion><flowPara
         style="font-style:normal;font-variant:normal;font-weight:normal;font-stretch:normal;font-size:14.66666698px;font-family:'Courier 10 Pitch';-inkscape-font-specification:'Courier 10 Pitch'"
         id="flowPara6678">highpass passssss</flowPara></flowRoot>    <g
       aria-label="hp"
       transform="matrix(0.26458333,0,0,0.26458333,-10.298553,153.09668)"
       style="font-style:normal;font-variant:normal;font-weight:bold;font-stretch:normal;font-size:26.66666603px;line-height:1.25;font-family:'Courier 10 Pitch';-inkscape-font-specification:'Courier 10 Pitch Bold';text-align:center;letter-spacing:0px;word-spacing:0px;text-anchor:middle;fill:#000000;fill-opacity:1;stroke:none"
       id="flowRoot6682">
      <path
         d="m 170.82139,145.14593 c -0.0533,0 -0.0933,0 -0.13333,0 -0.53333,0 -0.76,0.08 -0.76,0.45333 0,0.30667 0.17333,0.46667 0.52,0.46667 h 1.73333 c 0.38667,0 0.52,-0.0933 0.52,-0.46667 0,-0.36 -0.17333,-0.46666 -0.62666,-0.46666 -0.08,0 -0.17334,0.0133 -0.28,0.0133 v -2.70667 c 0,-0.97333 0.90666,-1.56 1.69333,-1.56 0.85333,0 1.37333,0.52 1.37333,1.56 v 2.70667 c -0.12,0 -0.18666,0 -0.25333,0 -0.46667,0 -0.64,0.0933 -0.64,0.45333 0,0.37334 0.13333,0.46667 0.52,0.46667 h 1.73333 c 0.34667,0 0.52,-0.16 0.52,-0.46667 0,-0.33333 -0.2,-0.45333 -0.61333,-0.45333 -0.0933,0 -0.18667,0 -0.28,0 v -2.94667 c 0,-1.50666 -0.89333,-2.32 -2.13333,-2.32 -0.68,0 -1.28,0.29334 -1.90667,0.88 v -2.94666 c 0,-0.16 -0.12,-0.26667 -0.37333,-0.26667 h -0.98667 c -0.34667,0 -0.52,0.16 -0.52,0.46667 0,0.33333 0.18667,0.45333 0.6,0.45333 0.0933,0 0.2,0.0133 0.29333,0.0133 z"
         style="font-style:normal;font-variant:normal;font-weight:normal;font-stretch:normal;font-size:13.33333397px;font-family:'Courier 10 Pitch';-inkscape-font-specification:'Courier 10 Pitch'"
         id="path886" />
      <path
         d="m 181.62889,145.11926 c -1.21333,0 -2.05333,-0.86666 -2.05333,-2.04 0,-1.17333 0.84,-2.04 2.05333,-2.04 1.22667,0 2.06667,0.86667 2.06667,2.04 0,1.21334 -0.86667,2.04 -2.06667,2.04 z m -2.02666,2.61334 v -2.6 c 0.53333,0.61333 1.33333,0.94666 2.25333,0.94666 1.70667,0 2.96,-1.2 2.96,-2.93333 0,-1.82667 -1.36,-3.10667 -3.06667,-3.10667 -0.82666,0 -1.54666,0.30667 -2.13333,0.90667 v -0.62667 c 0,-0.18666 -0.12,-0.26666 -0.37333,-0.26666 h -1 c -0.34667,0 -0.52,0.14666 -0.52,0.45333 0,0.33333 0.2,0.46667 0.61333,0.46667 0.0933,0 0.2,0 0.29333,0 v 6.76 c -0.04,0 -0.08,0 -0.12,0 -0.54666,0 -0.78666,0.0933 -0.78666,0.46666 0,0.30667 0.17333,0.46667 0.52,0.46667 h 2.88 c 0.38666,0 0.54666,-0.10667 0.54666,-0.46667 0,-0.30666 -0.16,-0.46666 -0.49333,-0.46666 z"
         style="font-style:normal;font-variant:normal;font-weight:normal;font-stretch:normal;font-size:13.33333397px;font-family:'Courier 10 Pitch';-inkscape-font-specification:'Courier 10 Pitch'"
         id="path888" />
    </g>
    <g
       aria-label="lp "
       transform="matrix(0.26458333,0,0,0.26458333,-10.298053,165.59668)"
       style="font-style:normal;font-variant:normal;font-weight:bold;font-stretch:normal;font-size:26.66666603px;line-height:1.25;font-family:'Courier 10 Pitch';-inkscape-font-specification:'Courier 10 Pitch Bold';text-align:center;letter-spacing:0px;word-spacing:0px;text-anchor:middle;fill:#000000;fill-opacity:1;stroke:none"
       id="flowRoot6682-5">
      <path
         d="m 172.83473,138.47926 v 6.66667 h -1.8 c -0.36,0 -0.54667,0.14667 -0.54667,0.45333 0,0.30667 0.17333,0.46667 0.52,0.46667 h 4.8 c 0.38667,0 0.53333,-0.0933 0.53333,-0.46667 0,-0.32 -0.16,-0.45333 -0.49333,-0.45333 h -2.02667 v -7.33333 c 0,-0.16 -0.12,-0.26667 -0.37333,-0.26667 h -2.14667 c -0.34666,0 -0.52,0.16 -0.52,0.46667 0,0.33333 0.18667,0.45333 0.61334,0.45333 0.0667,0 0.18666,0.0133 0.33333,0.0133 z"
         style="font-style:normal;font-variant:normal;font-weight:normal;font-stretch:normal;font-size:13.33333397px;font-family:'Courier 10 Pitch';-inkscape-font-specification:'Courier 10 Pitch'"
         id="path891" />
      <path
         d="m 181.62889,145.11926 c -1.21333,0 -2.05333,-0.86666 -2.05333,-2.04 0,-1.17333 0.84,-2.04 2.05333,-2.04 1.22667,0 2.06667,0.86667 2.06667,2.04 0,1.21334 -0.86667,2.04 -2.06667,2.04 z m -2.02666,2.61334 v -2.6 c 0.53333,0.61333 1.33333,0.94666 2.25333,0.94666 1.70667,0 2.96,-1.2 2.96,-2.93333 0,-1.82667 -1.36,-3.10667 -3.06667,-3.10667 -0.82666,0 -1.54666,0.30667 -2.13333,0.90667 v -0.62667 c 0,-0.18666 -0.12,-0.26666 -0.37333,-0.26666 h -1 c -0.34667,0 -0.52,0.14666 -0.52,0.45333 0,0.33333 0.2,0.46667 0.61333,0.46667 0.0933,0 0.2,0 0.29333,0 v 6.76 c -0.04,0 -0.08,0 -0.12,0 -0.54666,0 -0.78666,0.0933 -0.78666,0.46666 0,0.30667 0.17333,0.46667 0.52,0.46667 h 2.88 c 0.38666,0 0.54666,-0.10667 0.54666,-0.46667 0,-0.30666 -0.16,-0.46666 -0.49333,-0.46666 z"
         style="font-style:normal;font-variant:normal;font-weight:normal;font-stretch:normal;font-size:13.33333397px;font-family:'Courier 10 Pitch';-inkscape-font-specification:'Courier 10 Pitch'"
         id="path893" />
    </g>
    <g
       aria-label="freq"
       transform="matrix(0.26458333,0,0,0.26458333,1.0431413,172.10418)"
       style="font-style:normal;font-variant:normal;font-weight:bold;font-stretch:normal;font-size:26.66666603px;line-height:1.25;font-family:'Courier 10 Pitch';-inkscape-font-specification:'Courier 10 Pitch Bold';text-align:center;letter-spacing:0px;word-spacing:0px;text-anchor:middle;fill:#000000;fill-opacity:1;stroke:none"
       id="flowRoot6716">
      <path
         d="m 43.23575,70.074993 v 3.568 h -0.848 c -0.656,0 -0.976,0.192 -0.976,0.848 0,0.656 0.32,0.864 0.976,0.864 h 4.32 c 0.656,0 0.992,-0.208 0.992,-0.864 0,-0.656 -0.336,-0.848 -0.992,-0.848 h -1.552 v -3.568 h 1.68 c 0.656,0 0.992,-0.208 0.992,-0.864 0,-0.656 -0.336,-0.848 -0.992,-0.848 h -1.68 c 0,-0.096 0,-0.176 0,-0.256 0,-1.056 0.304,-1.472 1.312,-1.472 0.4,0 0.864,0.144 1.376,0.144 0.512,0 0.784,-0.304 0.784,-0.72 0,-0.688 -0.624,-0.96 -1.92,-0.96 -2.48,0 -3.488,0.736 -3.488,2.816 0,0.144 0,0.288 0.016,0.448 h -0.848 c -0.656,0 -0.976,0.192 -0.976,0.848 0,0.656 0.32,0.864 0.976,0.864 z"
         style="font-size:16px"
         id="path877" />
      <path
         d="m 53.93275,73.642993 v -2.528 c 0.896,-0.912 1.584,-1.376 2.08,-1.376 0.432,0 0.864,0.512 1.504,0.512 0.64,0 1.104,-0.432 1.104,-1.04 0,-0.752 -0.608,-1.28 -1.664,-1.28 -1.232,0 -2.128,0.56 -3.184,1.696 v -1.152 c 0,-0.208 -0.16,-0.336 -0.448,-0.336 h -1.664 c -0.656,0 -0.976,0.192 -0.976,0.848 0,0.656 0.32,0.864 0.976,0.864 h 0.336 v 3.792 h -0.592 c -0.656,0 -0.992,0.192 -0.992,0.848 0,0.656 0.336,0.864 0.992,0.864 h 4.368 c 0.656,0 0.976,-0.208 0.976,-0.864 0,-0.656 -0.32,-0.848 -0.976,-0.848 z"
         style="font-size:16px"
         id="path879" />
      <path
         d="m 61.78175,72.202993 h 5.04 c 0.816,0 1.136,-0.112 1.136,-0.8 0,-1.824 -1.536,-3.44 -3.904,-3.44 -2.592,0 -4.256,1.632 -4.256,3.792 0,2.16 1.68,3.792 4.256,3.792 2.288,0 3.776,-0.896 3.776,-1.792 0,-0.464 -0.288,-0.768 -0.704,-0.768 -0.576,0 -1.328,0.944 -3.008,0.944 -1.296,0 -2.064,-0.56 -2.336,-1.728 z m 0,-1.216 c 0.272,-1.024 0.96,-1.52 2.096,-1.52 1.168,0 1.936,0.544 2.112,1.52 z"
         style="font-size:16px"
         id="path881" />
      <path
         d="m 74.01475,76.746993 c -0.656,0 -0.992,0.208 -0.992,0.864 0,0.656 0.336,0.848 0.992,0.848 h 3.296 c 0.656,0 0.992,-0.192 0.992,-0.848 0,-0.656 -0.336,-0.864 -0.992,-0.864 h -0.448 v -6.896 c 0.048,0 0.08,0 0.128,0 0.56,0 0.848,-0.304 0.848,-0.864 0,-0.656 -0.32,-0.848 -0.976,-0.848 h -1.2 c -0.304,0 -0.448,0.112 -0.448,0.32 v 0.56 c -0.528,-0.704 -1.296,-1.072 -2.24,-1.072 -2.16,0 -3.712,1.552 -3.712,3.6 0,2.192 1.552,3.76 3.6,3.76 0.832,0 1.6,-0.24 2.144,-0.688 v 2.128 z m -0.816,-3.072 c -1.008,0 -1.776,-0.832 -1.776,-2.032 0,-1.2 0.752,-2.032 1.776,-2.032 1.024,0 1.776,0.832 1.776,2.032 0,1.2 -0.752,2.032 -1.776,2.032 z"
         style="font-size:16px"
         id="path883" />
    </g>
    <rect
       style="fill:#060000;fill-opacity:1;stroke:none;stroke-width:0.39132401;stroke-opacity:1"
       id="rect5240-9-7-2"
       width="10"
       height="14"
       x="32"
       y="276"
       rx="1.2500008" />
    <g
       aria-label="out"
       transform="matrix(0.26458333,0,0,0.26458333,12.371491,177.86739)"
       style="font-style:normal;font-variant:normal;font-weight:bold;font-stretch:normal;font-size:26.66666603px;line-height:1.25;font-family:'Courier 10 Pitch';-inkscape-font-specification:'Courier 10 Pitch Bold';text-align:center;letter-spacing:0px;word-spacing:0px;text-anchor:middle;fill:#ffffff;fill-opacity:1;stroke:none"
       id="flowRoot1686-9">
      <path
         d="m 88.742617,382.85304 c 0,-1.8 -1.386667,-3.16 -3.546667,-3.16 -2.16,0 -3.56,1.36 -3.56,3.16 0,1.8 1.4,3.16 3.56,3.16 2.16,0 3.546667,-1.36 3.546667,-3.16 z m -3.546667,1.78667 c -1.013333,0 -1.746667,-0.76 -1.746667,-1.8 0,-1.02667 0.72,-1.77334 1.746667,-1.77334 1.04,0 1.733334,0.74667 1.733334,1.77334 0,1.02666 -0.706667,1.8 -1.733334,1.8 z"
         style="font-size:13.33333397px;fill:#ffffff;fill-opacity:1"
         id="path934" />
      <path
         d="m 95.843451,384.42637 v -4.30666 c 0,-0.17334 -0.133333,-0.28 -0.373333,-0.28 h -1.226667 c -0.546667,0 -0.826667,0.16 -0.826667,0.70666 0,0.46667 0.253333,0.72 0.72,0.72 0.04,0 0.06667,0 0.106667,0 v 1.88 c 0,0.92 -0.546667,1.45334 -1.226667,1.45334 -0.746667,0 -0.96,-0.50667 -0.96,-1.45334 v -3.02666 c 0,-0.17334 -0.12,-0.28 -0.36,-0.28 h -1.226667 c -0.546666,0 -0.826666,0.16 -0.826666,0.70666 0,0.46667 0.24,0.72 0.706666,0.72 0.04,0 0.06667,0 0.106667,0 v 2.17334 c 0,1.70666 0.666667,2.56 2.08,2.56 0.826667,0 1.413333,-0.30667 1.826667,-0.93334 v 0.49334 c 0,0.17333 0.133333,0.29333 0.386667,0.29333 h 1.093333 c 0.546667,0 0.813333,-0.17333 0.813333,-0.72 0,-0.46667 -0.24,-0.70667 -0.706666,-0.70667 -0.02667,0 -0.06667,0 -0.106667,0 z"
         style="font-size:13.33333397px;fill:#ffffff;fill-opacity:1"
         id="path936" />
      <path
         d="m 98.570951,381.62637 h 0.613334 v 1.66667 c 0,0.0533 0,0.10667 0,0.14667 0,0.78666 0.01333,1.38666 0.4,1.84 0.373333,0.44 1.053335,0.70666 1.973335,0.70666 1.61333,0 2.97333,-0.72 2.97333,-1.30666 0,-0.45334 -0.30667,-0.74667 -0.65333,-0.74667 -0.56,0 -1.2,0.58667 -2.12,0.58667 -0.77334,0 -0.97334,-0.37334 -0.97334,-1.22667 v -1.66667 h 1.98667 c 0.54667,0 0.82667,-0.17333 0.82667,-0.72 0,-0.54666 -0.28,-0.70666 -0.82667,-0.70666 h -1.98667 v -1.52 c 0,-0.56 -0.2,-0.81334 -0.813329,-0.81334 -0.506666,0 -0.786666,0.28 -0.786666,0.54667 0,0.0267 0,0.10667 0,0.26667 v 1.52 h -0.613334 c -0.546666,0 -0.813333,0.16 -0.813333,0.70666 0,0.54667 0.266667,0.72 0.813333,0.72 z"
         style="font-size:13.33333397px;fill:#ffffff;fill-opacity:1"
         id="path938" />
    </g>
    <g
       aria-label="in"
       transform="matrix(0.26458333,0,0,0.26458333,-10.826511,177.85656)"
       style="font-style:normal;font-variant:normal;font-weight:bold;font-stretch:normal;font-size:26.66666603px;line-height:1.25;font-family:'Courier 10 Pitch';-inkscape-font-specification:'Courier 10 Pitch Bold';text-align:center;letter-spacing:0px;word-spacing:0px;text-anchor:middle;fill:#ffffff;fill-opacity:1;stroke:none"
       id="flowRoot1686-6-0">
      <path
         d="m 88.366367,378.14637 c 0,0.66667 0.146667,0.78667 0.8,0.78667 0.733333,0 0.8,-0.14667 0.8,-0.98667 0,-0.81333 -0.06667,-1.05333 -0.786667,-1.05333 -0.693333,0 -0.813333,0.21333 -0.813333,1.25333 z m 1.373333,1.69334 h -1.96 c -0.546666,0 -0.813333,0.16 -0.813333,0.70666 0,0.54667 0.266667,0.72 0.813333,0.72 h 0.733334 v 3.16 h -1.4 c -0.546667,0 -0.826667,0.16 -0.826667,0.70667 0,0.54667 0.28,0.72 0.826667,0.72 h 4.4 c 0.546666,0 0.826666,-0.17333 0.826666,-0.72 0,-0.54667 -0.28,-0.70667 -0.826666,-0.70667 h -1.4 v -4.30666 c 0,-0.17334 -0.133334,-0.28 -0.373334,-0.28 z"
         style="font-size:13.33333397px;fill:#000000;fill-opacity:1"
         id="path929" />
      <path
         d="m 99.960534,384.41304 v -2.17333 c 0,-1.70667 -0.653333,-2.56 -2.066666,-2.56 -0.826667,0 -1.426667,0.32 -1.84,0.94666 v -0.50666 c 0,-0.17334 -0.12,-0.28 -0.373334,-0.28 h -1.106666 c -0.546667,0 -0.813334,0.17333 -0.813334,0.72 0,0.46666 0.24,0.70666 0.706667,0.70666 0.02667,0 0.06667,0 0.106667,0 v 3.14667 c -0.02667,0 -0.05333,0 -0.08,0 -0.493334,0 -0.733334,0.24 -0.733334,0.72 0,0.53333 0.253333,0.72 0.813334,0.72 h 1.613333 c 0.56,0 0.813333,-0.18667 0.813333,-0.72 0,-0.48 -0.24,-0.72 -0.733333,-0.72 -0.02667,0 -0.05333,0 -0.08,0 v -1.88 c 0,-0.92 0.546667,-1.44 1.226667,-1.44 0.746666,0 0.946666,0.49333 0.946666,1.44 v 1.88 c -0.02667,0 -0.05333,0 -0.08,0 -0.493333,0 -0.746666,0.24 -0.746666,0.72 0,0.53333 0.266666,0.72 0.826666,0.72 h 1.6 c 0.559996,0 0.813336,-0.18667 0.813336,-0.72 0,-0.48 -0.24,-0.72 -0.73334,-0.72 -0.0267,0 -0.05333,0 -0.08,0 z"
         style="font-size:13.33333397px;fill:#000000;fill-opacity:1"
         id="path931" />
    </g>
  </g>
  <g
     inkscape:groupmode="layer"
     id="layer2"
     inkscape:label="components"
     style="display:none">
    <circle
       style="fill:#ff0000;fill-opacity:1;stroke:none;stroke-width:0.2116601;stroke-opacity:1"
       id="path5458-2"
       cx="37.019306"
       cy="92.5"
       r="4"
       inkscape:label="DRIVE" />
    <circle
       style="fill:#00ff00;fill-opacity:1;stroke:none;stroke-width:0.15874508;stroke-opacity:1"
       id="path5458-36-8"
       cx="13.801808"
       cy="92.5"
       r="3"
       inkscape:label="DRIVE" />
    <circle
       style="fill:#00ff00;fill-opacity:1;stroke:none;stroke-width:0.15874508;stroke-opacity:1"
       id="path5458-36-3"
       cx="13.801808"
       cy="72.5"
       r="3"
       inkscape:label="RESONANCE" />
    <circle
       style="fill:#ff0000;fill-opacity:1;stroke:none;stroke-width:0.2116601;stroke-opacity:1"
       id="path5458-8"
       cx="37.019306"
       cy="72.5"
       r="4"
       inkscape:label="RESONANCE" />
    <circle
       style="fill:#ff0000;fill-opacity:1;stroke:none;stroke-width:0.2116601;stroke-opacity:1"
       id="path5458"
       cx="37.019306"
       cy="52.5"
       r="4"
       inkscape:label="FREQ" />
    <circle
       style="fill:#00ff00;fill-opacity:1;stroke:none;stroke-width:0.15874508;stroke-opacity:1"
       id="path5458-36"
       cx="13.801808"
       cy="52.5"
       r="3"
       inkscape:label="FREQ" />
    <circle
       style="fill:#ff0000;fill-opacity:1;stroke:none;stroke-width:0.2116601;stroke-opacity:1"
       id="path5458-367"
       cx="16.914274"
       cy="32.5"
       r="4"
       inkscape:label="CUTOFF" />
    <rect
       style="display:inline;fill:#ffff00;fill-opacity:1;stroke:none;stroke-width:0.30551454;stroke-opacity:1"
       id="rect5727"
       width="4"
       height="7"
       x="34.633499"
       y="25"
       inkscape:label="TYPE" />
    <circle
       style="fill:#0000ff;fill-opacity:1;stroke:none;stroke-width:0.18149704;stroke-opacity:1"
       id="path5468-2-6"
       cx="37.000004"
       cy="116.5"
       r="3"
       inkscape:label="MAIN" />
    <circle
       style="fill:#00ff00;fill-opacity:1;stroke:none;stroke-width:0.18149704;stroke-opacity:1"
       id="path5468-6-0"
       cx="13.802"
       cy="116.5"
       r="3"
       inkscape:label="MAIN" />
  </g>
</svg>
