<?xml version="1.0" encoding="UTF-8" standalone="no"?>
<!-- Created with Inkscape (http://www.inkscape.org/) -->

<svg
   xmlns:dc="http://purl.org/dc/elements/1.1/"
   xmlns:cc="http://creativecommons.org/ns#"
   xmlns:rdf="http://www.w3.org/1999/02/22-rdf-syntax-ns#"
   xmlns:svg="http://www.w3.org/2000/svg"
   xmlns="http://www.w3.org/2000/svg"
   xmlns:sodipodi="http://sodipodi.sourceforge.net/DTD/sodipodi-0.dtd"
   xmlns:inkscape="http://www.inkscape.org/namespaces/inkscape"
   width="50.799999mm"
   height="128.5mm"
   viewBox="0 0 50.799999 128.5"
   version="1.1"
   id="svg4264"
   inkscape:version="0.92.4 (unknown)"
   sodipodi:docname="VCO.svg">
  <defs
     id="defs4258" />
  <sodipodi:namedview
     id="base"
     pagecolor="#ffffff"
     bordercolor="#666666"
     borderopacity="1.0"
     inkscape:pageopacity="0.00392157"
     inkscape:pageshadow="2"
     inkscape:zoom="2"
     inkscape:cx="83.473904"
     inkscape:cy="325.53149"
     inkscape:document-units="mm"
     inkscape:current-layer="layer4"
     showgrid="false"
     showguides="true"
     inkscape:window-width="1303"
     inkscape:window-height="744"
     inkscape:window-x="63"
     inkscape:window-y="24"
     inkscape:window-maximized="1" />
  <metadata
     id="metadata4261">
    <rdf:RDF>
      <cc:Work
         rdf:about="">
        <dc:format>image/svg+xml</dc:format>
        <dc:type
           rdf:resource="http://purl.org/dc/dcmitype/StillImage" />
        <dc:title></dc:title>
      </cc:Work>
    </rdf:RDF>
  </metadata>
  <g
     inkscape:label="Layer 1"
     inkscape:groupmode="layer"
     id="layer1"
     transform="translate(0,-168.5)">
    <rect
       style="fill:#f0f0f0;fill-opacity:1;stroke:none;stroke-width:0.26458332;stroke-opacity:1"
       id="rect6359"
       width="50.799999"
       height="128.5"
       x="0"
       y="168.5" />
    <rect
       style="fill:#060000;fill-opacity:1;stroke:none;stroke-width:0.39132401;stroke-opacity:1"
       id="rect5240-9"
       width="10"
       height="14"
       x="3"
       y="276"
       rx="1.2500007" />
    <path
       style="fill:none;stroke:#000000;stroke-width:0.30735064px;stroke-linecap:butt;stroke-linejoin:miter;stroke-opacity:1"
       d="m 3.4,254.84632 h 44"
       id="path5573"
       inkscape:connector-curvature="0" />
    <rect
       style="fill:#060000;fill-opacity:1;stroke:none;stroke-width:0.39132401;stroke-opacity:1"
       id="rect5240-9-4"
       width="10"
       height="14"
       x="14.8"
       y="276"
       rx="1.2500008" />
    <rect
       style="fill:#060000;fill-opacity:1;stroke:none;stroke-width:0.39132401;stroke-opacity:1"
       id="rect5240-9-5"
       width="10"
       height="14"
       x="26.6"
       y="276"
       rx="1.2500008" />
    <rect
       style="fill:#060000;fill-opacity:1;stroke:none;stroke-width:0.39132401;stroke-opacity:1"
       id="rect5240-9-7"
       width="10"
       height="14"
       x="38.400002"
       y="276"
       rx="1.2500008" />
    <flowRoot
       xml:space="preserve"
       id="flowRoot5905"
       style="font-style:normal;font-variant:normal;font-weight:bold;font-stretch:normal;font-size:26.66666603px;line-height:1.25;font-family:'Courier 10 Pitch';-inkscape-font-specification:'Courier 10 Pitch Bold';text-align:center;letter-spacing:0px;word-spacing:0px;text-anchor:middle;fill:#000000;fill-opacity:1;stroke:none"
       transform="matrix(0.26458333,0,0,0.26458333,0,168.5)"><flowRegion
         id="flowRegion5907"><rect
           id="rect5909"
           width="80"
           height="31"
           x="32"
           y="323.66928" /></flowRegion><flowPara
         id="flowPara5911"
         style="font-style:normal;font-variant:normal;font-weight:normal;font-stretch:normal;font-size:13.33333397px;font-family:'Courier 10 Pitch';-inkscape-font-specification:'Courier 10 Pitch'" /></flowRoot>    <flowRoot
       xml:space="preserve"
       id="flowRoot5913"
       style="font-style:normal;font-variant:normal;font-weight:bold;font-stretch:normal;font-size:26.66666603px;line-height:1.25;font-family:'Courier 10 Pitch';-inkscape-font-specification:'Courier 10 Pitch Bold';text-align:center;letter-spacing:0px;word-spacing:0px;text-anchor:middle;fill:#000000;fill-opacity:1;stroke:none"
       transform="matrix(0.26458333,0,0,0.26458333,0,168.5)"><flowRegion
         id="flowRegion5915"><rect
           id="rect5917"
           width="82"
           height="29"
           x="34"
           y="314.66928" /></flowRegion><flowPara
         id="flowPara5919">si</flowPara></flowRoot>    <g
       aria-label="sin"
       transform="matrix(0.26458333,0,0,0.26458333,-14.962856,191.89053)"
       style="font-style:normal;font-variant:normal;font-weight:bold;font-stretch:normal;font-size:26.66666603px;line-height:1.25;font-family:'Courier 10 Pitch';-inkscape-font-specification:'Courier 10 Pitch Bold';text-align:center;letter-spacing:0px;word-spacing:0px;text-anchor:middle;fill:#000000;fill-opacity:1;stroke:none"
       id="flowRoot5921">
      <path
         d="m 76.762083,330.63046 c 0.626667,0.17334 1.253333,0.24 1.933333,0.24 1.826667,0 2.8,-0.77333 2.8,-2.04 0,-1.28 -0.92,-1.66666 -2.586666,-1.90666 -1.173334,-0.17334 -1.706667,-0.12 -1.706667,-0.68001 0,-0.37333 0.36,-0.62666 1.066667,-0.62666 1.173333,0 1.546666,0.93333 2.2,0.93333 0.346666,0 0.56,-0.21333 0.56,-0.58667 v -0.8 c 0,-0.44 -0.173334,-0.66666 -0.533334,-0.66666 -0.253333,0 -0.466666,0.10666 -0.64,0.32 -0.613333,-0.18667 -1.2,-0.28 -1.786666,-0.28 -1.653334,0 -2.560001,0.70666 -2.560001,1.92 0,1.04 0.733334,1.62667 2.240001,1.84 1.413333,0.2 2.026666,0.2 2.026666,0.81333 0,0.34667 -0.346666,0.65334 -1.026666,0.65334 -0.72,0 -1.266667,-0.18667 -1.706667,-0.57334 -0.32,-0.29333 -0.306667,-0.66666 -0.866667,-0.66666 -0.466667,0 -0.64,0.21333 -0.64,0.78666 v 0.88 c 0,0.45334 0.09333,0.70667 0.52,0.70667 0.24,0 0.466667,-0.0933 0.706667,-0.26667 z"
         style="font-style:normal;font-variant:normal;font-weight:bold;font-stretch:normal;font-size:13.33333397px;font-family:'Courier 10 Pitch';-inkscape-font-specification:'Courier 10 Pitch Bold';fill:#ffffff;fill-opacity:1"
         id="path6322"
         inkscape:connector-curvature="0" />
      <path
         d="m 85.662917,323.00379 c 0,0.66667 0.146667,0.78667 0.8,0.78667 0.733333,0 0.8,-0.14667 0.8,-0.98667 0,-0.81333 -0.06667,-1.05333 -0.786667,-1.05333 -0.693333,0 -0.813333,0.21333 -0.813333,1.25333 z m 1.373333,1.69334 h -1.96 c -0.546667,0 -0.813333,0.16 -0.813333,0.70666 0,0.54667 0.266666,0.72 0.813333,0.72 h 0.733334 v 3.16001 h -1.400001 c -0.546666,0 -0.826666,0.16 -0.826666,0.70666 0,0.54667 0.28,0.72 0.826666,0.72 h 4.400001 c 0.546666,0 0.826666,-0.17333 0.826666,-0.72 0,-0.54666 -0.28,-0.70666 -0.826666,-0.70666 h -1.4 v -4.30667 c 0,-0.17334 -0.133334,-0.28 -0.373334,-0.28 z"
         style="font-style:normal;font-variant:normal;font-weight:bold;font-stretch:normal;font-size:13.33333397px;font-family:'Courier 10 Pitch';-inkscape-font-specification:'Courier 10 Pitch Bold';fill:#ffffff;fill-opacity:1"
         id="path6324"
         inkscape:connector-curvature="0" />
      <path
         d="m 97.257084,329.27046 v -2.17333 c 0,-1.70667 -0.653333,-2.56 -2.066666,-2.56 -0.826667,0 -1.426667,0.32 -1.840001,0.94666 v -0.50666 c 0,-0.17334 -0.12,-0.28 -0.373333,-0.28 h -1.106667 c -0.546666,0 -0.813333,0.17333 -0.813333,0.72 0,0.46666 0.24,0.70666 0.706667,0.70666 0.02667,0 0.06667,0 0.106666,0 v 3.14667 c -0.02667,0 -0.05333,0 -0.08,0 -0.493333,0 -0.733333,0.24 -0.733333,0.72 0,0.53334 0.253333,0.72 0.813333,0.72 h 1.613334 c 0.56,0 0.813333,-0.18666 0.813333,-0.72 0,-0.48 -0.24,-0.72 -0.733333,-0.72 -0.02667,0 -0.05333,0 -0.08,0 v -1.88 c 0,-0.92 0.546667,-1.44 1.226667,-1.44 0.746666,0 0.946666,0.49333 0.946666,1.44 v 1.88 c -0.02667,0 -0.05333,0 -0.08,0 -0.493333,0 -0.746666,0.24 -0.746666,0.72 0,0.53334 0.266666,0.72 0.826666,0.72 h 1.6 c 0.56,0 0.813334,-0.18666 0.813334,-0.72 0,-0.48 -0.24,-0.72 -0.733334,-0.72 -0.02667,0 -0.05333,0 -0.08,0 z"
         style="font-style:normal;font-variant:normal;font-weight:bold;font-stretch:normal;font-size:13.33333397px;font-family:'Courier 10 Pitch';-inkscape-font-specification:'Courier 10 Pitch Bold';fill:#ffffff;fill-opacity:1"
         id="path6326"
         inkscape:connector-curvature="0" />
    </g>
    <g
       aria-label="tri"
       transform="matrix(0.26458333,0,0,0.26458333,-3.0413008,191.90464)"
       style="font-style:normal;font-variant:normal;font-weight:bold;font-stretch:normal;font-size:26.66666603px;line-height:1.25;font-family:'Courier 10 Pitch';-inkscape-font-specification:'Courier 10 Pitch Bold';text-align:center;letter-spacing:0px;word-spacing:0px;text-anchor:middle;fill:#000000;fill-opacity:1;stroke:none"
       id="flowRoot5921-0">
      <path
         d="m 75.815416,326.48379 h 0.613334 v 1.66667 c 0,0.0533 0,0.10667 0,0.14667 0,0.78667 0.01333,1.38667 0.4,1.84 0.373333,0.44 1.053333,0.70667 1.973333,0.70667 1.613333,0 2.973333,-0.72 2.973333,-1.30667 0,-0.45333 -0.306666,-0.74667 -0.653333,-0.74667 -0.56,0 -1.2,0.58667 -2.12,0.58667 -0.773333,0 -0.973333,-0.37333 -0.973333,-1.22667 v -1.66667 h 1.986666 c 0.546667,0 0.826667,-0.17333 0.826667,-0.72 0,-0.54666 -0.28,-0.70666 -0.826667,-0.70666 H 78.02875 v -1.52 c 0,-0.56 -0.2,-0.81334 -0.813334,-0.81334 -0.506666,0 -0.786666,0.28 -0.786666,0.54667 0,0.0267 0,0.10667 0,0.26667 v 1.52 h -0.613334 c -0.546667,0 -0.813333,0.16 -0.813333,0.70666 0,0.54667 0.266666,0.72 0.813333,0.72 z"
         style="font-style:normal;font-variant:normal;font-weight:bold;font-stretch:normal;font-size:13.33333397px;font-family:'Courier 10 Pitch';-inkscape-font-specification:'Courier 10 Pitch Bold';fill:#ffffff;fill-opacity:1"
         id="path6329"
         inkscape:connector-curvature="0" />
      <path
         d="m 86.209584,329.2838 v -2.10667 c 0.746666,-0.76 1.32,-1.14667 1.733333,-1.14667 0.36,0 0.72,0.42667 1.253333,0.42667 0.533334,0 0.92,-0.36 0.92,-0.86667 0,-0.62667 -0.506666,-1.06667 -1.386666,-1.06667 -1.026667,0 -1.773334,0.46667 -2.653334,1.41334 v -0.96 c 0,-0.17334 -0.133333,-0.28 -0.373333,-0.28 H 84.31625 c -0.546667,0 -0.813333,0.16 -0.813333,0.70666 0,0.54667 0.266666,0.72 0.813333,0.72 h 0.28 v 3.16001 h -0.493333 c -0.546667,0 -0.826667,0.16 -0.826667,0.70666 0,0.54667 0.28,0.72 0.826667,0.72 h 3.64 c 0.546667,0 0.813333,-0.17333 0.813333,-0.72 0,-0.54666 -0.266666,-0.70666 -0.813333,-0.70666 z"
         style="font-style:normal;font-variant:normal;font-weight:bold;font-stretch:normal;font-size:13.33333397px;font-family:'Courier 10 Pitch';-inkscape-font-specification:'Courier 10 Pitch Bold';fill:#ffffff;fill-opacity:1"
         id="path6331"
         inkscape:connector-curvature="0" />
      <path
         d="m 93.683751,323.00379 c 0,0.66667 0.146667,0.78667 0.8,0.78667 0.733333,0 0.8,-0.14667 0.8,-0.98667 0,-0.81333 -0.06667,-1.05333 -0.786667,-1.05333 -0.693333,0 -0.813333,0.21333 -0.813333,1.25333 z m 1.373333,1.69334 h -1.96 c -0.546667,0 -0.813333,0.16 -0.813333,0.70666 0,0.54667 0.266666,0.72 0.813333,0.72 h 0.733334 v 3.16001 h -1.400001 c -0.546666,0 -0.826666,0.16 -0.826666,0.70666 0,0.54667 0.28,0.72 0.826666,0.72 h 4.400001 c 0.546666,0 0.826666,-0.17333 0.826666,-0.72 0,-0.54666 -0.28,-0.70666 -0.826666,-0.70666 h -1.4 v -4.30667 c 0,-0.17334 -0.133334,-0.28 -0.373334,-0.28 z"
         style="font-style:normal;font-variant:normal;font-weight:bold;font-stretch:normal;font-size:13.33333397px;font-family:'Courier 10 Pitch';-inkscape-font-specification:'Courier 10 Pitch Bold';fill:#ffffff;fill-opacity:1"
         id="path6333"
         inkscape:connector-curvature="0" />
    </g>
    <g
       aria-label="sqr"
       transform="matrix(0.26458333,0,0,0.26458333,20.428144,191.81514)"
       style="font-style:normal;font-variant:normal;font-weight:bold;font-stretch:normal;font-size:26.66666603px;line-height:1.25;font-family:'Courier 10 Pitch';-inkscape-font-specification:'Courier 10 Pitch Bold';text-align:center;letter-spacing:0px;word-spacing:0px;text-anchor:middle;fill:#000000;fill-opacity:1;stroke:none"
       id="flowRoot5921-9">
      <path
         d="m 76.762083,330.63046 c 0.626667,0.17334 1.253333,0.24 1.933333,0.24 1.826667,0 2.8,-0.77333 2.8,-2.04 0,-1.28 -0.92,-1.66666 -2.586666,-1.90666 -1.173334,-0.17334 -1.706667,-0.12 -1.706667,-0.68001 0,-0.37333 0.36,-0.62666 1.066667,-0.62666 1.173333,0 1.546666,0.93333 2.2,0.93333 0.346666,0 0.56,-0.21333 0.56,-0.58667 v -0.8 c 0,-0.44 -0.173334,-0.66666 -0.533334,-0.66666 -0.253333,0 -0.466666,0.10666 -0.64,0.32 -0.613333,-0.18667 -1.2,-0.28 -1.786666,-0.28 -1.653334,0 -2.560001,0.70666 -2.560001,1.92 0,1.04 0.733334,1.62667 2.240001,1.84 1.413333,0.2 2.026666,0.2 2.026666,0.81333 0,0.34667 -0.346666,0.65334 -1.026666,0.65334 -0.72,0 -1.266667,-0.18667 -1.706667,-0.57334 -0.32,-0.29333 -0.306667,-0.66666 -0.866667,-0.66666 -0.466667,0 -0.64,0.21333 -0.64,0.78666 v 0.88 c 0,0.45334 0.09333,0.70667 0.52,0.70667 0.24,0 0.466667,-0.0933 0.706667,-0.26667 z"
         style="font-style:normal;font-variant:normal;font-weight:bold;font-stretch:normal;font-size:13.33333397px;font-family:'Courier 10 Pitch';-inkscape-font-specification:'Courier 10 Pitch Bold';fill:#ffffff;fill-opacity:1"
         id="path6343"
         inkscape:connector-curvature="0" />
      <path
         d="m 86.902917,331.87046 c -0.546667,0 -0.826667,0.17334 -0.826667,0.72 0,0.54667 0.28,0.70667 0.826667,0.70667 h 2.746667 c 0.546666,0 0.826666,-0.16 0.826666,-0.70667 0,-0.54666 -0.28,-0.72 -0.826666,-0.72 H 89.27625 v -5.74667 c 0.04,0 0.06667,0 0.106667,0 0.466667,0 0.706667,-0.25333 0.706667,-0.72 0,-0.54666 -0.266667,-0.70666 -0.813334,-0.70666 h -1 c -0.253333,0 -0.373333,0.0933 -0.373333,0.26666 v 0.46667 c -0.44,-0.58667 -1.08,-0.89333 -1.866667,-0.89333 -1.8,0 -3.093333,1.29333 -3.093333,3 0,1.82667 1.293333,3.13333 3,3.13333 0.693333,0 1.333333,-0.2 1.786667,-0.57333 v 1.77333 z m -0.68,-2.56 c -0.84,0 -1.48,-0.69333 -1.48,-1.69333 0,-1 0.626667,-1.69334 1.48,-1.69334 0.853333,0 1.48,0.69334 1.48,1.69334 0,1 -0.626667,1.69333 -1.48,1.69333 z"
         style="font-style:normal;font-variant:normal;font-weight:bold;font-stretch:normal;font-size:13.33333397px;font-family:'Courier 10 Pitch';-inkscape-font-specification:'Courier 10 Pitch Bold';fill:#ffffff;fill-opacity:1"
         id="path6345"
         inkscape:connector-curvature="0" />
      <path
         d="m 94.230418,329.2838 v -2.10667 c 0.746666,-0.76 1.32,-1.14667 1.733333,-1.14667 0.36,0 0.72,0.42667 1.253333,0.42667 0.533334,0 0.92,-0.36 0.92,-0.86667 0,-0.62667 -0.506666,-1.06667 -1.386666,-1.06667 -1.026667,0 -1.773334,0.46667 -2.653334,1.41334 v -0.96 c 0,-0.17334 -0.133333,-0.28 -0.373333,-0.28 h -1.386667 c -0.546667,0 -0.813333,0.16 -0.813333,0.70666 0,0.54667 0.266666,0.72 0.813333,0.72 h 0.28 v 3.16001 h -0.493333 c -0.546667,0 -0.826667,0.16 -0.826667,0.70666 0,0.54667 0.28,0.72 0.826667,0.72 h 3.64 c 0.546667,0 0.813333,-0.17333 0.813333,-0.72 0,-0.54666 -0.266666,-0.70666 -0.813333,-0.70666 z"
         style="font-style:normal;font-variant:normal;font-weight:bold;font-stretch:normal;font-size:13.33333397px;font-family:'Courier 10 Pitch';-inkscape-font-specification:'Courier 10 Pitch Bold';fill:#ffffff;fill-opacity:1"
         id="path6347"
         inkscape:connector-curvature="0" />
    </g>
    <g
       aria-label="saw"
       transform="matrix(0.26458333,0,0,0.26458333,8.5291436,191.89053)"
       style="font-style:normal;font-variant:normal;font-weight:bold;font-stretch:normal;font-size:26.66666603px;line-height:1.25;font-family:'Courier 10 Pitch';-inkscape-font-specification:'Courier 10 Pitch Bold';text-align:center;letter-spacing:0px;word-spacing:0px;text-anchor:middle;fill:#000000;fill-opacity:1;stroke:none"
       id="flowRoot5921-6">
      <path
         d="m 76.762083,330.63046 c 0.626667,0.17334 1.253333,0.24 1.933333,0.24 1.826667,0 2.8,-0.77333 2.8,-2.04 0,-1.28 -0.92,-1.66666 -2.586666,-1.90666 -1.173334,-0.17334 -1.706667,-0.12 -1.706667,-0.68001 0,-0.37333 0.36,-0.62666 1.066667,-0.62666 1.173333,0 1.546666,0.93333 2.2,0.93333 0.346666,0 0.56,-0.21333 0.56,-0.58667 v -0.8 c 0,-0.44 -0.173334,-0.66666 -0.533334,-0.66666 -0.253333,0 -0.466666,0.10666 -0.64,0.32 -0.613333,-0.18667 -1.2,-0.28 -1.786666,-0.28 -1.653334,0 -2.560001,0.70666 -2.560001,1.92 0,1.04 0.733334,1.62667 2.240001,1.84 1.413333,0.2 2.026666,0.2 2.026666,0.81333 0,0.34667 -0.346666,0.65334 -1.026666,0.65334 -0.72,0 -1.266667,-0.18667 -1.706667,-0.57334 -0.32,-0.29333 -0.306667,-0.66666 -0.866667,-0.66666 -0.466667,0 -0.64,0.21333 -0.64,0.78666 v 0.88 c 0,0.45334 0.09333,0.70667 0.52,0.70667 0.24,0 0.466667,-0.0933 0.706667,-0.26667 z"
         style="font-style:normal;font-variant:normal;font-weight:bold;font-stretch:normal;font-size:13.33333397px;font-family:'Courier 10 Pitch';-inkscape-font-specification:'Courier 10 Pitch Bold';fill:#ffffff;fill-opacity:1"
         id="path6336"
         inkscape:connector-curvature="0" />
      <path
         d="m 89.15625,326.87046 c 0,-1.6 -0.626666,-2.34667 -2.586666,-2.34667 -1.813334,0 -2.866667,0.46667 -2.866667,1.14667 0,0.38667 0.24,0.65333 0.706666,0.65333 0.613334,0 1.226667,-0.64 2.053334,-0.64 0.733333,0 1.12,0.41334 1.12,1.20001 0,0.04 0,0.08 0,0.12 -0.52,-0.0933 -1,-0.13334 -1.453333,-0.13334 -1.880001,0 -2.946667,0.76 -2.946667,2.05334 0,1.21333 0.84,1.94666 2.24,1.94666 0.826667,0 1.653333,-0.25333 2.373333,-0.73333 0.146667,0.45333 0.333334,0.57333 0.746667,0.57333 h 0.613333 c 0.56,0 0.826667,-0.18666 0.826667,-0.70666 0,-0.46667 -0.253333,-0.72 -0.72,-0.72 -0.04,0 -0.06667,0 -0.106667,0 z m -1.573333,2.16 c -0.506667,0.36 -1.026667,0.53334 -1.626667,0.53334 -0.653333,0 -1.013333,-0.28 -1.013333,-0.72 0,-0.62667 0.56,-0.96 1.546667,-0.96 0.32,0 0.68,0.0533 1.093333,0.14666 z"
         style="font-style:normal;font-variant:normal;font-weight:bold;font-stretch:normal;font-size:13.33333397px;font-family:'Courier 10 Pitch';-inkscape-font-specification:'Courier 10 Pitch Bold';fill:#ffffff;fill-opacity:1"
         id="path6338"
         inkscape:connector-curvature="0" />
      <path
         d="m 94.483751,327.69713 0.76,2.53333 c 0.146667,0.48 0.466667,0.64 1.013333,0.64 0.573334,0 0.893334,-0.17333 0.986667,-0.64 l 0.813333,-4.10667 c 0.04,0 0.06667,0 0.106667,0 0.466667,0 0.72,-0.25333 0.72,-0.72 0,-0.54666 -0.28,-0.70666 -0.826667,-0.70666 h -1.533333 c -0.546667,0 -0.826667,0.16 -0.826667,0.70666 0,0.46667 0.253334,0.72 0.72,0.72 0.04,0 0.06667,0 0.106667,0 l -0.493333,3.20001 -0.72,-2.48 c -0.12,-0.40001 -0.226667,-0.64001 -0.786667,-0.64001 -0.546667,0 -0.68,0.22667 -0.8,0.64001 l -0.68,2.48 -0.52,-3.20001 c 0.04,0 0.06667,0 0.106666,0 0.466667,0 0.706667,-0.25333 0.706667,-0.72 0,-0.54666 -0.266667,-0.70666 -0.813333,-0.70666 h -1.546667 c -0.546667,0 -0.813333,0.16 -0.813333,0.70666 0,0.46667 0.24,0.72 0.706666,0.72 0.04,0 0.06667,0 0.106667,0 l 0.826667,4.10667 c 0.09333,0.46667 0.4,0.64 0.973333,0.64 0.56,0 0.906667,-0.18666 1.026667,-0.64 z"
         style="font-style:normal;font-variant:normal;font-weight:bold;font-stretch:normal;font-size:13.33333397px;font-family:'Courier 10 Pitch';-inkscape-font-specification:'Courier 10 Pitch Bold';fill:#ffffff;fill-opacity:1"
         id="path6340"
         inkscape:connector-curvature="0" />
    </g>
    <g
       aria-label="vco"
       transform="matrix(0.26458333,0,0,0.26458333,-3.4240425,169.17394)"
       style="font-style:normal;font-variant:normal;font-weight:bold;font-stretch:normal;font-size:21.33333397px;line-height:1.25;font-family:'Courier 10 Pitch';-inkscape-font-specification:'Courier 10 Pitch Bold';text-align:center;letter-spacing:0px;word-spacing:0px;text-anchor:middle;fill:#000000;fill-opacity:1;stroke:none"
       id="flowRoot6061">
      <path
         d="M 97.536666,32.334355 100.63,25.763688 c 0.064,0 0.10667,0 0.17067,0 0.74666,0 1.152,-0.405333 1.152,-1.152 0,-0.874667 -0.448,-1.130667 -1.32267,-1.130667 h -2.453334 c -0.874666,0 -1.322666,0.256 -1.322666,1.130667 0,0.746667 0.405333,1.152 1.152,1.152 0.064,0 0.106666,0 0.170666,0 L 96.214,30.201021 94.336666,25.763688 c 0.064,0 0.106667,0 0.170667,0 0.746667,0 1.152,-0.405333 1.152,-1.152 0,-0.874667 -0.448,-1.130667 -1.322667,-1.130667 h -2.645333 c -0.874667,0 -1.322667,0.256 -1.322667,1.130667 0,0.746667 0.405333,1.152 1.152,1.152 0.064,0 0.106667,0 0.170667,0 l 2.901333,6.570667 c 0.277334,0.64 0.341334,1.024 1.472,1.024 0.96,0 1.109334,-0.256 1.472,-1.024 z"
         id="path6221"
         inkscape:connector-curvature="0" />
      <path
         d="m 112.098,24.035688 c -0.96,-0.533333 -1.96267,-0.810667 -3.072,-0.810667 -3.22133,0 -5.504,2.218667 -5.504,5.077334 0,2.88 2.21867,5.056 5.67467,5.056 2.90133,0 5.03466,-1.301334 5.03466,-2.517334 0,-0.618666 -0.40533,-1.045333 -0.91733,-1.045333 -0.85333,0 -1.792,1.365333 -3.92533,1.365333 -1.856,0 -2.96534,-1.194666 -2.96534,-2.88 0,-1.621333 1.13067,-2.837333 2.77334,-2.837333 1.32266,0 2.19733,0.448 2.752,1.386667 0.34133,0.576 0.64,0.853333 1.19466,0.853333 0.74667,0 1.04534,-0.405333 1.04534,-1.237333 v -1.706667 c 0,-1.024 -0.21334,-1.536 -1.024,-1.536 -0.53334,0 -0.87467,0.277333 -1.06667,0.832 z"
         id="path6223"
         inkscape:connector-curvature="0" />
      <path
         d="m 127.51267,28.302355 c 0,-2.88 -2.21867,-5.056 -5.67467,-5.056 -3.456,0 -5.696,2.176 -5.696,5.056 0,2.88 2.24,5.056 5.696,5.056 3.456,0 5.67467,-2.176 5.67467,-5.056 z m -5.67467,2.858666 c -1.62133,0 -2.79467,-1.216 -2.79467,-2.88 0,-1.642666 1.152,-2.837333 2.79467,-2.837333 1.664,0 2.77333,1.194667 2.77333,2.837333 0,1.642667 -1.13066,2.88 -2.77333,2.88 z"
         id="path6225"
         inkscape:connector-curvature="0" />
    </g>
    <g
       aria-label="freq"
       transform="matrix(0.26458333,0,0,0.26458333,-16.356797,179.27858)"
       style="font-style:normal;font-variant:normal;font-weight:bold;font-stretch:normal;font-size:21.33333397px;line-height:1.25;font-family:'Courier 10 Pitch';-inkscape-font-specification:'Courier 10 Pitch Bold';text-align:center;letter-spacing:0px;word-spacing:0px;text-anchor:middle;fill:#000000;fill-opacity:1;stroke:none"
       id="flowRoot6061-6">
      <path
         d="M 94.960334,31.795688 H 91.973667 V 26.233022 H 95.147 c 0.466667,0 0.728,-0.242667 0.728,-0.672 0,-0.429334 -0.261333,-0.653334 -0.765333,-0.653334 h -3.192 c -0.01867,-0.186666 -0.01867,-0.354666 -0.01867,-0.522666 0,-1.306667 0.541333,-1.866667 1.922666,-1.866667 0.802667,0 1.418667,0.224 1.866667,0.224 0.429333,0 0.746666,-0.261333 0.746666,-0.653333 0,-0.653333 -0.672,-0.933333 -1.997333,-0.933333 -2.781333,0 -3.994666,0.914666 -3.994666,3.098666 0,0.205333 0.01867,0.429333 0.03733,0.653333 h -1.456 c -0.485333,0 -0.728,0.224 -0.728,0.653334 0,0.429333 0.242667,0.672 0.746667,0.672 h 1.512 v 5.562666 H 89.00566 c -0.466666,0 -0.728,0.224 -0.728,0.653334 0,0.429333 0.261334,0.653333 0.765334,0.653333 h 5.954666 c 0.485333,0 0.728,-0.224 0.728,-0.653333 0,-0.429334 -0.261333,-0.653334 -0.765333,-0.653334 z"
         style="font-style:normal;font-variant:normal;font-weight:normal;font-stretch:normal;font-size:18.66666603px;font-family:'Courier 10 Pitch';-inkscape-font-specification:'Courier 10 Pitch'"
         id="path6228"
         inkscape:connector-curvature="0" />
      <path
         d="m 102.4935,31.814355 v -3.770667 c 1.21333,-1.381333 2.24,-2.109333 3.248,-2.109333 0.70933,0 1.10133,0.56 1.58667,0.56 0.392,0 0.80266,-0.410667 0.80266,-0.858667 0,-0.672 -0.672,-1.176 -1.81066,-1.176 -1.456,0 -2.688,0.709334 -3.82667,2.146667 v -1.549333 c 0,-0.261334 -0.168,-0.373334 -0.504,-0.373334 h -2.072 c -0.485333,0 -0.728,0.205334 -0.728,0.634667 0,0.466667 0.261333,0.653333 0.85867,0.653333 0.0933,0 0.26133,0 0.46666,0 h 0.616 v 5.842667 H 99.5255 c -0.504,0 -0.765333,0.205333 -0.765333,0.634667 0,0.429333 0.261333,0.653333 0.746666,0.653333 h 5.954667 c 0.54133,0 0.74667,-0.130667 0.74667,-0.653333 0,-0.448 -0.224,-0.634667 -0.69067,-0.634667 z"
         style="font-style:normal;font-variant:normal;font-weight:normal;font-stretch:normal;font-size:18.66666603px;font-family:'Courier 10 Pitch';-inkscape-font-specification:'Courier 10 Pitch'"
         id="path6230"
         inkscape:connector-curvature="0" />
      <path
         d="m 111.576,28.099688 c 0.35467,-1.512 1.53067,-2.408 3.136,-2.408 1.47467,0 2.632,0.952 2.8,2.408 z m -0.0373,1.194667 h 6.12266 c 1.12,0 1.512,0 1.512,-0.858667 0,-2.034666 -1.69866,-3.994666 -4.46133,-3.994666 -2.81867,0 -4.76,1.810666 -4.76,4.424 0,2.725333 1.75467,4.461333 4.57333,4.461333 1.232,0 2.55734,-0.298667 3.808,-0.914667 0.54134,-0.261333 0.80267,-0.541333 0.80267,-0.914666 0,-0.336 -0.28,-0.597334 -0.63467,-0.597334 -0.82133,0 -1.99733,1.138667 -3.84533,1.138667 -1.88533,0 -3.024,-0.989333 -3.11733,-2.744 z"
         style="font-style:normal;font-variant:normal;font-weight:normal;font-stretch:normal;font-size:18.66666603px;font-family:'Courier 10 Pitch';-inkscape-font-specification:'Courier 10 Pitch'"
         id="path6232"
         inkscape:connector-curvature="0" />
      <path
         d="m 128.25583,35.435688 h -2.184 c -0.46666,0 -0.70933,0.224 -0.70933,0.653333 0,0.504 0.224,0.653334 0.76533,0.653334 h 4.032 c 0.48534,0 0.728,-0.224 0.728,-0.653334 0,-0.466666 -0.28,-0.653333 -0.85866,-0.653333 -0.13067,0 -0.26134,0 -0.392,0 v -9.464 c 0.056,0 0.112,0 0.168,0 0.76533,0 1.08266,-0.130666 1.08266,-0.653333 0,-0.429333 -0.24266,-0.634667 -0.728,-0.634667 h -1.38133 c -0.35467,0 -0.52267,0.112 -0.52267,0.373334 v 0.877333 c -0.82133,-0.84 -1.82933,-1.269333 -2.98666,-1.269333 -2.38934,0 -4.312,1.792 -4.312,4.349333 0,2.426667 1.75466,4.106667 4.144,4.106667 1.288,0 2.408,-0.466667 3.15466,-1.325334 z m -5.712,-6.514666 c 0,-1.642667 1.15734,-2.856 2.87467,-2.856 1.69867,0 2.87467,1.213333 2.87467,2.856 0,1.642666 -1.176,2.856 -2.87467,2.856 -1.68,0 -2.87467,-1.157334 -2.87467,-2.856 z"
         style="font-style:normal;font-variant:normal;font-weight:normal;font-stretch:normal;font-size:18.66666603px;font-family:'Courier 10 Pitch';-inkscape-font-specification:'Courier 10 Pitch'"
         id="path6234"
         inkscape:connector-curvature="0" />
    </g>
    <g
       aria-label="hard"
       transform="matrix(0.26458333,0,0,0.26458333,7.6173859,179.19933)"
       style="font-style:normal;font-variant:normal;font-weight:bold;font-stretch:normal;font-size:21.33333397px;line-height:1.25;font-family:'Courier 10 Pitch';-inkscape-font-specification:'Courier 10 Pitch Bold';text-align:center;letter-spacing:0px;word-spacing:0px;text-anchor:middle;fill:#000000;fill-opacity:1;stroke:none"
       id="flowRoot6061-6-0">
      <path
         d="m 94.518333,32.182355 c -0.05333,0 -0.09333,0 -0.133334,0 -0.533333,0 -0.76,0.08 -0.76,0.453333 0,0.306667 0.173334,0.466667 0.52,0.466667 h 1.733334 c 0.386666,0 0.52,-0.09333 0.52,-0.466667 0,-0.36 -0.173334,-0.466667 -0.626667,-0.466667 -0.08,0 -0.173333,0.01333 -0.28,0.01333 v -2.706667 c 0,-0.973333 0.906667,-1.56 1.693333,-1.56 0.853334,0 1.373334,0.52 1.373334,1.56 v 2.706667 c -0.12,0 -0.186667,0 -0.253334,0 -0.466666,0 -0.64,0.09333 -0.64,0.453333 0,0.373334 0.133334,0.466667 0.52,0.466667 h 1.733334 c 0.346667,0 0.519997,-0.16 0.519997,-0.466667 0,-0.333333 -0.2,-0.453333 -0.61333,-0.453333 -0.09333,0 -0.186667,0 -0.28,0 v -2.946667 c 0,-1.506667 -0.893334,-2.32 -2.133334,-2.32 -0.68,0 -1.28,0.293333 -1.906667,0.88 v -2.946667 c 0,-0.16 -0.12,-0.266667 -0.373333,-0.266667 h -0.986667 c -0.346666,0 -0.52,0.16 -0.52,0.466667 0,0.333333 0.186667,0.453333 0.6,0.453333 0.09333,0 0.2,0.01333 0.293334,0.01333 z"
         style="font-style:normal;font-variant:normal;font-weight:normal;font-stretch:normal;font-size:13.33333397px;font-family:'Courier 10 Pitch';-inkscape-font-specification:'Courier 10 Pitch'"
         id="path6237" />
      <path
         d="m 106.4725,32.275688 0.0667,0.4 c 0.0533,0.28 0.21333,0.426667 0.45333,0.426667 h 1.02667 c 0.34666,0 0.52,-0.16 0.52,-0.466667 0,-0.386667 -0.22667,-0.453333 -0.77334,-0.453333 h -0.33333 v -2.946667 c 0,-1.573333 -0.77333,-2.306667 -2.44,-2.306667 -1.46667,0 -2.42667,0.466667 -2.42667,0.92 0,0.333334 0.2,0.546667 0.44,0.546667 0.50667,0 1.04,-0.546667 1.96,-0.546667 1,0 1.46667,0.466667 1.46667,1.466667 0,0.01333 0,0.02667 0,0.04 -0.53333,-0.133333 -1.04,-0.2 -1.54667,-0.2 -1.93333,0 -3.01333,0.813333 -3.01333,2.16 0,1.146667 0.85333,1.946667 2.16,1.946667 0.89333,0 1.73333,-0.346667 2.44,-0.986667 z m -0.04,-2.053333 v 0.706666 c 0,0.586667 -1.06667,1.333334 -2.24,1.333334 -0.76,0 -1.28,-0.44 -1.28,-1.013334 0,-0.733333 0.76,-1.253333 2.14667,-1.253333 0.48,0 0.93333,0.08 1.37333,0.226667 z"
         style="font-style:normal;font-variant:normal;font-weight:normal;font-stretch:normal;font-size:13.33333397px;font-family:'Courier 10 Pitch';-inkscape-font-specification:'Courier 10 Pitch'"
         id="path6239" />
      <path
         d="m 112.37333,32.182355 v -2.693334 c 0.86667,-0.986666 1.6,-1.506666 2.32,-1.506666 0.50667,0 0.78667,0.4 1.13334,0.4 0.28,0 0.57333,-0.293334 0.57333,-0.613334 0,-0.48 -0.48,-0.84 -1.29333,-0.84 -1.04,0 -1.92,0.506667 -2.73334,1.533334 v -1.106667 c 0,-0.186667 -0.12,-0.266667 -0.36,-0.266667 h -1.48 c -0.34666,0 -0.52,0.146667 -0.52,0.453334 0,0.333333 0.18667,0.466666 0.61334,0.466666 0.0667,0 0.18666,0 0.33333,0 h 0.44 v 4.173334 h -1.14667 c -0.36,0 -0.54666,0.146666 -0.54666,0.453333 0,0.306667 0.18666,0.466667 0.53333,0.466667 h 4.25333 c 0.38667,0 0.53334,-0.09333 0.53334,-0.466667 0,-0.32 -0.16,-0.453333 -0.49334,-0.453333 z"
         style="font-style:normal;font-variant:normal;font-weight:normal;font-stretch:normal;font-size:13.33333397px;font-family:'Courier 10 Pitch';-inkscape-font-specification:'Courier 10 Pitch'"
         id="path6241" />
      <path
         d="m 118.7275,30.182355 c 0,-1.293334 0.82667,-2.146667 2.05333,-2.146667 1.21334,0 2.05334,0.88 2.05334,2.08 0,1.2 -0.86667,2.106667 -2.06667,2.106667 -1.16,0 -2.04,-0.813334 -2.04,-2.04 z m 4.26667,2.92 h 1.24 c 0.28,0 0.46666,-0.173333 0.46666,-0.466667 0,-0.333333 -0.18666,-0.453333 -0.6,-0.453333 -0.0933,0 -0.2,0 -0.29333,0 v -7.333334 c 0,-0.186667 -0.12,-0.266667 -0.37333,-0.266667 h -1.33334 c -0.34666,0 -0.52,0.16 -0.52,0.466667 0,0.426667 0.28,0.466667 0.89334,0.466667 h 0.34666 v 2.493333 c -0.50666,-0.626666 -1.22666,-0.933333 -2.12,-0.933333 -1.76,0 -3.09333,1.36 -3.09333,3.08 0,1.826667 1.25333,3.106667 2.89333,3.106667 0.92,0 1.72,-0.373333 2.24,-1.026667 v 0.533334 c 0,0.226666 0.0533,0.333333 0.25334,0.333333 z"
         style="font-style:normal;font-variant:normal;font-weight:normal;font-stretch:normal;font-size:13.33333397px;font-family:'Courier 10 Pitch';-inkscape-font-specification:'Courier 10 Pitch'"
         id="path6243" />
    </g>
    <g
       aria-label="soft"
       transform="matrix(0.26458333,0,0,0.26458333,7.5978578,194.51917)"
       style="font-style:normal;font-variant:normal;font-weight:bold;font-stretch:normal;font-size:13.33333397px;line-height:1.25;font-family:'Courier 10 Pitch';-inkscape-font-specification:'Courier 10 Pitch Bold';text-align:center;letter-spacing:0px;word-spacing:0px;text-anchor:middle;fill:#000000;fill-opacity:1;stroke:none"
       id="flowRoot6061-6-5">
      <path
         d="m 94.118333,25.757563 c 0,0.413333 0.173333,0.626667 0.48,0.626667 0.146666,0 0.36,-0.106667 0.666666,-0.306667 0.733334,0.186667 1.386667,0.293333 1.973334,0.293333 1.626667,0 2.546667,-0.813333 2.546667,-1.933333 0,-1.28 -0.893334,-1.786667 -2.613334,-1.826667 -1.28,-0.02667 -2.026667,-0.09333 -2.026667,-0.786667 0,-0.52 0.493334,-0.96 1.36,-0.96 0.68,0 1.16,0.16 1.653334,0.6 0.386667,0.346667 0.52,0.68 0.813333,0.68 0.32,0 0.44,-0.226666 0.44,-0.653333 v -0.76 c 0,-0.44 -0.146666,-0.653333 -0.44,-0.653333 -0.346666,0 -0.48,0.253333 -0.666667,0.253333 -0.186666,0 -0.706666,-0.293333 -1.653333,-0.293333 -1.613333,0 -2.506667,0.746666 -2.506667,1.826666 0,1.16 0.946667,1.8 2.72,1.8 0.186667,0 0.306667,0 0.373334,0 0.986666,0 1.466667,0.186667 1.466667,0.853334 0,0.586666 -0.586667,1.013333 -1.533334,1.013333 -0.88,0 -1.626667,-0.32 -1.973333,-0.773333 -0.253334,-0.333334 -0.213334,-0.693334 -0.613334,-0.693334 -0.346666,0 -0.466666,0.186667 -0.466666,0.533334 z"
         style="font-style:normal;font-variant:normal;font-weight:normal;font-stretch:normal;font-size:13.33333397px;font-family:'Courier 10 Pitch';-inkscape-font-specification:'Courier 10 Pitch'"
         id="path6350" />
      <path
         d="m 108.3925,23.224229 c 0,-1.8 -1.33333,-3.16 -3.4,-3.16 -2.06667,0 -3.41333,1.346667 -3.41333,3.16 0,1.813334 1.34666,3.160001 3.41333,3.160001 2.06667,0 3.4,-1.346667 3.4,-3.160001 z m -3.4,2.253334 c -1.34667,0 -2.28,-0.96 -2.28,-2.253334 0,-1.293333 0.93333,-2.266666 2.28,-2.266666 1.34667,0 2.28,0.973333 2.28,2.266666 0,1.306667 -0.93333,2.253334 -2.28,2.253334 z"
         style="font-style:normal;font-variant:normal;font-weight:normal;font-stretch:normal;font-size:13.33333397px;font-family:'Courier 10 Pitch';-inkscape-font-specification:'Courier 10 Pitch'"
         id="path6352" />
      <path
         d="M 115.01333,25.290896 H 112.88 v -3.973333 h 2.26667 c 0.33333,0 0.52,-0.173334 0.52,-0.48 0,-0.306667 -0.18667,-0.466667 -0.54667,-0.466667 h -2.28 c -0.0133,-0.133333 -0.0133,-0.253333 -0.0133,-0.373333 0,-0.933334 0.38666,-1.333334 1.37333,-1.333334 0.57333,0 1.01333,0.16 1.33333,0.16 0.30667,0 0.53334,-0.186666 0.53334,-0.466666 0,-0.466667 -0.48,-0.666667 -1.42667,-0.666667 -1.98667,0 -2.85333,0.653333 -2.85333,2.213333 0,0.146667 0.0133,0.306667 0.0267,0.466667 h -1.04 c -0.34666,0 -0.52,0.16 -0.52,0.466667 0,0.306666 0.17334,0.48 0.53334,0.48 h 1.08 v 3.973333 H 110.76 c -0.33333,0 -0.52,0.16 -0.52,0.466667 0,0.306667 0.18667,0.466667 0.54667,0.466667 H 115.04 c 0.34667,0 0.52,-0.16 0.52,-0.466667 0,-0.306667 -0.18667,-0.466667 -0.54667,-0.466667 z"
         style="font-style:normal;font-variant:normal;font-weight:normal;font-stretch:normal;font-size:13.33333397px;font-family:'Courier 10 Pitch';-inkscape-font-specification:'Courier 10 Pitch'"
         id="path6354" />
      <path
         d="m 122.8075,20.570896 h -2.56 v -1.32 c 0,-0.64 -0.0533,-0.906667 -0.52,-0.906667 -0.34667,0 -0.50667,0.186667 -0.50667,0.546667 0,0.173333 0,0.293333 0,0.346667 v 1.333333 h -0.72 c -0.62666,0 -0.89333,0.04 -0.89333,0.466667 0,0.32 0.16,0.453333 0.52,0.453333 h 1.09333 v 2.173333 c 0,0.06667 0,0.133334 0,0.2 0,0.6 0.0133,1.12 0.24,1.506667 0.37334,0.653334 1.06667,0.973334 2.06667,0.973334 0.61333,0 1.29333,-0.173334 2.10667,-0.493334 0.48,-0.186666 0.72,-0.373333 0.72,-0.68 0,-0.24 -0.21334,-0.466667 -0.45334,-0.466667 -0.52,0 -1.38666,0.693334 -2.44,0.693334 -1.14666,0 -1.22666,-0.693334 -1.22666,-1.733334 v -2.173333 h 2.64 c 0.36,0 0.54666,-0.146667 0.54666,-0.453333 0,-0.333334 -0.2,-0.466667 -0.61333,-0.466667 z"
         style="font-style:normal;font-variant:normal;font-weight:normal;font-stretch:normal;font-size:13.33333397px;font-family:'Courier 10 Pitch';-inkscape-font-specification:'Courier 10 Pitch'"
         id="path6356" />
    </g>
    <g
       aria-label="fm cv"
       transform="matrix(0.26458333,0,0,0.26458333,-8.0105943,127.43955)"
       style="font-style:normal;font-variant:normal;font-weight:bold;font-stretch:normal;font-size:26.66666603px;line-height:1.25;font-family:'Courier 10 Pitch';-inkscape-font-specification:'Courier 10 Pitch Bold';text-align:center;letter-spacing:0px;word-spacing:0px;text-anchor:middle;fill:#000000;fill-opacity:1;stroke:none"
       id="flowRoot5921-69-6">
      <path
         d="m 72.461249,329.77713 h -2.133333 v -3.97334 h 2.266667 c 0.333333,0 0.52,-0.17333 0.52,-0.48 0,-0.30666 -0.186667,-0.46666 -0.546667,-0.46666 h -2.28 c -0.01333,-0.13334 -0.01333,-0.25334 -0.01333,-0.37334 0,-0.93333 0.386666,-1.33333 1.373333,-1.33333 0.573333,0 1.013333,0.16 1.333333,0.16 0.306667,0 0.533334,-0.18667 0.533334,-0.46667 0,-0.46666 -0.48,-0.66666 -1.426667,-0.66666 -1.986667,0 -2.853333,0.65333 -2.853333,2.21333 0,0.14667 0.01333,0.30667 0.02667,0.46667 h -1.04 c -0.346667,0 -0.52,0.16 -0.52,0.46666 0,0.30667 0.173333,0.48 0.533333,0.48 h 1.080001 v 3.97334 h -1.106667 c -0.333334,0 -0.52,0.16 -0.52,0.46667 0,0.30666 0.186666,0.46666 0.546666,0.46666 h 4.253334 c 0.346667,0 0.52,-0.16 0.52,-0.46666 0,-0.30667 -0.186667,-0.46667 -0.546667,-0.46667 z"
         style="font-style:normal;font-variant:normal;font-weight:normal;font-stretch:normal;font-size:13.33333397px;font-family:'Courier 10 Pitch';-inkscape-font-specification:'Courier 10 Pitch';fill:#000000;fill-opacity:1"
         id="path6255" />
      <path
         d="m 80.855417,327.0838 v 2.97333 c 0,0.42667 0.186666,0.65333 0.546666,0.65333 h 0.786667 c 0.306667,0 0.466667,-0.16 0.466667,-0.46666 0,-0.37334 -0.186667,-0.45334 -0.68,-0.45334 -0.04,0 -0.08,0 -0.12,0 v -2.94666 c 0,-1.52001 -0.4,-2.32001 -1.6,-2.32001 -0.626667,0 -1.093334,0.26667 -1.453334,0.8 -0.186666,-0.53333 -0.586666,-0.8 -1.186667,-0.8 -0.506666,0 -0.906666,0.17334 -1.253333,0.56 -0.02667,-0.32 -0.09333,-0.38666 -0.373333,-0.38666 h -1 c -0.346667,0 -0.506667,0.14666 -0.506667,0.45333 0,0.33333 0.186667,0.46667 0.6,0.46667 0.09333,0 0.2,0 0.293333,0 v 4.17333 c -0.05333,0 -0.09333,0 -0.133333,0 -0.533333,0 -0.76,0.08 -0.76,0.45334 0,0.30666 0.16,0.46666 0.506667,0.46666 h 1.733333 c 0.386667,0 0.533333,-0.0933 0.533333,-0.46666 0,-0.36 -0.173333,-0.46667 -0.626666,-0.46667 -0.08,0 -0.173334,0.0133 -0.28,0.0133 v -3.58667 c 0.24,-0.45333 0.56,-0.68 0.96,-0.68 0.493333,0 0.853333,0.38667 0.853333,1.05334 0,0.08 0,0.25333 0,0.50667 v 2.74666 c 0,0.0667 0,0.12 0,0.17334 0,0.50666 0.02667,0.70666 0.453334,0.70666 h 0.826666 c 0.306667,0 0.453334,-0.16 0.453334,-0.46666 0,-0.37334 -0.186667,-0.45334 -0.68,-0.45334 -0.04,0 -0.08,0 -0.12,0 v -2.70666 c 0,-1.04001 0.453333,-1.56001 1.053333,-1.56001 0.653333,0 0.706667,0.57334 0.706667,1.56001 z"
         style="font-style:normal;font-variant:normal;font-weight:normal;font-stretch:normal;font-size:13.33333397px;font-family:'Courier 10 Pitch';-inkscape-font-specification:'Courier 10 Pitch';fill:#000000;fill-opacity:1"
         id="path6257" />
      <path
         d="m 97.457085,326.65713 v -1.21334 c 0,-0.56 -0.06667,-0.8 -0.466667,-0.8 -0.333333,0 -0.506667,0.12 -0.506667,0.41334 0,0 0,0.0133 0,0.0267 -0.72,-0.36 -1.373333,-0.54666 -2.053333,-0.54666 -1.866667,0 -3.28,1.37333 -3.28,3.17333 0,1.8 1.4,3.16 3.293333,3.16 1.573334,0 3.04,-0.97333 3.04,-1.58666 0,-0.26667 -0.186666,-0.45334 -0.453333,-0.45334 -0.346667,0 -0.6,0.32 -1,0.58667 -0.466667,0.30667 -1,0.48 -1.52,0.48 -1.36,0 -2.226667,-0.90667 -2.226667,-2.2 0,-1.25334 0.933333,-2.14667 2.28,-2.14667 0.773334,0 1.386667,0.36 1.786667,1.06667 0.2,0.36 0.333333,0.52 0.613333,0.52 0.32,0 0.493334,-0.16 0.493334,-0.48 z"
         style="font-style:normal;font-variant:normal;font-weight:normal;font-stretch:normal;font-size:13.33333397px;font-family:'Courier 10 Pitch';-inkscape-font-specification:'Courier 10 Pitch';fill:#000000;fill-opacity:1"
         id="path6259" />
      <path
         d="m 99.557918,325.61713 2.133332,4.74667 c 0.17334,0.4 0.32,0.57333 0.76,0.57333 0.46667,0 0.6,-0.16 0.78667,-0.57333 l 2.14667,-4.74667 c 0.04,0 0.08,0 0.12,0 0.52,0 0.74666,-0.0933 0.74666,-0.46667 0,-0.30667 -0.17333,-0.45333 -0.52,-0.45333 h -2.01333 c -0.42667,0 -0.61333,0.0667 -0.61333,0.45333 0,0.38667 0.24,0.48 0.85333,0.48 0.12,0 0.24,-0.0133 0.38667,-0.0133 l -1.88,4.21333 -1.69334,-4.21333 c 0.08,0 0.16,0 0.24,0 0.53334,0 0.76,-0.0933 0.76,-0.46667 0,-0.38667 -0.18666,-0.45333 -0.61333,-0.45333 h -1.826668 c -0.346667,0 -0.52,0.14666 -0.52,0.45333 0,0.37333 0.213333,0.46667 0.746666,0.46667 z"
         style="font-style:normal;font-variant:normal;font-weight:normal;font-stretch:normal;font-size:13.33333397px;font-family:'Courier 10 Pitch';-inkscape-font-specification:'Courier 10 Pitch';fill:#000000;fill-opacity:1"
         id="path6261" />
    </g>
    <g
       aria-label="pwm cv"
       transform="matrix(0.26458333,0,0,0.26458333,-7.904838,142.81161)"
       style="font-style:normal;font-variant:normal;font-weight:bold;font-stretch:normal;font-size:26.66666603px;line-height:1.25;font-family:'Courier 10 Pitch';-inkscape-font-specification:'Courier 10 Pitch Bold';text-align:center;letter-spacing:0px;word-spacing:0px;text-anchor:middle;fill:#000000;fill-opacity:1;stroke:none"
       id="flowRoot5921-69-3">
      <path
         d="m 66.784166,329.7638 c -1.213334,0 -2.053334,-0.86667 -2.053334,-2.04 0,-1.17334 0.84,-2.04001 2.053334,-2.04001 1.226666,0 2.066666,0.86667 2.066666,2.04001 0,1.21333 -0.866666,2.04 -2.066666,2.04 z m -2.026667,2.61333 v -2.6 c 0.533333,0.61333 1.333333,0.94667 2.253333,0.94667 1.706667,0 2.960001,-1.2 2.960001,-2.93334 0,-1.82667 -1.360001,-3.10667 -3.066667,-3.10667 -0.826667,0 -1.546667,0.30667 -2.133334,0.90667 v -0.62667 c 0,-0.18666 -0.12,-0.26666 -0.373333,-0.26666 h -1 c -0.346667,0 -0.52,0.14666 -0.52,0.45333 0,0.33333 0.2,0.46667 0.613333,0.46667 0.09333,0 0.2,0 0.293334,0 v 6.76 c -0.04,0 -0.08,0 -0.12,0 -0.546667,0 -0.786667,0.0933 -0.786667,0.46667 0,0.30666 0.173333,0.46666 0.52,0.46666 h 2.88 c 0.386667,0 0.546667,-0.10666 0.546667,-0.46666 0,-0.30667 -0.16,-0.46667 -0.493334,-0.46667 z"
         style="font-style:normal;font-variant:normal;font-weight:normal;font-stretch:normal;font-size:13.33333397px;font-family:'Courier 10 Pitch';-inkscape-font-specification:'Courier 10 Pitch';fill:#000000;fill-opacity:1"
         id="path6264" />
      <path
         d="m 74.418333,327.4038 0.866667,2.96 c 0.12,0.4 0.253333,0.57333 0.64,0.57333 0.306666,0 0.453333,-0.12 0.546666,-0.44 l 1.466667,-4.88 c 0.413334,0 0.56,-0.12 0.56,-0.46667 0,-0.30667 -0.146666,-0.45333 -0.4,-0.45333 h -1.746667 c -0.413333,0 -0.573333,0.08 -0.573333,0.45333 0,0.38667 0.213333,0.48 0.76,0.48 0.133333,0 0.28,0 0.453333,-0.0133 L 75.898333,329.5238 75.085,326.81713 c -0.12,-0.4 -0.253334,-0.57334 -0.64,-0.57334 -0.306667,0 -0.453334,0.13334 -0.546667,0.44001 l -0.84,2.84 -1.12,-3.90667 c 0.16,0.0133 0.293333,0.0133 0.426667,0.0133 0.573333,0 0.8,-0.0933 0.8,-0.48 0,-0.38667 -0.173334,-0.45333 -0.586667,-0.45333 h -1.746667 c -0.333333,0 -0.493333,0.16 -0.493333,0.45333 0,0.34667 0.16,0.46667 0.573333,0.46667 L 72.405,330.3638 c 0.12,0.4 0.253333,0.57333 0.64,0.57333 0.293333,0 0.466666,-0.13333 0.546666,-0.44 z"
         style="font-style:normal;font-variant:normal;font-weight:normal;font-stretch:normal;font-size:13.33333397px;font-family:'Courier 10 Pitch';-inkscape-font-specification:'Courier 10 Pitch';fill:#000000;fill-opacity:1"
         id="path6266" />
      <path
         d="m 84.865834,327.0838 v 2.97333 c 0,0.42667 0.186666,0.65333 0.546666,0.65333 h 0.786667 c 0.306667,0 0.466667,-0.16 0.466667,-0.46666 0,-0.37334 -0.186667,-0.45334 -0.68,-0.45334 -0.04,0 -0.08,0 -0.12,0 v -2.94666 c 0,-1.52001 -0.4,-2.32001 -1.6,-2.32001 -0.626667,0 -1.093334,0.26667 -1.453334,0.8 -0.186666,-0.53333 -0.586666,-0.8 -1.186666,-0.8 -0.506667,0 -0.906667,0.17334 -1.253334,0.56 -0.02667,-0.32 -0.09333,-0.38666 -0.373333,-0.38666 h -1 c -0.346667,0 -0.506667,0.14666 -0.506667,0.45333 0,0.33333 0.186667,0.46667 0.6,0.46667 0.09333,0 0.2,0 0.293334,0 v 4.17333 c -0.05333,0 -0.09333,0 -0.133334,0 -0.533333,0 -0.76,0.08 -0.76,0.45334 0,0.30666 0.16,0.46666 0.506667,0.46666 H 80.7325 c 0.386667,0 0.533334,-0.0933 0.533334,-0.46666 0,-0.36 -0.173334,-0.46667 -0.626667,-0.46667 -0.08,0 -0.173333,0.0133 -0.28,0.0133 v -3.58667 c 0.24,-0.45333 0.56,-0.68 0.96,-0.68 0.493333,0 0.853333,0.38667 0.853333,1.05334 0,0.08 0,0.25333 0,0.50667 v 2.74666 c 0,0.0667 0,0.12 0,0.17334 0,0.50666 0.02667,0.70666 0.453334,0.70666 H 83.4525 c 0.306667,0 0.453334,-0.16 0.453334,-0.46666 0,-0.37334 -0.186667,-0.45334 -0.68,-0.45334 -0.04,0 -0.08,0 -0.12,0 v -2.70666 c 0,-1.04001 0.453333,-1.56001 1.053333,-1.56001 0.653333,0 0.706667,0.57334 0.706667,1.56001 z"
         style="font-style:normal;font-variant:normal;font-weight:normal;font-stretch:normal;font-size:13.33333397px;font-family:'Courier 10 Pitch';-inkscape-font-specification:'Courier 10 Pitch';fill:#000000;fill-opacity:1"
         id="path6268" />
      <path
         d="m 101.4675,326.65713 v -1.21334 c 0,-0.56 -0.0667,-0.8 -0.46666,-0.8 -0.33334,0 -0.50667,0.12 -0.50667,0.41334 0,0 0,0.0133 0,0.0267 -0.720002,-0.36 -1.373335,-0.54666 -2.053335,-0.54666 -1.866667,0 -3.28,1.37333 -3.28,3.17333 0,1.8 1.4,3.16 3.293333,3.16 1.573332,0 3.040002,-0.97333 3.040002,-1.58666 0,-0.26667 -0.18667,-0.45334 -0.45333,-0.45334 -0.34667,0 -0.6,0.32 -1.00001,0.58667 -0.466662,0.30667 -0.999995,0.48 -1.519995,0.48 -1.36,0 -2.226667,-0.90667 -2.226667,-2.2 0,-1.25334 0.933334,-2.14667 2.28,-2.14667 0.773334,0 1.386667,0.36 1.786672,1.06667 0.2,0.36 0.33333,0.52 0.61333,0.52 0.32,0 0.49333,-0.16 0.49333,-0.48 z"
         style="font-style:normal;font-variant:normal;font-weight:normal;font-stretch:normal;font-size:13.33333397px;font-family:'Courier 10 Pitch';-inkscape-font-specification:'Courier 10 Pitch';fill:#000000;fill-opacity:1"
         id="path6270" />
      <path
         d="m 103.56834,325.61713 2.13333,4.74667 c 0.17333,0.4 0.32,0.57333 0.76,0.57333 0.46667,0 0.6,-0.16 0.78667,-0.57333 l 2.14666,-4.74667 c 0.04,0 0.08,0 0.12,0 0.52,0 0.74667,-0.0933 0.74667,-0.46667 0,-0.30667 -0.17333,-0.45333 -0.52,-0.45333 h -2.01333 c -0.42667,0 -0.61334,0.0667 -0.61334,0.45333 0,0.38667 0.24,0.48 0.85334,0.48 0.12,0 0.24,-0.0133 0.38666,-0.0133 l -1.88,4.21333 -1.69333,-4.21333 c 0.08,0 0.16,0 0.24,0 0.53333,0 0.76,-0.0933 0.76,-0.46667 0,-0.38667 -0.18667,-0.45333 -0.61333,-0.45333 h -1.82667 c -0.34667,0 -0.52,0.14666 -0.52,0.45333 0,0.37333 0.21333,0.46667 0.74667,0.46667 z"
         style="font-style:normal;font-variant:normal;font-weight:normal;font-stretch:normal;font-size:13.33333397px;font-family:'Courier 10 Pitch';-inkscape-font-specification:'Courier 10 Pitch';fill:#000000;fill-opacity:1"
         id="path6272" />
    </g>
    <g
       aria-label="p. width"
       transform="matrix(0.26458333,0,0,0.26458333,-7.8731592,158.81161)"
       style="font-style:normal;font-variant:normal;font-weight:bold;font-stretch:normal;font-size:26.66666603px;line-height:1.25;font-family:'Courier 10 Pitch';-inkscape-font-specification:'Courier 10 Pitch Bold';text-align:center;letter-spacing:0px;word-spacing:0px;text-anchor:middle;fill:#000000;fill-opacity:1;stroke:none"
       id="flowRoot5921-69-7">
      <path
         d="m 58.763332,329.7638 c -1.213333,0 -2.053333,-0.86667 -2.053333,-2.04 0,-1.17334 0.84,-2.04001 2.053333,-2.04001 1.226667,0 2.066667,0.86667 2.066667,2.04001 0,1.21333 -0.866667,2.04 -2.066667,2.04 z m -2.026667,2.61333 v -2.6 c 0.533334,0.61333 1.333334,0.94667 2.253334,0.94667 1.706666,0 2.96,-1.2 2.96,-2.93334 0,-1.82667 -1.36,-3.10667 -3.066667,-3.10667 -0.826667,0 -1.546667,0.30667 -2.133333,0.90667 v -0.62667 c 0,-0.18666 -0.12,-0.26666 -0.373334,-0.26666 h -1 c -0.346667,0 -0.52,0.14666 -0.52,0.45333 0,0.33333 0.2,0.46667 0.613334,0.46667 0.09333,0 0.2,0 0.293333,0 v 6.76 c -0.04,0 -0.08,0 -0.12,0 -0.546667,0 -0.786667,0.0933 -0.786667,0.46667 0,0.30666 0.173333,0.46666 0.52,0.46666 h 2.88 c 0.386667,0 0.546667,-0.10666 0.546667,-0.46666 0,-0.30667 -0.16,-0.46667 -0.493333,-0.46667 z"
         style="font-style:normal;font-variant:normal;font-weight:normal;font-stretch:normal;font-size:13.33333397px;font-family:'Courier 10 Pitch';-inkscape-font-specification:'Courier 10 Pitch';fill:#000000;fill-opacity:1"
         id="path6275" />
      <path
         d="m 65.170833,329.6438 c 0,0.66666 0.506666,1.16 1.28,1.16 0.773333,0 1.28,-0.48 1.28,-1.16 0,-0.68 -0.506667,-1.16 -1.28,-1.16 -0.773334,0 -1.28,0.49333 -1.28,1.16 z"
         style="font-style:normal;font-variant:normal;font-weight:normal;font-stretch:normal;font-size:13.33333397px;font-family:'Courier 10 Pitch';-inkscape-font-specification:'Courier 10 Pitch';fill:#000000;fill-opacity:1"
         id="path6277" />
      <path
         d="m 82.439167,327.4038 0.866667,2.96 c 0.12,0.4 0.253333,0.57333 0.64,0.57333 0.306667,0 0.453333,-0.12 0.546667,-0.44 l 1.466666,-4.88 c 0.413334,0 0.56,-0.12 0.56,-0.46667 0,-0.30667 -0.146666,-0.45333 -0.4,-0.45333 h -1.746666 c -0.413334,0 -0.573334,0.08 -0.573334,0.45333 0,0.38667 0.213334,0.48 0.76,0.48 0.133334,0 0.28,0 0.453334,-0.0133 l -1.093334,3.90667 -0.813333,-2.70667 c -0.12,-0.4 -0.253333,-0.57334 -0.64,-0.57334 -0.306667,0 -0.453333,0.13334 -0.546667,0.44001 l -0.84,2.84 -1.12,-3.90667 c 0.16,0.0133 0.293333,0.0133 0.426667,0.0133 0.573333,0 0.8,-0.0933 0.8,-0.48 0,-0.38667 -0.173334,-0.45333 -0.586667,-0.45333 H 78.8525 c -0.333333,0 -0.493333,0.16 -0.493333,0.45333 0,0.34667 0.16,0.46667 0.573333,0.46667 l 1.493334,4.74667 c 0.12,0.4 0.253333,0.57333 0.64,0.57333 0.293333,0 0.466667,-0.13333 0.546667,-0.44 z"
         style="font-style:normal;font-variant:normal;font-weight:normal;font-stretch:normal;font-size:13.33333397px;font-family:'Courier 10 Pitch';-inkscape-font-specification:'Courier 10 Pitch';fill:#000000;fill-opacity:1"
         id="path6279" />
      <path
         d="m 91.113335,329.79046 v -4.82667 c 0,-0.16 -0.12,-0.26666 -0.373334,-0.26666 h -1.906667 c -0.346666,0 -0.52,0.14666 -0.52,0.45333 0,0.30667 0.186667,0.46667 0.546667,0.46667 h 1.266667 v 4.17333 h -1.986667 c -0.36,0 -0.546667,0.14667 -0.546667,0.45334 0,0.30666 0.173334,0.46666 0.52,0.46666 h 5.053334 c 0.386667,0 0.533333,-0.0933 0.533333,-0.46666 0,-0.32 -0.16,-0.45334 -0.493333,-0.45334 z m -1.213334,-6.97333 c 0,0.53333 0.133334,0.64 0.68,0.64 0.626667,0 0.666667,-0.14667 0.666667,-0.82667 0,-0.68 -0.06667,-0.88 -0.666667,-0.88 -0.6,0 -0.68,0.2 -0.68,1.06667 z"
         style="font-style:normal;font-variant:normal;font-weight:normal;font-stretch:normal;font-size:13.33333397px;font-family:'Courier 10 Pitch';-inkscape-font-specification:'Courier 10 Pitch';fill:#000000;fill-opacity:1"
         id="path6281" />
      <path
         d="m 96.227504,327.79046 c 0,-1.29333 0.826666,-2.14667 2.053333,-2.14667 1.213333,0 2.053333,0.88 2.053333,2.08001 0,1.2 -0.866666,2.10666 -2.066666,2.10666 -1.16,0 -2.04,-0.81333 -2.04,-2.04 z m 4.266666,2.92 h 1.24 c 0.28,0 0.46667,-0.17333 0.46667,-0.46666 0,-0.33334 -0.18667,-0.45334 -0.6,-0.45334 -0.0933,0 -0.2,0 -0.29334,0 v -7.33333 c 0,-0.18667 -0.12,-0.26667 -0.37333,-0.26667 h -1.333333 c -0.346667,0 -0.52,0.16 -0.52,0.46667 0,0.42666 0.28,0.46666 0.893333,0.46666 h 0.34667 v 2.49334 c -0.50667,-0.62667 -1.22667,-0.93334 -2.120003,-0.93334 -1.76,0 -3.093333,1.36 -3.093333,3.08001 0,1.82666 1.253333,3.10666 2.893333,3.10666 0.92,0 1.72,-0.37333 2.240003,-1.02666 v 0.53333 c 0,0.22667 0.0533,0.33333 0.25333,0.33333 z"
         style="font-style:normal;font-variant:normal;font-weight:normal;font-stretch:normal;font-size:13.33333397px;font-family:'Courier 10 Pitch';-inkscape-font-specification:'Courier 10 Pitch';fill:#000000;fill-opacity:1"
         id="path6283" />
      <path
         d="m 108.32834,325.05713 h -2.56 v -1.32 c 0,-0.64 -0.0533,-0.90667 -0.52,-0.90667 -0.34667,0 -0.50667,0.18667 -0.50667,0.54667 0,0.17333 0,0.29333 0,0.34666 v 1.33334 h -0.72 c -0.62667,0 -0.89333,0.04 -0.89333,0.46666 0,0.32 0.16,0.45334 0.52,0.45334 h 1.09333 v 2.17333 c 0,0.0667 0,0.13334 0,0.2 0,0.6 0.0133,1.12 0.24,1.50667 0.37333,0.65333 1.06667,0.97333 2.06667,0.97333 0.61333,0 1.29333,-0.17333 2.10666,-0.49333 0.48,-0.18667 0.72,-0.37333 0.72,-0.68 0,-0.24 -0.21333,-0.46667 -0.45333,-0.46667 -0.52,0 -1.38667,0.69334 -2.44,0.69334 -1.14667,0 -1.22667,-0.69334 -1.22667,-1.73334 v -2.17333 h 2.64 c 0.36,0 0.54667,-0.14667 0.54667,-0.45334 0,-0.33333 -0.2,-0.46666 -0.61333,-0.46666 z"
         style="font-style:normal;font-variant:normal;font-weight:normal;font-stretch:normal;font-size:13.33333397px;font-family:'Courier 10 Pitch';-inkscape-font-specification:'Courier 10 Pitch';fill:#000000;fill-opacity:1"
         id="path6285" />
      <path
         d="m 112.1225,329.79046 c -0.0533,0 -0.0933,0 -0.13333,0 -0.53334,0 -0.76,0.08 -0.76,0.45334 0,0.30666 0.17333,0.46666 0.52,0.46666 h 1.73333 c 0.38667,0 0.52,-0.0933 0.52,-0.46666 0,-0.36 -0.17333,-0.46667 -0.62667,-0.46667 -0.08,0 -0.17333,0.0133 -0.28,0.0133 v -2.70666 c 0,-0.97334 0.90667,-1.56001 1.69334,-1.56001 0.85333,0 1.37333,0.52 1.37333,1.56001 v 2.70666 c -0.12,0 -0.18667,0 -0.25333,0 -0.46667,0 -0.64,0.0933 -0.64,0.45334 0,0.37333 0.13333,0.46666 0.52,0.46666 h 1.73333 c 0.34667,0 0.52,-0.16 0.52,-0.46666 0,-0.33334 -0.2,-0.45334 -0.61333,-0.45334 -0.0933,0 -0.18667,0 -0.28,0 v -2.94666 c 0,-1.50667 -0.89334,-2.32001 -2.13334,-2.32001 -0.68,0 -1.28,0.29334 -1.90666,0.88 v -2.94666 c 0,-0.16 -0.12,-0.26667 -0.37334,-0.26667 h -0.98666 c -0.34667,0 -0.52,0.16 -0.52,0.46667 0,0.33333 0.18666,0.45333 0.6,0.45333 0.0933,0 0.2,0.0133 0.29333,0.0133 z"
         style="font-style:normal;font-variant:normal;font-weight:normal;font-stretch:normal;font-size:13.33333397px;font-family:'Courier 10 Pitch';-inkscape-font-specification:'Courier 10 Pitch';fill:#000000;fill-opacity:1"
         id="path6287" />
    </g>
    <g
       aria-label="v/oct"
       transform="matrix(0.26458333,0,0,0.26458333,-14.962856,173.51197)"
       style="font-style:normal;font-variant:normal;font-weight:bold;font-stretch:normal;font-size:26.66666603px;line-height:1.25;font-family:'Courier 10 Pitch';-inkscape-font-specification:'Courier 10 Pitch Bold';text-align:center;letter-spacing:0px;word-spacing:0px;text-anchor:middle;fill:#000000;fill-opacity:1;stroke:none"
       id="flowRoot5921-69">
      <path
         d="m 67.474582,325.61713 2.133334,4.74667 c 0.173333,0.4 0.32,0.57333 0.76,0.57333 0.466667,0 0.6,-0.16 0.786667,-0.57333 l 2.146666,-4.74667 c 0.04,0 0.08,0 0.12,0 0.52,0 0.746667,-0.0933 0.746667,-0.46667 0,-0.30667 -0.173333,-0.45333 -0.52,-0.45333 h -2.013333 c -0.426667,0 -0.613334,0.0667 -0.613334,0.45333 0,0.38667 0.24,0.48 0.853334,0.48 0.12,0 0.24,-0.0133 0.386666,-0.0133 l -1.88,4.21333 -1.693333,-4.21333 c 0.08,0 0.16,0 0.24,0 0.533333,0 0.76,-0.0933 0.76,-0.46667 0,-0.38667 -0.186667,-0.45333 -0.613333,-0.45333 h -1.826667 c -0.346667,0 -0.52,0.14666 -0.52,0.45333 0,0.37333 0.213333,0.46667 0.746666,0.46667 z"
         style="font-style:normal;font-variant:normal;font-weight:normal;font-stretch:normal;font-size:13.33333397px;font-family:'Courier 10 Pitch';-inkscape-font-specification:'Courier 10 Pitch';fill:#000000;fill-opacity:1"
         id="path6290"
         inkscape:connector-curvature="0" />
      <path
         d="m 77.015416,330.8838 4.093334,-8.81334 c 0.04,-0.08 0.06667,-0.16 0.06667,-0.24 0,-0.25333 -0.226667,-0.44 -0.466667,-0.44 -0.266667,0 -0.4,0.18667 -0.586667,0.57333 l -4.066667,8.76001 c -0.04,0.0933 -0.06667,0.18666 -0.06667,0.26666 0,0.25334 0.213333,0.45334 0.453333,0.45334 0.28,0 0.413333,-0.2 0.573334,-0.56 z"
         style="font-style:normal;font-variant:normal;font-weight:normal;font-stretch:normal;font-size:13.33333397px;font-family:'Courier 10 Pitch';-inkscape-font-specification:'Courier 10 Pitch';fill:#000000;fill-opacity:1"
         id="path6292"
         inkscape:connector-curvature="0" />
      <path
         d="m 89.902917,327.71046 c 0,-1.8 -1.333333,-3.16 -3.4,-3.16 -2.066667,0 -3.413333,1.34667 -3.413333,3.16 0,1.81334 1.346666,3.16 3.413333,3.16 2.066667,0 3.4,-1.34666 3.4,-3.16 z m -3.4,2.25334 c -1.346667,0 -2.28,-0.96 -2.28,-2.25334 0,-1.29333 0.933333,-2.26667 2.28,-2.26667 1.346667,0 2.28,0.97334 2.28,2.26667 0,1.30667 -0.933333,2.25334 -2.28,2.25334 z"
         style="font-style:normal;font-variant:normal;font-weight:normal;font-stretch:normal;font-size:13.33333397px;font-family:'Courier 10 Pitch';-inkscape-font-specification:'Courier 10 Pitch';fill:#000000;fill-opacity:1"
         id="path6294"
         inkscape:connector-curvature="0" />
      <path
         d="m 97.457085,326.65713 v -1.21334 c 0,-0.56 -0.06667,-0.8 -0.466667,-0.8 -0.333333,0 -0.506667,0.12 -0.506667,0.41334 0,0 0,0.0133 0,0.0267 -0.72,-0.36 -1.373333,-0.54666 -2.053333,-0.54666 -1.866667,0 -3.28,1.37333 -3.28,3.17333 0,1.8 1.4,3.16 3.293333,3.16 1.573334,0 3.04,-0.97333 3.04,-1.58666 0,-0.26667 -0.186666,-0.45334 -0.453333,-0.45334 -0.346667,0 -0.6,0.32 -1,0.58667 -0.466667,0.30667 -1,0.48 -1.52,0.48 -1.36,0 -2.226667,-0.90667 -2.226667,-2.2 0,-1.25334 0.933333,-2.14667 2.28,-2.14667 0.773334,0 1.386667,0.36 1.786667,1.06667 0.2,0.36 0.333333,0.52 0.613333,0.52 0.32,0 0.493334,-0.16 0.493334,-0.48 z"
         style="font-style:normal;font-variant:normal;font-weight:normal;font-stretch:normal;font-size:13.33333397px;font-family:'Courier 10 Pitch';-inkscape-font-specification:'Courier 10 Pitch';fill:#000000;fill-opacity:1"
         id="path6296"
         inkscape:connector-curvature="0" />
      <path
         d="m 104.31792,325.05713 h -2.56 v -1.32 c 0,-0.64 -0.0533,-0.90667 -0.52,-0.90667 -0.34667,0 -0.50667,0.18667 -0.50667,0.54667 0,0.17333 0,0.29333 0,0.34666 v 1.33334 h -0.72 c -0.626665,0 -0.893332,0.04 -0.893332,0.46666 0,0.32 0.16,0.45334 0.52,0.45334 h 1.093332 v 2.17333 c 0,0.0667 0,0.13334 0,0.2 0,0.6 0.0133,1.12 0.24,1.50667 0.37334,0.65333 1.06667,0.97333 2.06667,0.97333 0.61333,0 1.29333,-0.17333 2.10667,-0.49333 0.48,-0.18667 0.72,-0.37333 0.72,-0.68 0,-0.24 -0.21334,-0.46667 -0.45334,-0.46667 -0.52,0 -1.38666,0.69334 -2.44,0.69334 -1.14666,0 -1.22666,-0.69334 -1.22666,-1.73334 v -2.17333 h 2.64 c 0.36,0 0.54666,-0.14667 0.54666,-0.45334 0,-0.33333 -0.2,-0.46666 -0.61333,-0.46666 z"
         style="font-style:normal;font-variant:normal;font-weight:normal;font-stretch:normal;font-size:13.33333397px;font-family:'Courier 10 Pitch';-inkscape-font-specification:'Courier 10 Pitch';fill:#000000;fill-opacity:1"
         id="path6298"
         inkscape:connector-curvature="0" />
    </g>
    <g
       aria-label="fm"
       transform="matrix(0.26458333,0,0,0.26458333,-3.0413007,173.52572)"
       style="font-style:normal;font-variant:normal;font-weight:bold;font-stretch:normal;font-size:26.66666603px;line-height:1.25;font-family:'Courier 10 Pitch';-inkscape-font-specification:'Courier 10 Pitch Bold';text-align:center;letter-spacing:0px;word-spacing:0px;text-anchor:middle;fill:#000000;fill-opacity:1;stroke:none"
       id="flowRoot5921-0-5">
      <path
         d="m 84.4925,329.77713 h -2.133334 v -3.97334 h 2.266667 c 0.333334,0 0.52,-0.17333 0.52,-0.48 0,-0.30666 -0.186666,-0.46666 -0.546666,-0.46666 h -2.280001 c -0.01333,-0.13334 -0.01333,-0.25334 -0.01333,-0.37334 0,-0.93333 0.386667,-1.33333 1.373334,-1.33333 0.573333,0 1.013333,0.16 1.333333,0.16 0.306667,0 0.533333,-0.18667 0.533333,-0.46667 0,-0.46666 -0.48,-0.66666 -1.426666,-0.66666 -1.986667,0 -2.853334,0.65333 -2.853334,2.21333 0,0.14667 0.01333,0.30667 0.02667,0.46667 h -1.04 c -0.346667,0 -0.52,0.16 -0.52,0.46666 0,0.30667 0.173333,0.48 0.533333,0.48 h 1.08 v 3.97334 h -1.106667 c -0.333333,0 -0.52,0.16 -0.52,0.46667 0,0.30666 0.186667,0.46666 0.546667,0.46666 h 4.253334 c 0.346666,0 0.52,-0.16 0.52,-0.46666 0,-0.30667 -0.186667,-0.46667 -0.546667,-0.46667 z"
         style="font-style:normal;font-variant:normal;font-weight:normal;font-stretch:normal;font-size:13.33333397px;font-family:'Courier 10 Pitch';-inkscape-font-specification:'Courier 10 Pitch';fill:#000000;fill-opacity:1"
         id="path6301"
         inkscape:connector-curvature="0" />
      <path
         d="m 92.886667,327.0838 v 2.97333 c 0,0.42667 0.186667,0.65333 0.546667,0.65333 h 0.786667 c 0.306666,0 0.466666,-0.16 0.466666,-0.46666 0,-0.37334 -0.186666,-0.45334 -0.68,-0.45334 -0.04,0 -0.08,0 -0.12,0 v -2.94666 c 0,-1.52001 -0.4,-2.32001 -1.6,-2.32001 -0.626667,0 -1.093333,0.26667 -1.453333,0.8 -0.186667,-0.53333 -0.586667,-0.8 -1.186667,-0.8 -0.506667,0 -0.906667,0.17334 -1.253333,0.56 -0.02667,-0.32 -0.09333,-0.38666 -0.373334,-0.38666 h -1 c -0.346666,0 -0.506666,0.14666 -0.506666,0.45333 0,0.33333 0.186666,0.46667 0.6,0.46667 0.09333,0 0.2,0 0.293333,0 v 4.17333 c -0.05333,0 -0.09333,0 -0.133333,0 -0.533334,0 -0.76,0.08 -0.76,0.45334 0,0.30666 0.16,0.46666 0.506666,0.46666 h 1.733334 c 0.386666,0 0.533333,-0.0933 0.533333,-0.46666 0,-0.36 -0.173333,-0.46667 -0.626667,-0.46667 -0.08,0 -0.173333,0.0133 -0.28,0.0133 v -3.58667 c 0.24,-0.45333 0.56,-0.68 0.96,-0.68 0.493334,0 0.853334,0.38667 0.853334,1.05334 0,0.08 0,0.25333 0,0.50667 v 2.74666 c 0,0.0667 0,0.12 0,0.17334 0,0.50666 0.02667,0.70666 0.453333,0.70666 h 0.826667 c 0.306667,0 0.453333,-0.16 0.453333,-0.46666 0,-0.37334 -0.186666,-0.45334 -0.68,-0.45334 -0.04,0 -0.08,0 -0.12,0 v -2.70666 c 0,-1.04001 0.453333,-1.56001 1.053334,-1.56001 0.653333,0 0.706666,0.57334 0.706666,1.56001 z"
         style="font-style:normal;font-variant:normal;font-weight:normal;font-stretch:normal;font-size:13.33333397px;font-family:'Courier 10 Pitch';-inkscape-font-specification:'Courier 10 Pitch';fill:#000000;fill-opacity:1"
         id="path6303"
         inkscape:connector-curvature="0" />
    </g>
    <g
       aria-label="sync"
       transform="matrix(0.26458333,0,0,0.26458333,8.5291435,173.51161)"
       style="font-style:normal;font-variant:normal;font-weight:bold;font-stretch:normal;font-size:26.66666603px;line-height:1.25;font-family:'Courier 10 Pitch';-inkscape-font-specification:'Courier 10 Pitch Bold';text-align:center;letter-spacing:0px;word-spacing:0px;text-anchor:middle;fill:#000000;fill-opacity:1;stroke:none"
       id="flowRoot5921-6-0">
      <path
         d="m 71.618333,330.2438 c 0,0.41333 0.173333,0.62666 0.48,0.62666 0.146666,0 0.36,-0.10666 0.666666,-0.30666 0.733334,0.18666 1.386667,0.29333 1.973334,0.29333 1.626667,0 2.546667,-0.81333 2.546667,-1.93333 0,-1.28 -0.893334,-1.78667 -2.613334,-1.82667 -1.28,-0.0267 -2.026667,-0.0933 -2.026667,-0.78667 0,-0.52 0.493334,-0.96 1.36,-0.96 0.68,0 1.16,0.16 1.653334,0.6 0.386667,0.34667 0.52,0.68 0.813333,0.68 0.32,0 0.44,-0.22667 0.44,-0.65333 v -0.76 c 0,-0.44 -0.146666,-0.65334 -0.44,-0.65334 -0.346666,0 -0.48,0.25334 -0.666667,0.25334 -0.186666,0 -0.706666,-0.29334 -1.653333,-0.29334 -1.613333,0 -2.506667,0.74667 -2.506667,1.82667 0,1.16 0.946667,1.8 2.72,1.8 0.186667,0 0.306667,0 0.373334,0 0.986666,0 1.466667,0.18667 1.466667,0.85334 0,0.58666 -0.586667,1.01333 -1.533334,1.01333 -0.88,0 -1.626667,-0.32 -1.973333,-0.77333 -0.253334,-0.33334 -0.213334,-0.69334 -0.613334,-0.69334 -0.346666,0 -0.466666,0.18667 -0.466666,0.53334 z"
         style="font-style:normal;font-variant:normal;font-weight:normal;font-stretch:normal;font-size:13.33333397px;font-family:'Courier 10 Pitch';-inkscape-font-specification:'Courier 10 Pitch';fill:#000000;fill-opacity:1"
         id="path6306"
         inkscape:connector-curvature="0" />
      <path
         d="m 81.999167,332.37713 3.426667,-6.76 c 0.453333,-0.0133 0.653333,-0.12 0.653333,-0.46667 0,-0.30667 -0.173333,-0.45333 -0.52,-0.45333 h -1.613334 c -0.426666,0 -0.613333,0.0667 -0.613333,0.45333 0,0.37333 0.226667,0.46667 0.786667,0.46667 0.08,0 0.16,0 0.253333,0 l -1.813333,3.58667 -1.746667,-3.58667 c 0.08,0 0.16,0 0.24,0 0.533333,0 0.76,-0.0933 0.76,-0.46667 0,-0.38667 -0.186667,-0.45333 -0.613333,-0.45333 h -1.813334 c -0.346666,0 -0.52,0.14666 -0.52,0.45333 0,0.37333 0.213334,0.46667 0.746667,0.46667 l 2.386667,4.68 -1.066667,2.08 h -1.413333 c -0.333334,0 -0.493334,0.16 -0.493334,0.46667 0,0.36 0.16,0.46666 0.546667,0.46666 h 2.986667 c 0.346666,0 0.533333,-0.16 0.533333,-0.46666 0,-0.38667 -0.24,-0.46667 -0.813333,-0.46667 -0.08,0 -0.173334,0 -0.28,0 z"
         style="font-style:normal;font-variant:normal;font-weight:normal;font-stretch:normal;font-size:13.33333397px;font-family:'Courier 10 Pitch';-inkscape-font-specification:'Courier 10 Pitch';fill:#000000;fill-opacity:1"
         id="path6308"
         inkscape:connector-curvature="0" />
      <path
         d="m 88.086667,329.79046 c -0.05333,0 -0.09333,0 -0.133333,0 -0.533333,0 -0.76,0.08 -0.76,0.45334 0,0.30666 0.173333,0.46666 0.546667,0.46666 0.173333,0 0.293333,0 0.346666,0 h 1.186667 c 0.493333,0 0.693333,-0.0267 0.693333,-0.46666 0,-0.36 -0.173333,-0.46667 -0.626666,-0.46667 -0.08,0 -0.173334,0.0133 -0.28,0.0133 v -2.70666 c 0,-0.97334 0.906666,-1.56001 1.693333,-1.56001 0.853333,0 1.333333,0.52 1.333333,1.56001 v 2.70666 c -0.08,0 -0.146666,0 -0.213333,0 -0.466667,0 -0.653333,0.0933 -0.653333,0.45334 0,0.42666 0.186666,0.46666 0.653333,0.46666 h 1.44 c 0.466667,0 0.693334,-0.0933 0.693334,-0.46666 0,-0.33334 -0.2,-0.45334 -0.613334,-0.45334 -0.09333,0 -0.2,0 -0.293333,0 v -2.94666 c 0,-1.50667 -0.88,-2.32001 -2.12,-2.32001 -0.68,0 -1.28,0.29334 -1.906667,0.88 v -0.44 c 0,-0.16 -0.12,-0.26666 -0.373333,-0.26666 h -0.613334 c -0.6,0 -0.893333,0 -0.893333,0.45333 0,0.33333 0.186667,0.46667 0.6,0.46667 0.09333,0 0.2,0 0.293333,0 z"
         style="font-style:normal;font-variant:normal;font-weight:normal;font-stretch:normal;font-size:13.33333397px;font-family:'Courier 10 Pitch';-inkscape-font-specification:'Courier 10 Pitch';fill:#000000;fill-opacity:1"
         id="path6310"
         inkscape:connector-curvature="0" />
      <path
         d="m 101.4675,326.65713 v -1.21334 c 0,-0.56 -0.0667,-0.8 -0.46667,-0.8 -0.33333,0 -0.50666,0.12 -0.50666,0.41334 0,0 0,0.0133 0,0.0267 -0.720002,-0.36 -1.373335,-0.54666 -2.053335,-0.54666 -1.866667,0 -3.28,1.37333 -3.28,3.17333 0,1.8 1.4,3.16 3.293333,3.16 1.573332,0 3.040002,-0.97333 3.040002,-1.58666 0,-0.26667 -0.18667,-0.45334 -0.45334,-0.45334 -0.34666,0 -0.6,0.32 -1,0.58667 -0.466662,0.30667 -0.999995,0.48 -1.519995,0.48 -1.36,0 -2.226667,-0.90667 -2.226667,-2.2 0,-1.25334 0.933333,-2.14667 2.28,-2.14667 0.773333,0 1.386667,0.36 1.786662,1.06667 0.2,0.36 0.33334,0.52 0.61334,0.52 0.32,0 0.49333,-0.16 0.49333,-0.48 z"
         style="font-style:normal;font-variant:normal;font-weight:normal;font-stretch:normal;font-size:13.33333397px;font-family:'Courier 10 Pitch';-inkscape-font-specification:'Courier 10 Pitch';fill:#000000;fill-opacity:1"
         id="path6312"
         inkscape:connector-curvature="0" />
    </g>
    <g
       aria-label="pwm"
       transform="matrix(0.26458333,0,0,0.26458333,20.428144,173.43622)"
       style="font-style:normal;font-variant:normal;font-weight:bold;font-stretch:normal;font-size:26.66666603px;line-height:1.25;font-family:'Courier 10 Pitch';-inkscape-font-specification:'Courier 10 Pitch Bold';text-align:center;letter-spacing:0px;word-spacing:0px;text-anchor:middle;fill:#000000;fill-opacity:1;stroke:none"
       id="flowRoot5921-9-6">
      <path
         d="m 78.815416,329.7638 c -1.213333,0 -2.053333,-0.86667 -2.053333,-2.04 0,-1.17334 0.84,-2.04001 2.053333,-2.04001 1.226667,0 2.066667,0.86667 2.066667,2.04001 0,1.21333 -0.866667,2.04 -2.066667,2.04 z m -2.026666,2.61333 v -2.6 c 0.533333,0.61333 1.333333,0.94667 2.253333,0.94667 1.706667,0 2.96,-1.2 2.96,-2.93334 0,-1.82667 -1.36,-3.10667 -3.066667,-3.10667 -0.826666,0 -1.546666,0.30667 -2.133333,0.90667 v -0.62667 c 0,-0.18666 -0.12,-0.26666 -0.373333,-0.26666 h -1.000001 c -0.346666,0 -0.52,0.14666 -0.52,0.45333 0,0.33333 0.2,0.46667 0.613334,0.46667 0.09333,0 0.2,0 0.293333,0 v 6.76 c -0.04,0 -0.08,0 -0.12,0 -0.546667,0 -0.786667,0.0933 -0.786667,0.46667 0,0.30666 0.173334,0.46666 0.52,0.46666 h 2.880001 c 0.386666,0 0.546666,-0.10666 0.546666,-0.46666 0,-0.30667 -0.16,-0.46667 -0.493333,-0.46667 z"
         style="font-style:normal;font-variant:normal;font-weight:normal;font-stretch:normal;font-size:13.33333397px;font-family:'Courier 10 Pitch';-inkscape-font-specification:'Courier 10 Pitch';fill:#000000;fill-opacity:1"
         id="path6315"
         inkscape:connector-curvature="0" />
      <path
         d="m 86.449584,327.4038 0.866666,2.96 c 0.12,0.4 0.253334,0.57333 0.64,0.57333 0.306667,0 0.453334,-0.12 0.546667,-0.44 l 1.466667,-4.88 c 0.413333,0 0.56,-0.12 0.56,-0.46667 0,-0.30667 -0.146667,-0.45333 -0.4,-0.45333 h -1.746667 c -0.413333,0 -0.573333,0.08 -0.573333,0.45333 0,0.38667 0.213333,0.48 0.76,0.48 0.133333,0 0.28,0 0.453333,-0.0133 l -1.093333,3.90667 -0.813334,-2.70667 c -0.12,-0.4 -0.253333,-0.57334 -0.64,-0.57334 -0.306666,0 -0.453333,0.13334 -0.546666,0.44001 l -0.84,2.84 -1.120001,-3.90667 c 0.16,0.0133 0.293334,0.0133 0.426667,0.0133 0.573334,0 0.8,-0.0933 0.8,-0.48 0,-0.38667 -0.173333,-0.45333 -0.586667,-0.45333 h -1.746666 c -0.333334,0 -0.493334,0.16 -0.493334,0.45333 0,0.34667 0.16,0.46667 0.573334,0.46667 l 1.493333,4.74667 c 0.12,0.4 0.253334,0.57333 0.64,0.57333 0.293334,0 0.466667,-0.13333 0.546667,-0.44 z"
         style="font-style:normal;font-variant:normal;font-weight:normal;font-stretch:normal;font-size:13.33333397px;font-family:'Courier 10 Pitch';-inkscape-font-specification:'Courier 10 Pitch';fill:#000000;fill-opacity:1"
         id="path6317"
         inkscape:connector-curvature="0" />
      <path
         d="m 96.897084,327.0838 v 2.97333 c 0,0.42667 0.186667,0.65333 0.546667,0.65333 h 0.786667 c 0.306666,0 0.466666,-0.16 0.466666,-0.46666 0,-0.37334 -0.186666,-0.45334 -0.68,-0.45334 -0.04,0 -0.08,0 -0.12,0 v -2.94666 c 0,-1.52001 -0.4,-2.32001 -1.6,-2.32001 -0.626666,0 -1.093333,0.26667 -1.453333,0.8 -0.186667,-0.53333 -0.586667,-0.8 -1.186667,-0.8 -0.506667,0 -0.906667,0.17334 -1.253333,0.56 -0.02667,-0.32 -0.09333,-0.38666 -0.373334,-0.38666 h -1 c -0.346666,0 -0.506666,0.14666 -0.506666,0.45333 0,0.33333 0.186666,0.46667 0.6,0.46667 0.09333,0 0.2,0 0.293333,0 v 4.17333 c -0.05333,0 -0.09333,0 -0.133333,0 -0.533334,0 -0.76,0.08 -0.76,0.45334 0,0.30666 0.16,0.46666 0.506666,0.46666 h 1.733334 c 0.386666,0 0.533333,-0.0933 0.533333,-0.46666 0,-0.36 -0.173333,-0.46667 -0.626667,-0.46667 -0.08,0 -0.173333,0.0133 -0.28,0.0133 v -3.58667 c 0.24,-0.45333 0.56,-0.68 0.96,-0.68 0.493334,0 0.853334,0.38667 0.853334,1.05334 0,0.08 0,0.25333 0,0.50667 v 2.74666 c 0,0.0667 0,0.12 0,0.17334 0,0.50666 0.02667,0.70666 0.453333,0.70666 h 0.826667 c 0.306667,0 0.453333,-0.16 0.453333,-0.46666 0,-0.37334 -0.186666,-0.45334 -0.68,-0.45334 -0.04,0 -0.08,0 -0.12,0 v -2.70666 c 0,-1.04001 0.453334,-1.56001 1.053334,-1.56001 0.653333,0 0.706666,0.57334 0.706666,1.56001 z"
         style="font-style:normal;font-variant:normal;font-weight:normal;font-stretch:normal;font-size:13.33333397px;font-family:'Courier 10 Pitch';-inkscape-font-specification:'Courier 10 Pitch';fill:#000000;fill-opacity:1"
         id="path6319"
         inkscape:connector-curvature="0" />
    </g>
  </g>
  <g
     inkscape:groupmode="layer"
     id="layer4"
     inkscape:label="components"
     style="display:inline">
    <circle
       style="fill:#ff0000;fill-opacity:1;stroke:none;stroke-width:0.29890588;stroke-opacity:1"
       id="path5590"
       cx="36.5"
       cy="44.5"
       r="4"
       inkscape:label="FM" />
    <circle
       style="fill:#ff0000;fill-opacity:1;stroke:none;stroke-width:0.29890591;stroke-opacity:1"
       id="path5590-4"
       cx="36.5"
       cy="60.5"
       r="4"
       inkscape:label="PWM" />
    <circle
       style="fill:#ff0000;fill-opacity:1;stroke:none;stroke-width:0.29890591;stroke-opacity:1"
       id="path5590-1"
       cx="36.5"
       cy="76.5"
       r="4"
       inkscape:label="PWIDTH" />
    <circle
       style="fill:#0000ff;fill-opacity:1;stroke:none;stroke-width:0.22417943;stroke-opacity:1"
       id="path5590-43"
       cx="43.400002"
       cy="116.5"
       r="3"
       inkscape:label="SQR" />
    <circle
       style="fill:#0000ff;fill-opacity:1;stroke:none;stroke-width:0.22417943;stroke-opacity:1"
       id="path5590-43-5"
       cx="8"
       cy="116.5"
       r="3"
       inkscape:label="SIN" />
    <circle
       style="fill:#0000ff;fill-opacity:1;stroke:none;stroke-width:0.22417943;stroke-opacity:1"
       id="path5590-43-4"
       cx="31.6"
       cy="116.5"
       r="3"
       inkscape:label="SAW" />
    <circle
       style="fill:#0000ff;fill-opacity:1;stroke:none;stroke-width:0.22417943;stroke-opacity:1"
       id="path5590-43-8"
       cx="19.799999"
       cy="116.5"
       r="3"
       inkscape:label="TRI" />
    <circle
       style="fill:#ff0000;fill-opacity:1;stroke:none;stroke-width:0.29890588;stroke-opacity:1"
       id="path5590-7"
       cx="15"
       cy="29.5"
       r="4"
       inkscape:label="FREQ" />
    <rect
       style="fill:#ffff00;fill-opacity:1;stroke:none;stroke-width:0.30551454;stroke-opacity:1"
       id="rect5727"
       width="4"
       height="7"
       x="34.5"
       y="21.5"
       inkscape:label="SYNC" />
    <circle
       style="fill:#ff00ff;fill-opacity:1;stroke:none;stroke-width:0.14924049;stroke-opacity:1"
       id="path5729-1"
       cx="21.75"
       cy="18.25"
       r="0.75" />
    <circle
       style="fill:#ffff00;fill-opacity:1;stroke:none;stroke-width:0.22417943;stroke-opacity:1"
       id="path5590-43-3"
       cx="43.400002"
       cy="98.5"
       r="3"
       inkscape:label="PWM" />
    <circle
       style="fill:#ffff00;fill-opacity:1;stroke:none;stroke-width:0.22417943;stroke-opacity:1"
       id="path5590-43-5-0"
       cx="8"
       cy="98.5"
       r="3"
       inkscape:label="PITCH" />
    <circle
       style="fill:#ffff00;fill-opacity:1;stroke:none;stroke-width:0.22417943;stroke-opacity:1"
       id="path5590-43-4-8"
       cx="31.600002"
       cy="98.5"
       r="3"
       inkscape:label="SYNC" />
    <circle
       style="fill:#ffff00;fill-opacity:1;stroke:none;stroke-width:0.22417943;stroke-opacity:1"
       id="path5590-43-8-7"
       cx="19.799999"
       cy="98.5"
       r="3"
       inkscape:label="FM" />
  </g>
</svg>
